<?xml version="1.0" standalone="no"?>
<!DOCTYPE svg PUBLIC "-//W3C//DTD SVG 20010904//EN"
 "http://www.w3.org/TR/2001/REC-SVG-20010904/DTD/svg10.dtd">
<svg version="1.0" xmlns="http://www.w3.org/2000/svg"
 width="234.000000pt" height="148.000000pt" viewBox="0 0 234.000000 148.000000"
 preserveAspectRatio="xMidYMid meet">
<metadata>
Created by potrace 1.13, written by Peter Selinger 2001-2015
</metadata>
<g transform="translate(0.000000,148.000000) scale(0.100000,-0.100000)"
fill="#000000" stroke="none">
<path d="M360 966 c0 -9 8 -16 20 -16 19 0 20 -7 20 -185 0 -178 -1 -185 -20
-185 -12 0 -20 -7 -20 -16 0 -14 15 -16 121 -13 l121 4 29 33 c22 24 29 42 29
71 0 46 -35 95 -76 105 l-26 7 41 35 c36 31 41 41 41 78 0 33 -6 48 -26 67
-23 22 -35 24 -140 28 -100 3 -114 1 -114 -13z m183 -27 c30 -16 37 -28 37
-67 0 -45 -38 -82 -85 -82 l-35 0 0 80 0 80 31 0 c17 0 40 -5 52 -11z m8 -202
c85 -57 49 -157 -56 -157 l-35 0 0 90 0 90 29 0 c15 0 43 -10 62 -23z"/>
</g>
</svg>
