<svg xmlns="http://www.w3.org/2000/svg" viewBox="0 0 11.98 15.29"><defs><style>.cls-1{fill:#fff;}</style></defs><title>email</title><g id="Layer_2" data-name="Layer 2"><g id="Layer_1-2" data-name="Layer 1"><g id="_Group_" data-name="&lt;Group&gt;"><path id="_Compound_Path_" data-name="&lt;Compound Path&gt;" class="cls-1" d="M9.18,5.61H2.8a.25.25,0,1,0,0,.51H9.18a.25.25,0,1,0,0-.51Zm0,0"/><path id="_Compound_Path_2" data-name="&lt;Compound Path&gt;" class="cls-1" d="M2.8,4.08H5.35a.26.26,0,0,0,0-.51H2.8a.26.26,0,0,0,0,.51Zm0,0"/><path id="_Compound_Path_3" data-name="&lt;Compound Path&gt;" class="cls-1" d="M9.18,7.65H2.8a.26.26,0,0,0,0,.51H9.18a.26.26,0,0,0,0-.51Zm0,0"/><path id="_Compound_Path_4" data-name="&lt;Compound Path&gt;" class="cls-1" d="M9.18,9.68H2.8a.26.26,0,0,0,0,.51H9.18a.26.26,0,0,0,0-.51Zm0,0"/><path id="_Compound_Path_5" data-name="&lt;Compound Path&gt;" class="cls-1" d="M9.18,11.72H2.8a.25.25,0,1,0,0,.51H9.18a.25.25,0,1,0,0-.51Zm0,0"/><path id="_Compound_Path_6" data-name="&lt;Compound Path&gt;" class="cls-1" d="M8.26,0H0V15.29H12V3.72Zm.15.87,2.7,2.7H8.41ZM.51,14.78V.51H7.9V4.08h3.57v10.7Zm0,0"/></g></g></g></svg>