<svg xmlns="http://www.w3.org/2000/svg" xmlns:xlink="http://www.w3.org/1999/xlink" viewBox="0 0 11.58 11.29"><defs><style>.cls-1,.cls-3{fill:none;}.cls-2{fill:#359fd7;}.cls-3{stroke-miterlimit:10;stroke:url(#New_Pattern_Swatch_1);}</style><pattern id="New_Pattern_Swatch_1" data-name="New Pattern Swatch 1" width="21.48" height="21.48" patternUnits="userSpaceOnUse" viewBox="0 0 21.48 21.48"><g id="_Group_" data-name="&lt;Group&gt;"><rect id="_Path_" data-name="&lt;Path&gt;" class="cls-1" width="21.48" height="21.48"/><rect id="_Rectangle_" data-name="&lt;Rectangle&gt;" class="cls-2" width="21.48" height="21.48"/></g></pattern></defs><title>experience</title><g id="Layer_2" data-name="Layer 2"><g id="Layer_1-2" data-name="Layer 1"><path id="_Path_2" data-name="&lt;Path&gt;" class="cls-3" d="M11.08,4.59,9.41,5.77,8.09,6.7a.31.31,0,0,0-.15.41l.51,1.53L9,10.41a.52.52,0,0,1,0,.15.67.67,0,0,1-.14-.06L7,9.18,6,8.44a.34.34,0,0,0-.39,0l-2,1.4-.95.67,0,0-.09,0a.24.24,0,0,1,0-.09l.27-.8.84-2.48,0-.11a.3.3,0,0,0-.13-.35L2.2,5.79.86,4.85.5,4.59v0l.18,0H4.2c.25,0,.33,0,.41-.28l.53-1.58L5.71,1A.52.52,0,0,1,5.79.85.45.45,0,0,1,5.87,1l.68,2L7,4.3a.31.31,0,0,0,.32.22h3.61l.17,0Z"/></g></g></svg>