<svg xmlns="http://www.w3.org/2000/svg" viewBox="0 0 20.94 20.94"><defs><style>.cls-1{fill:#fff;}</style></defs><title>jira</title><g id="Layer_2" data-name="Layer 2"><g id="Layer_1-2" data-name="Layer 1"><g id="_Group_" data-name="&lt;Group&gt;"><path id="_Path_" data-name="&lt;Path&gt;" class="cls-1" d="M9.72,7.63a1.16,1.16,0,1,0-.59-1.53,1.16,1.16,0,0,0,.59,1.53"/><path id="_Path_2" data-name="&lt;Path&gt;" class="cls-1" d="M9.74,9.79a10.34,10.34,0,0,0-7.2-1.22v.6a11,11,0,0,1,1.52.13,8.93,8.93,0,0,1,4.39,1.79,11.2,11.2,0,0,1,1.28-1.3"/><path id="_Path_3" data-name="&lt;Path&gt;" class="cls-1" d="M11.74,11.34a9.06,9.06,0,0,0-1.32,1.86,9.51,9.51,0,0,1,1.09,2.28l2.78,0a10.16,10.16,0,0,0-2.55-4.11"/><path id="_Path_4" data-name="&lt;Path&gt;" class="cls-1" d="M16.85,8.35a11.22,11.22,0,0,1,1.56-.19V7.54a10.55,10.55,0,0,0-11.91,8l2.84,0a9.15,9.15,0,0,1,7.53-7.16"/><path id="_Compound_Path_" data-name="&lt;Compound Path&gt;" class="cls-1" d="M10.47,20.94A10.47,10.47,0,1,1,20.94,10.47,10.48,10.48,0,0,1,10.47,20.94M10.47,1a9.45,9.45,0,1,0,9.45,9.45A9.46,9.46,0,0,0,10.47,1"/><path id="_Compound_Path_2" data-name="&lt;Compound Path&gt;" class="cls-1" d="M10.47.24A10.23,10.23,0,1,0,20.71,10.47,10.23,10.23,0,0,0,10.47.24m0,19.92a9.69,9.69,0,1,1,9.69-9.69,9.69,9.69,0,0,1-9.69,9.69"/></g></g></g></svg>