<svg xmlns="http://www.w3.org/2000/svg" viewBox="0 0 21.83 21.83"><defs><style>.cls-1{fill:#fff;}.cls-2{fill:none;stroke:#fff;stroke-miterlimit:2;}</style></defs><title>linkedin</title><g id="Layer_2" data-name="Layer 2"><g id="Layer_1-2" data-name="Layer 1"><g id="_Group_" data-name="&lt;Group&gt;"><path id="LinkedIn" class="cls-1" d="M15.56,10.81V14H13.68V11c0-.76-.27-1.28-1-1.28a1,1,0,0,0-1,.69,1.28,1.28,0,0,0-.06.46V14H9.83s0-5.11,0-5.64h1.88v.82h0v0a1.86,1.86,0,0,1,1.69-.93C14.63,8.28,15.56,9.08,15.56,10.81ZM7.87,5.69a1,1,0,1,0,0,1.95h0a1,1,0,1,0,0-1.95ZM6.92,14H8.8V8.41H6.92Z"/><circle id="_Path_" data-name="&lt;Path&gt;" class="cls-2" cx="10.92" cy="10.92" r="10.42"/></g></g></g></svg>