<svg xmlns="http://www.w3.org/2000/svg" xmlns:xlink="http://www.w3.org/1999/xlink" viewBox="0 0 25.43 25.43"><defs><style>.cls-1{fill:none;}.cls-2{fill:#359fd7;}.cls-3{fill:#fff;stroke-miterlimit:10;stroke:url(#New_Pattern_Swatch_1);}</style><pattern id="New_Pattern_Swatch_1" data-name="New Pattern Swatch 1" width="21.48" height="21.48" patternUnits="userSpaceOnUse" viewBox="0 0 21.48 21.48"><g id="_Group_" data-name="&lt;Group&gt;"><rect id="_Path_" data-name="&lt;Path&gt;" class="cls-1" width="21.48" height="21.48"/><rect id="_Rectangle_" data-name="&lt;Rectangle&gt;" class="cls-2" width="21.48" height="21.48"/></g></pattern></defs><title>location</title><g id="Layer_2" data-name="Layer 2"><g id="Layer_1-2" data-name="Layer 1"><g id="_Group_3" data-name="&lt;Group&gt;"><circle id="_Path_3" data-name="&lt;Path&gt;" class="cls-3" cx="12.72" cy="12.72" r="12.22"/><path id="_Compound_Path_" data-name="&lt;Compound Path&gt;" class="cls-3" d="M12.72,12a1.11,1.11,0,0,0,1.11-1.13,1.12,1.12,0,0,0-2.23,0A1.11,1.11,0,0,0,12.72,12Zm0,6.3-.56-.83a31.43,31.43,0,0,1-2.7-4.75A4.74,4.74,0,0,1,9,10.83a3.73,3.73,0,1,1,7.18,1.35,20.75,20.75,0,0,1-1.85,3.61C13.81,16.61,13.28,17.41,12.73,18.27Z"/></g></g></g></svg>