<svg xmlns="http://www.w3.org/2000/svg" xmlns:xlink="http://www.w3.org/1999/xlink" viewBox="0 0 7.17 16.73"><defs><style>.cls-1{fill:none;}.cls-2{fill:#359fd7;}.cls-3{stroke:#fff;stroke-miterlimit:10;stroke-width:0.75px;fill:url(#New_Pattern_Swatch_1);}</style><pattern id="New_Pattern_Swatch_1" data-name="New Pattern Swatch 1" width="21.48" height="21.48" patternUnits="userSpaceOnUse" viewBox="0 0 21.48 21.48"><g id="_Group_" data-name="&lt;Group&gt;"><rect id="_Path_" data-name="&lt;Path&gt;" class="cls-1" width="21.48" height="21.48"/><rect id="_Rectangle_" data-name="&lt;Rectangle&gt;" class="cls-2" width="21.48" height="21.48"/></g></pattern></defs><title>phone</title><g id="Layer_2" data-name="Layer 2"><g id="Layer_1-2" data-name="Layer 1"><g id="gcuv71"><g id="_Group_2" data-name="&lt;Group&gt;"><path id="_Path_2" data-name="&lt;Path&gt;" class="cls-3" d="M.41,15.49a1,1,0,0,1,.06-.67c.19-.67.38-1.34.56-2,0-.16.06-.33.11-.49a.51.51,0,0,1,.58-.46c.36,0,.72,0,1.08.06h.75a.38.38,0,0,0,.38-.3c.1-.32.19-.64.27-1A9,9,0,0,0,4.48,9a7,7,0,0,0,0-1.5c-.06-.41-.12-.83-.21-1.24s-.2-.76-.31-1.14a.46.46,0,0,0-.51-.34l-1.19.08a5.3,5.3,0,0,1-.66,0,.46.46,0,0,1-.42-.39C1.08,4.18,1,3.88.95,3.59.79,3,.62,2.46.47,1.9a3.63,3.63,0,0,1-.09-.49.52.52,0,0,1,0-.17L.62,1l0,0C.87.88,1.08.73,1.3.6A1.21,1.21,0,0,1,2,.38a7.23,7.23,0,0,1,.77.1A3.64,3.64,0,0,1,4.05,1l.39.26.39.39a4.83,4.83,0,0,1,.33.5c.28.56.56,1.13.82,1.69a7,7,0,0,1,.49,1.44,10.18,10.18,0,0,1,.25,1.61c0,.48.06,1,.07,1.45a14.35,14.35,0,0,1-.15,2.3,8,8,0,0,1-.4,1.65c-.17.45-.36.89-.56,1.33s-.33.68-.51,1c-.09.17-.21.32-.32.49l-.39.39,0,0a4.12,4.12,0,0,1-1.9.8,1.61,1.61,0,0,1-1.24-.21l-.64-.41Z"/></g></g></g></g></svg>