<svg xmlns="http://www.w3.org/2000/svg" xmlns:xlink="http://www.w3.org/1999/xlink" viewBox="0 0 25.43 25.43"><defs><style>.cls-1,.cls-4{fill:none;}.cls-2{fill:#359fd7;}.cls-3{fill:#fff;}.cls-3,.cls-4{stroke-miterlimit:10;stroke:url(#New_Pattern_Swatch_1);}</style><pattern id="New_Pattern_Swatch_1" data-name="New Pattern Swatch 1" width="21.48" height="21.48" patternUnits="userSpaceOnUse" viewBox="0 0 21.48 21.48"><g id="_Group_" data-name="&lt;Group&gt;"><rect id="_Path_" data-name="&lt;Path&gt;" class="cls-1" width="21.48" height="21.48"/><rect id="_Rectangle_" data-name="&lt;Rectangle&gt;" class="cls-2" width="21.48" height="21.48"/></g></pattern></defs><title>star</title><g id="Layer_2" data-name="Layer 2"><g id="Layer_1-2" data-name="Layer 1"><g id="_Group_3" data-name="&lt;Group&gt;"><circle id="_Path_3" data-name="&lt;Path&gt;" class="cls-3" cx="12.72" cy="12.72" r="12.22"/></g><path id="_Path_4" data-name="&lt;Path&gt;" class="cls-4" d="M18,11.16l-1.68,1.18L15,13.26a.31.31,0,0,0-.15.41l.51,1.53L16,17a.52.52,0,0,1,0,.15.67.67,0,0,1-.14-.06L14,15.75l-1-.73a.34.34,0,0,0-.39,0l-2,1.4-.95.67,0,0-.09,0a.24.24,0,0,1,0-.09l.27-.8.84-2.48,0-.11a.3.3,0,0,0-.13-.35l-1.33-.93-1.34-.94-.36-.25v0l.18,0h3.52c.25,0,.33,0,.41-.28l.53-1.58.57-1.7a.52.52,0,0,1,.07-.11.45.45,0,0,1,.08.11l.68,2,.44,1.32a.31.31,0,0,0,.32.22h3.61l.17,0Z"/></g></g></svg>