<?xml version="1.0" encoding="utf-8"?>
<!-- Generator: Adobe Illustrator 20.0.0, SVG Export Plug-In . SVG Version: 6.00 Build 0)  -->
<svg version="1.1" id="Layer_1" xmlns="http://www.w3.org/2000/svg" xmlns:xlink="http://www.w3.org/1999/xlink" x="0px" y="0px"
	 viewBox="0 0 233.3 263.4" style="enable-background:new 0 0 233.3 263.4;" xml:space="preserve">
<style type="text/css">
	.st0{fill:none;stroke:#FFFFFF;stroke-width:4;stroke-miterlimit:10;}
	.st1{enable-background:new    ;}
	.st2{fill:#FFFFFF;}
	.st3{fill:#FFFFFF;stroke:#FFFFFF;stroke-miterlimit:10;}
</style>
<title>agriculture</title>
<circle id="_Path_" class="st0" cx="119.4" cy="82.4" r="80.4"/>
<g class="st1">
	<path class="st2" d="M52.7,218.3h-3.5l-0.9-2.6h-4.8l-0.9,2.6h-3.4l4.8-13.1h3.9L52.7,218.3z M47.5,213.3l-1.6-4.7l-1.6,4.7H47.5z"
		/>
	<path class="st2" d="M67.2,217.6c-0.6,0.2-1.4,0.5-2.3,0.7c-1,0.2-1.9,0.3-2.9,0.3c-2.2,0-4-0.6-5.2-1.8c-1.3-1.2-1.9-2.9-1.9-5
		c0-2,0.6-3.7,1.9-4.9c1.3-1.2,3-1.9,5.3-1.9c0.9,0,1.7,0.1,2.5,0.2c0.8,0.2,1.6,0.5,2.6,0.9v3.1h-0.4c-0.2-0.1-0.4-0.3-0.7-0.5
		s-0.6-0.4-0.9-0.6c-0.3-0.2-0.7-0.3-1.2-0.5s-0.9-0.2-1.4-0.2c-0.6,0-1.1,0.1-1.6,0.3s-0.9,0.4-1.3,0.8c-0.4,0.4-0.7,0.8-0.9,1.3
		c-0.2,0.5-0.3,1.2-0.3,1.9c0,1.4,0.4,2.6,1.2,3.3s1.9,1.2,3.4,1.2c0.1,0,0.3,0,0.4,0s0.3,0,0.4,0v-2.6h-2.6v-2.5h6V217.6z"/>
	<path class="st2" d="M83.9,218.3h-4.1l-3.6-4.8h-1.6v4.8h-3.4v-13.1h5.7c0.8,0,1.4,0,2,0.1s1.1,0.3,1.6,0.6
		c0.5,0.3,0.9,0.7,1.2,1.1c0.3,0.5,0.4,1.1,0.4,1.8c0,1-0.2,1.8-0.7,2.4s-1.1,1.1-1.9,1.5L83.9,218.3z M78.6,209.2
		c0-0.3-0.1-0.6-0.2-0.8s-0.4-0.4-0.7-0.6c-0.2-0.1-0.5-0.2-0.8-0.2c-0.3,0-0.7,0-1.1,0h-1.2v3.5h1c0.5,0,1,0,1.4-0.1
		s0.7-0.2,0.9-0.4c0.2-0.2,0.4-0.4,0.5-0.6C78.6,209.9,78.6,209.6,78.6,209.2z"/>
	<path class="st2" d="M93.5,218.3h-7.7V216H88v-8.4h-2.1v-2.3h7.7v2.3h-2.1v8.4h2.1V218.3z"/>
	<path class="st2" d="M103.2,218.6c-1,0-1.9-0.1-2.7-0.4s-1.5-0.7-2.1-1.3s-1.1-1.3-1.4-2.1s-0.5-1.8-0.5-2.9c0-1,0.2-2,0.5-2.8
		s0.8-1.6,1.4-2.2c0.6-0.6,1.3-1,2.1-1.3s1.8-0.5,2.8-0.5c0.6,0,1,0,1.5,0.1c0.4,0.1,0.9,0.1,1.2,0.2c0.4,0.1,0.7,0.2,1.1,0.4
		c0.3,0.1,0.6,0.3,0.8,0.4v3.2h-0.4c-0.2-0.1-0.4-0.3-0.6-0.5s-0.5-0.4-0.8-0.6c-0.3-0.2-0.7-0.3-1-0.5s-0.8-0.2-1.2-0.2
		c-0.5,0-0.9,0.1-1.4,0.2s-0.8,0.4-1.2,0.7c-0.3,0.3-0.6,0.8-0.8,1.3s-0.3,1.2-0.3,2c0,0.8,0.1,1.5,0.3,2.1s0.5,1,0.9,1.3
		c0.4,0.3,0.8,0.6,1.2,0.7s0.9,0.2,1.3,0.2c0.4,0,0.8-0.1,1.2-0.2s0.8-0.3,1.1-0.5c0.3-0.2,0.6-0.4,0.8-0.5s0.4-0.4,0.6-0.5h0.4v3.1
		c-0.3,0.1-0.6,0.3-0.9,0.4s-0.6,0.2-0.9,0.3c-0.4,0.1-0.8,0.2-1.2,0.3S103.9,218.6,103.2,218.6z"/>
	<path class="st2" d="M122.9,213.6c0,1.6-0.5,2.9-1.5,3.7s-2.4,1.3-4.4,1.3s-3.4-0.4-4.3-1.3s-1.5-2.1-1.5-3.7v-8.4h3.4v8.2
		c0,0.9,0.2,1.6,0.6,2s1,0.7,1.9,0.7c0.8,0,1.5-0.2,1.9-0.6s0.6-1.1,0.6-2.1v-8.2h3.4V213.6z"/>
	<path class="st2" d="M136.5,218.3h-9.4v-13.1h3.4v10.6h6.1V218.3z"/>
	<path class="st2" d="M149.8,207.8h-4.1v10.6h-3.4v-10.6h-4.1v-2.5h11.5V207.8z"/>
	<path class="st2" d="M164.4,213.6c0,1.6-0.5,2.9-1.5,3.7s-2.4,1.3-4.4,1.3s-3.4-0.4-4.3-1.3s-1.5-2.1-1.5-3.7v-8.4h3.4v8.2
		c0,0.9,0.2,1.6,0.6,2s1,0.7,1.9,0.7c0.8,0,1.5-0.2,1.8-0.6s0.6-1.1,0.6-2.1v-8.2h3.4V213.6z"/>
	<path class="st2" d="M181.2,218.3h-4.1l-3.6-4.8H172v4.8h-3.4v-13.1h5.7c0.8,0,1.4,0,2,0.1s1.1,0.3,1.6,0.6
		c0.5,0.3,0.9,0.7,1.2,1.1c0.3,0.5,0.4,1.1,0.4,1.8c0,1-0.2,1.8-0.7,2.4s-1.1,1.1-1.9,1.5L181.2,218.3z M176,209.2
		c0-0.3-0.1-0.6-0.2-0.8s-0.4-0.4-0.7-0.6c-0.2-0.1-0.5-0.2-0.8-0.2c-0.3,0-0.7,0-1.1,0H172v3.5h1c0.5,0,1,0,1.4-0.1
		s0.7-0.2,0.9-0.4c0.2-0.2,0.4-0.4,0.5-0.6C175.9,209.9,176,209.6,176,209.2z"/>
	<path class="st2" d="M193.2,218.3h-9.5v-13.1h9.5v2.5h-6.1v2.3h5.7v2.5h-5.7v3.2h6.1V218.3z"/>
</g>
<path id="_Compound_Path_" class="st3" d="M91.4,110.4h22.8v14.7h4.1v-14.7h2.4v14.7h4.1v-14.7h22.5c1.1,0,2.1-0.9,2-2.1
	c0-0.4-0.1-0.7-0.3-1l-7.2-12.6h1.7c1.1,0,2.1-0.9,2-2.1c0-0.4-0.1-0.7-0.3-1l-7.9-13.5h1.9c1.1,0,2.1-0.9,2-2.1
	c0-0.4-0.1-0.7-0.3-1l-20.1-34.6c-0.6-1-1.9-1.3-2.8-0.7c-0.3,0.2-0.5,0.4-0.7,0.7l-20,34.6c-0.6,1-0.2,2.3,0.8,2.8
	c0.3,0.2,0.7,0.3,1,0.3h1.9l-7.9,13.5c-0.6,1-0.2,2.3,0.8,2.8c0.3,0.2,0.7,0.3,1,0.3h1.7l-7.2,12.6c-0.6,1-0.2,2.3,0.8,2.8
	C90.7,110.4,91.1,110.5,91.4,110.4L91.4,110.4z M102.3,93.8c0.6-1,0.2-2.3-0.8-2.8c-0.3-0.2-0.7-0.3-1-0.3h-1.7l7.9-13.5
	c0.6-1,0.2-2.3-0.8-2.8c-0.3-0.2-0.7-0.3-1-0.3h-2l16.5-28.5L136,74h-2c-1.1,0-2.1,0.9-2,2.1c0,0.4,0.1,0.7,0.3,1l7.9,13.5h-1.7
	c-1.1,0-2.1,0.9-2,2.1c0,0.4,0.1,0.7,0.3,1l7.2,12.6H95L102.3,93.8z"/>
</svg>
