<?xml version="1.0" encoding="utf-8"?>
<!-- Generator: Adobe Illustrator 20.0.0, SVG Export Plug-In . SVG Version: 6.00 Build 0)  -->
<svg version="1.1" id="Layer_1" xmlns="http://www.w3.org/2000/svg" xmlns:xlink="http://www.w3.org/1999/xlink" x="0px" y="0px"
	 viewBox="0 0 233.3 263.4" style="enable-background:new 0 0 233.3 263.4;" xml:space="preserve">
<style type="text/css">
	.st0{enable-background:new    ;}
	.st1{fill:#FFFFFF;}
	.st2{fill:none;stroke:#FFFFFF;stroke-width:4;stroke-miterlimit:10;}
</style>
<title>automotive</title>
<g class="st0">
	<path class="st1" d="M59.1,218.6h-3.5l-0.9-2.6h-4.8l-0.9,2.6h-3.4l4.8-13.1h3.9L59.1,218.6z M53.9,213.5l-1.6-4.7l-1.6,4.7H53.9z"
		/>
	<path class="st1" d="M73.5,213.8c0,1.6-0.5,2.9-1.5,3.7s-2.4,1.3-4.4,1.3s-3.4-0.4-4.3-1.3s-1.5-2.1-1.5-3.7v-8.4h3.4v8.2
		c0,0.9,0.2,1.6,0.6,2s1,0.7,1.9,0.7c0.8,0,1.5-0.2,1.9-0.6s0.6-1.1,0.6-2.1v-8.2h3.4L73.5,213.8L73.5,213.8z"/>
	<path class="st1" d="M88,208h-4.1v10.6h-3.4V208h-4.1v-2.5H88V208z"/>
	<path class="st1" d="M103.8,212c0,2.1-0.6,3.7-1.8,5s-2.8,1.8-5,1.8c-2.1,0-3.8-0.6-4.9-1.8s-1.8-2.9-1.8-5s0.6-3.8,1.8-5
		c1.2-1.2,2.8-1.8,4.9-1.8s3.7,0.6,4.9,1.8C103.2,208.3,103.8,209.9,103.8,212z M99.3,215.3c0.3-0.4,0.6-0.9,0.7-1.4
		c0.2-0.5,0.2-1.2,0.2-1.9c0-0.8-0.1-1.5-0.3-2s-0.4-1-0.7-1.3c-0.3-0.4-0.6-0.6-1-0.8s-0.8-0.2-1.2-0.2c-0.4,0-0.8,0.1-1.2,0.2
		s-0.7,0.4-1,0.8c-0.3,0.3-0.5,0.8-0.7,1.4s-0.3,1.2-0.3,2s0.1,1.4,0.3,2c0.2,0.5,0.4,1,0.7,1.3s0.6,0.6,1,0.8s0.8,0.2,1.2,0.2
		s0.8-0.1,1.2-0.3C98.7,216,99,215.7,99.3,215.3z"/>
	<path class="st1" d="M121.1,218.6h-3.4v-8.8l-2.4,5.7H113l-2.4-5.7v8.8h-3.2v-13.1h3.9l2.9,6.6l2.9-6.6h3.9L121.1,218.6
		L121.1,218.6z"/>
	<path class="st1" d="M138.3,212c0,2.1-0.6,3.7-1.8,5s-2.8,1.8-5,1.8c-2.1,0-3.8-0.6-4.9-1.8s-1.8-2.9-1.8-5s0.6-3.8,1.8-5
		c1.2-1.2,2.8-1.8,4.9-1.8s3.7,0.6,4.9,1.8C137.7,208.3,138.3,209.9,138.3,212z M133.8,215.3c0.3-0.4,0.6-0.9,0.7-1.4
		c0.2-0.5,0.2-1.2,0.2-1.9c0-0.8-0.1-1.5-0.3-2s-0.4-1-0.7-1.3c-0.3-0.4-0.6-0.6-1-0.8s-0.8-0.2-1.2-0.2s-0.8,0.1-1.2,0.2
		s-0.7,0.4-1,0.8c-0.3,0.3-0.5,0.8-0.7,1.4s-0.3,1.2-0.3,2s0.1,1.4,0.3,2c0.2,0.5,0.4,1,0.7,1.3s0.6,0.6,1,0.8s0.8,0.2,1.2,0.2
		s0.8-0.1,1.2-0.3C133.1,216,133.5,215.7,133.8,215.3z"/>
	<path class="st1" d="M152.1,208H148v10.6h-3.4V208h-4.1v-2.5H152v2.5H152.1z"/>
	<path class="st1" d="M162.3,218.6h-7.7v-2.3h2.1v-8.4h-2.1v-2.3h7.7v2.3h-2.1v8.4h2.1V218.6z"/>
	<path class="st1" d="M178,205.5l-4.8,13.1h-3.8l-4.8-13.1h3.5l3.2,9.2l3.2-9.2H178z"/>
	<path class="st1" d="M190.4,218.6h-9.5v-13.1h9.5v2.5h-6.1v2.3h5.7v2.5h-5.7v3.2h6.1V218.6z"/>
</g>
<circle id="_Path_" class="st2" cx="113.4" cy="85.3" r="76.7"/>
<g id="_Group_">
	<path id="_Path_2" class="st2" d="M37,90.2c0,0,59.7,3.2,69.1,69.5"/>
	<path id="_Path_3" class="st2" d="M189.7,90.2c0,0-59.7,3.2-69.1,69.5"/>
</g>
<path id="_Path_4" class="st2" d="M37.4,80.3c0,0,68.1-49.9,152.1,0"/>
<circle id="_Path_5" class="st2" cx="113.4" cy="90.4" r="11.8"/>
</svg>
