<?xml version="1.0" encoding="utf-8"?>
<!-- Generator: Adobe Illustrator 20.0.0, SVG Export Plug-In . SVG Version: 6.00 Build 0)  -->
<svg version="1.1" id="Layer_1" xmlns="http://www.w3.org/2000/svg" xmlns:xlink="http://www.w3.org/1999/xlink" x="0px" y="0px"
	 viewBox="0 0 233.3 263.4" style="enable-background:new 0 0 233.3 263.4;" xml:space="preserve">
<style type="text/css">
	.st0{fill:none;stroke:#FFFFFF;stroke-width:4;stroke-miterlimit:10;}
	.st1{enable-background:new    ;}
	.st2{fill:#FFFFFF;}
</style>
<title>chemicals</title>
<g id="_Group_">
	<circle id="_Path_" class="st0" cx="116.6" cy="85.7" r="78.1"/>
</g>
<g class="st1">
	<path class="st2" d="M49.3,218.1c-1,0-1.9-0.1-2.7-0.4s-1.5-0.7-2.1-1.3s-1.1-1.3-1.4-2.1s-0.5-1.8-0.5-2.9c0-1,0.2-2,0.5-2.8
		s0.8-1.6,1.4-2.2c0.6-0.6,1.3-1,2.1-1.3s1.8-0.5,2.8-0.5c0.6,0,1,0,1.5,0.1c0.4,0.1,0.9,0.1,1.2,0.2c0.4,0.1,0.7,0.2,1.1,0.4
		c0.3,0.1,0.6,0.3,0.8,0.4v3.2h-0.4c-0.2-0.1-0.4-0.3-0.6-0.5s-0.5-0.4-0.8-0.6c-0.3-0.2-0.7-0.3-1-0.5s-0.8-0.2-1.2-0.2
		c-0.5,0-0.9,0.1-1.4,0.2s-0.8,0.4-1.2,0.7c-0.3,0.3-0.6,0.8-0.8,1.3s-0.3,1.2-0.3,2s0.1,1.5,0.3,2.1s0.5,1,0.9,1.3s0.8,0.6,1.2,0.7
		s0.9,0.2,1.3,0.2c0.4,0,0.8-0.1,1.2-0.2s0.8-0.3,1.1-0.5s0.6-0.4,0.8-0.5s0.4-0.4,0.6-0.5h0.4v3.1c-0.3,0.1-0.6,0.3-0.9,0.4
		s-0.6,0.2-0.9,0.3c-0.4,0.1-0.8,0.2-1.2,0.3S49.9,218.1,49.3,218.1z"/>
	<path class="st2" d="M69.2,217.8h-3.4V212h-5v5.8h-3.4v-13.1h3.4v4.8h5v-4.8h3.4V217.8z"/>
	<path class="st2" d="M83,217.8h-9.5v-13.1H83v2.5h-6.1v2.3h5.7v2.5h-5.7v3.2H83V217.8z"/>
	<path class="st2" d="M100.7,217.8h-3.4V209l-2.4,5.7h-2.3l-2.4-5.7v8.8H87v-13.1h3.9l2.9,6.6l2.9-6.6h3.9L100.7,217.8L100.7,217.8z
		"/>
	<path class="st2" d="M112.1,217.8h-7.7v-2.3h2.1v-8.4h-2.1v-2.3h7.7v2.3H110v8.4h2.1V217.8z"/>
	<path class="st2" d="M121.9,218.1c-1,0-1.9-0.1-2.7-0.4s-1.5-0.7-2.1-1.3s-1-1.3-1.4-2.1s-0.5-1.8-0.5-2.9c0-1,0.2-2,0.5-2.8
		s0.8-1.6,1.4-2.2c0.6-0.6,1.3-1,2.1-1.3s1.8-0.5,2.8-0.5c0.6,0,1,0,1.5,0.1c0.4,0.1,0.9,0.1,1.2,0.2c0.4,0.1,0.7,0.2,1.1,0.4
		c0.3,0.1,0.6,0.3,0.8,0.4v3.2h-0.4c-0.2-0.1-0.4-0.3-0.6-0.5s-0.5-0.4-0.8-0.6c-0.3-0.2-0.7-0.3-1-0.5s-0.8-0.2-1.2-0.2
		c-0.5,0-0.9,0.1-1.4,0.2s-0.8,0.4-1.2,0.7c-0.3,0.3-0.6,0.8-0.8,1.3s-0.3,1.2-0.3,2s0.1,1.5,0.3,2.1s0.5,1,0.9,1.3s0.8,0.6,1.2,0.7
		s0.9,0.2,1.3,0.2s0.8-0.1,1.2-0.2s0.8-0.3,1.1-0.5c0.3-0.2,0.6-0.4,0.8-0.5s0.4-0.4,0.6-0.5h0.4v3.1c-0.3,0.1-0.6,0.3-0.9,0.4
		s-0.6,0.2-0.9,0.3c-0.4,0.1-0.8,0.2-1.2,0.3S122.5,218.1,121.9,218.1z"/>
	<path class="st2" d="M142.1,217.8h-3.5l-0.9-2.6h-4.8l-0.9,2.6h-3.4l4.8-13.1h3.9L142.1,217.8z M136.9,212.8l-1.6-4.7l-1.6,4.7
		H136.9z"/>
	<path class="st2" d="M154.5,217.8h-9.4v-13.1h3.4v10.6h6.1v2.5H154.5z"/>
	<path class="st2" d="M168.1,213.7c0,1.3-0.5,2.3-1.6,3.1s-2.6,1.2-4.5,1.2c-1.1,0-2-0.1-2.8-0.3s-1.6-0.4-2.3-0.7v-3.1h0.4
		c0.7,0.6,1.5,1,2.3,1.3s1.7,0.4,2.5,0.4c0.2,0,0.5,0,0.8-0.1s0.6-0.1,0.8-0.2c0.3-0.1,0.5-0.2,0.6-0.4s0.3-0.4,0.3-0.7
		s-0.1-0.5-0.4-0.7c-0.2-0.2-0.6-0.4-1.1-0.5s-1-0.2-1.6-0.3c-0.5-0.1-1.1-0.2-1.5-0.4c-1.1-0.4-1.9-0.8-2.4-1.5
		c-0.5-0.6-0.7-1.4-0.7-2.3c0-1.2,0.5-2.2,1.6-3s2.5-1.2,4.2-1.2c0.9,0,1.7,0.1,2.6,0.3c0.8,0.2,1.6,0.4,2.2,0.6v3h-0.4
		c-0.5-0.4-1.2-0.8-1.9-1.1c-0.8-0.3-1.5-0.4-2.3-0.4c-0.3,0-0.6,0-0.8,0.1c-0.3,0-0.5,0.1-0.8,0.2c-0.2,0.1-0.4,0.2-0.6,0.4
		c-0.2,0.2-0.2,0.4-0.2,0.6c0,0.3,0.1,0.6,0.4,0.8c0.3,0.2,0.8,0.4,1.5,0.5c0.5,0.1,0.9,0.2,1.4,0.3s0.9,0.2,1.4,0.4
		c1,0.3,1.7,0.8,2.2,1.3S168.1,212.8,168.1,213.7z"/>
	<path class="st2" d="M192.8,217.8h-4.2l-1.2-1.1c-0.6,0.5-1.2,0.8-1.9,1s-1.5,0.3-2.2,0.3c-1.6,0-2.9-0.4-3.8-1.1
		c-0.9-0.7-1.4-1.7-1.4-2.9c0-0.5,0.1-0.9,0.2-1.3s0.3-0.7,0.6-1c0.2-0.3,0.5-0.5,0.8-0.7s0.6-0.4,0.9-0.5c-0.2-0.2-0.5-0.4-0.7-0.6
		s-0.4-0.4-0.6-0.7c-0.2-0.2-0.3-0.5-0.4-0.7s-0.1-0.6-0.1-0.9c0-0.4,0.1-0.8,0.3-1.2s0.4-0.7,0.8-1c0.4-0.3,0.9-0.5,1.5-0.7
		s1.3-0.3,2.2-0.3c0.7,0,1.3,0.1,1.9,0.2s1,0.3,1.4,0.6c0.4,0.2,0.6,0.5,0.8,0.9s0.3,0.7,0.3,1.1c0,0.3,0,0.6-0.1,0.9
		c-0.1,0.3-0.2,0.6-0.4,0.9c-0.2,0.3-0.5,0.6-0.9,0.9s-0.9,0.5-1.5,0.7l2.7,2.4v-2.8h3.3v1c0,0.7-0.1,1.4-0.4,2
		c-0.2,0.6-0.6,1.2-1,1.6l3.3,2.9v0.1H192.8z M185.9,215.2l-3.7-3.3c-0.1,0.1-0.3,0.3-0.4,0.6s-0.2,0.6-0.2,1s0.1,0.7,0.2,1
		s0.3,0.5,0.6,0.7c0.2,0.2,0.5,0.3,0.8,0.4s0.6,0.1,0.8,0.1c0.4,0,0.8,0,1.1-0.1C185.3,215.6,185.6,215.5,185.9,215.2z M184.6,207.7
		c0-0.3,0-0.5-0.1-0.7s-0.2-0.3-0.3-0.4c-0.1-0.1-0.3-0.2-0.4-0.2s-0.3,0-0.4,0c-0.1,0-0.2,0-0.3,0s-0.3,0.1-0.4,0.2
		c-0.1,0.1-0.2,0.2-0.3,0.4s-0.1,0.4-0.1,0.6c0,0.3,0.1,0.7,0.4,1s0.6,0.7,1.1,1c0.3-0.3,0.6-0.5,0.7-0.9S184.6,208.1,184.6,207.7z"
		/>
</g>
<g class="st1">
	<path class="st2" d="M26.2,230.5c0,0.6-0.1,1.2-0.3,1.7c-0.2,0.6-0.5,1-0.9,1.4c-0.5,0.5-1.1,0.9-1.7,1.2s-1.4,0.4-2.4,0.4h-2.1
		v4.3h-3.4v-13.1H21c0.8,0,1.5,0.1,2.1,0.2s1.1,0.4,1.5,0.6c0.5,0.3,0.9,0.8,1.2,1.3S26.2,229.7,26.2,230.5z M22.7,230.5
		c0-0.4-0.1-0.7-0.3-1c-0.2-0.3-0.4-0.5-0.7-0.6c-0.4-0.1-0.7-0.2-1-0.2s-0.8,0-1.3,0h-0.6v3.9h1c0.6,0,1,0,1.4-0.1s0.7-0.2,0.9-0.4
		c0.2-0.2,0.4-0.4,0.5-0.7C22.7,231.2,22.7,230.9,22.7,230.5z"/>
	<path class="st2" d="M39.1,239.4h-9.5v-13.1h9.5v2.5H33v2.3h5.7v2.5H33v3.2h6.1V239.4z"/>
	<path class="st2" d="M53.2,228.9h-4.1v10.6h-3.4v-10.6h-4.1v-2.5h11.5L53.2,228.9L53.2,228.9z"/>
	<path class="st2" d="M68.9,239.4h-4.1l-3.6-4.8h-1.6v4.8h-3.4v-13.1H62c0.8,0,1.4,0,2,0.1s1.1,0.3,1.6,0.6s0.9,0.7,1.2,1.1
		c0.3,0.5,0.4,1.1,0.4,1.8c0,1-0.2,1.8-0.7,2.4s-1.1,1.1-1.9,1.5L68.9,239.4z M63.7,230.4c0-0.3-0.1-0.6-0.2-0.8s-0.4-0.4-0.7-0.6
		c-0.2-0.1-0.5-0.2-0.8-0.2s-0.7,0-1.1,0h-1.2v3.5h1c0.5,0,1,0,1.4-0.1s0.7-0.2,0.9-0.4s0.4-0.4,0.5-0.6
		C63.6,231,63.7,230.7,63.7,230.4z"/>
	<path class="st2" d="M84.2,232.9c0,2.1-0.6,3.7-1.8,5s-2.8,1.8-5,1.8c-2.1,0-3.8-0.6-4.9-1.8s-1.8-2.9-1.8-5s0.6-3.8,1.8-5
		c1.2-1.2,2.8-1.8,4.9-1.8s3.7,0.6,4.9,1.8C83.6,229.1,84.2,230.8,84.2,232.9z M79.7,236.2c0.3-0.4,0.6-0.9,0.7-1.4
		c0.2-0.5,0.2-1.2,0.2-1.9c0-0.8-0.1-1.5-0.3-2s-0.4-1-0.7-1.3c-0.3-0.4-0.6-0.6-1-0.8s-0.8-0.2-1.2-0.2c-0.4,0-0.8,0.1-1.2,0.2
		s-0.7,0.4-1,0.8c-0.3,0.3-0.5,0.8-0.7,1.4s-0.3,1.2-0.3,2s0.1,1.4,0.3,2c0.2,0.5,0.4,1,0.7,1.3s0.6,0.6,1,0.8s0.8,0.2,1.2,0.2
		s0.8-0.1,1.2-0.3C79.1,236.8,79.4,236.6,79.7,236.2z"/>
	<path class="st2" d="M101,239.7c-1,0-1.9-0.1-2.7-0.4s-1.5-0.7-2.1-1.3s-1.1-1.3-1.4-2.1s-0.5-1.8-0.5-2.9c0-1,0.2-2,0.5-2.8
		s0.8-1.6,1.4-2.2c0.6-0.6,1.3-1,2.1-1.3s1.8-0.5,2.8-0.5c0.6,0,1,0,1.5,0.1c0.4,0.1,0.9,0.1,1.2,0.2c0.4,0.1,0.7,0.2,1.1,0.4
		c0.3,0.1,0.6,0.3,0.8,0.4v3.2h-0.4c-0.2-0.1-0.4-0.3-0.6-0.5s-0.5-0.4-0.8-0.6c-0.3-0.2-0.7-0.3-1-0.5s-0.8-0.2-1.2-0.2
		c-0.5,0-0.9,0.1-1.4,0.2s-0.8,0.4-1.2,0.7c-0.3,0.3-0.6,0.8-0.8,1.3s-0.3,1.2-0.3,2s0.1,1.5,0.3,2.1s0.5,1,0.9,1.3s0.8,0.6,1.2,0.7
		s0.9,0.2,1.3,0.2s0.8-0.1,1.2-0.2s0.8-0.3,1.1-0.5c0.3-0.2,0.6-0.4,0.8-0.5s0.4-0.4,0.6-0.5h0.4v3.1c-0.3,0.1-0.6,0.3-0.9,0.4
		s-0.6,0.2-0.9,0.3c-0.4,0.1-0.8,0.2-1.2,0.3S101.6,239.7,101,239.7z"/>
	<path class="st2" d="M120.9,239.4h-3.4v-5.8h-5v5.8h-3.4v-13.1h3.4v4.8h5v-4.8h3.4V239.4z"/>
	<path class="st2" d="M134.7,239.4h-9.5v-13.1h9.5v2.5h-6.1v2.3h5.7v2.5h-5.7v3.2h6.1V239.4z"/>
	<path class="st2" d="M152.4,239.4H149v-8.8l-2.4,5.7h-2.3l-2.4-5.7v8.8h-3.2v-13.1h3.9l2.9,6.6l2.9-6.6h3.9v13.1H152.4z"/>
	<path class="st2" d="M163.8,239.4h-7.7v-2.3h2.1v-8.4h-2.1v-2.3h7.7v2.3h-2.1v8.4h2.1V239.4z"/>
	<path class="st2" d="M173.6,239.7c-1,0-1.9-0.1-2.7-0.4s-1.5-0.7-2.1-1.3s-1.1-1.3-1.4-2.1s-0.5-1.8-0.5-2.9c0-1,0.2-2,0.5-2.8
		s0.8-1.6,1.4-2.2c0.6-0.6,1.3-1,2.1-1.3s1.8-0.5,2.8-0.5c0.6,0,1,0,1.5,0.1c0.4,0.1,0.9,0.1,1.2,0.2c0.4,0.1,0.7,0.2,1.1,0.4
		c0.3,0.1,0.6,0.3,0.8,0.4v3.2h-0.4c-0.2-0.1-0.4-0.3-0.6-0.5s-0.5-0.4-0.8-0.6c-0.3-0.2-0.7-0.3-1-0.5s-0.8-0.2-1.2-0.2
		c-0.5,0-0.9,0.1-1.4,0.2s-0.8,0.4-1.2,0.7c-0.3,0.3-0.6,0.8-0.8,1.3s-0.3,1.2-0.3,2s0.1,1.5,0.3,2.1s0.5,1,0.9,1.3s0.8,0.6,1.2,0.7
		s0.9,0.2,1.3,0.2c0.4,0,0.8-0.1,1.2-0.2s0.8-0.3,1.1-0.5s0.6-0.4,0.8-0.5s0.4-0.4,0.6-0.5h0.4v3.1c-0.3,0.1-0.6,0.3-0.9,0.4
		s-0.6,0.2-0.9,0.3c-0.4,0.1-0.8,0.2-1.2,0.3S174.2,239.7,173.6,239.7z"/>
	<path class="st2" d="M193.8,239.4h-3.5l-0.9-2.6h-4.8l-0.9,2.6h-3.4l4.8-13.1h3.9L193.8,239.4z M188.6,234.4l-1.6-4.7l-1.6,4.7
		H188.6z"/>
	<path class="st2" d="M206.2,239.4h-9.4v-13.1h3.4v10.6h6.1v2.5H206.2z"/>
	<path class="st2" d="M219.8,235.3c0,1.3-0.5,2.3-1.6,3.1s-2.6,1.2-4.5,1.2c-1.1,0-2-0.1-2.8-0.3s-1.6-0.4-2.3-0.7v-3.1h0.4
		c0.7,0.6,1.5,1,2.3,1.3s1.7,0.4,2.5,0.4c0.2,0,0.5,0,0.8-0.1s0.6-0.1,0.8-0.2c0.3-0.1,0.5-0.2,0.6-0.4s0.3-0.4,0.3-0.7
		s-0.1-0.5-0.4-0.7c-0.2-0.2-0.6-0.4-1.1-0.5s-1-0.2-1.6-0.3c-0.5-0.1-1.1-0.2-1.5-0.4c-1.1-0.4-1.9-0.8-2.4-1.5
		c-0.5-0.6-0.7-1.4-0.7-2.3c0-1.2,0.5-2.2,1.6-3s2.5-1.2,4.2-1.2c0.9,0,1.7,0.1,2.6,0.3c0.8,0.2,1.6,0.4,2.2,0.6v3h-0.4
		c-0.5-0.4-1.2-0.8-1.9-1.1c-0.8-0.3-1.5-0.4-2.3-0.4c-0.3,0-0.6,0-0.8,0.1c-0.3,0-0.5,0.1-0.8,0.2c-0.2,0.1-0.4,0.2-0.6,0.4
		c-0.2,0.2-0.2,0.4-0.2,0.6c0,0.3,0.1,0.6,0.4,0.8c0.3,0.2,0.8,0.4,1.5,0.5c0.5,0.1,0.9,0.2,1.4,0.3s0.9,0.2,1.4,0.4
		c1,0.3,1.7,0.8,2.2,1.3S219.8,234.4,219.8,235.3z"/>
</g>
<g id="_Group_2">
	
		<ellipse id="_Path_2" transform="matrix(0.7954 -0.6061 0.6061 0.7954 -15.8856 70.3451)" class="st0" cx="96.2" cy="58.7" rx="18.6" ry="18.6"/>
	<line id="_Path_3" class="st0" x1="107.7" y1="67.6" x2="118.5" y2="73.9"/>
	
		<ellipse id="_Path_4" transform="matrix(0.7954 -0.6061 0.6061 0.7954 -22.334 91.7363)" class="st0" cx="124.7" cy="78.9" rx="9" ry="9"/>
	<line id="_Path_5" class="st0" x1="121.4" y1="85.8" x2="96.1" y2="116.9"/>
	
		<ellipse id="_Path_6" transform="matrix(0.7954 -0.6061 0.6061 0.7954 -50.6189 83.8315)" class="st0" cx="98.9" cy="116.9" rx="18" ry="18"/>
	<line id="_Path_7" class="st0" x1="134.6" y1="79.5" x2="145.6" y2="79.5"/>
	
		<ellipse id="_Path_8" transform="matrix(0.7954 -0.6061 0.6061 0.7954 -15.7099 109.7709)" class="st0" cx="154.7" cy="78.2" rx="9" ry="9"/>
</g>
</svg>
