<?xml version="1.0" encoding="utf-8"?>
<!-- Generator: Adobe Illustrator 20.0.0, SVG Export Plug-In . SVG Version: 6.00 Build 0)  -->
<svg version="1.1" id="Layer_1" xmlns="http://www.w3.org/2000/svg" xmlns:xlink="http://www.w3.org/1999/xlink" x="0px" y="0px"
	 viewBox="0 0 233.3 263.4" style="enable-background:new 0 0 233.3 263.4;" xml:space="preserve">
<style type="text/css">
	.st0{enable-background:new    ;}
	.st1{fill:#FFFFFF;}
	.st2{fill:none;stroke:#FFFFFF;stroke-width:4;stroke-miterlimit:10;}
	.st3{fill:none;stroke:#FFFFFF;stroke-width:3;stroke-miterlimit:10;}
</style>
<title>construction</title>
<g class="st0">
	<path class="st1" d="M38.9,218.7c-1,0-1.9-0.1-2.7-0.4s-1.5-0.7-2.1-1.3s-1.1-1.3-1.4-2.1s-0.5-1.8-0.5-2.9c0-1,0.2-2,0.5-2.8
		s0.8-1.6,1.4-2.2c0.6-0.6,1.3-1,2.1-1.3s1.8-0.5,2.8-0.5c0.6,0,1,0,1.5,0.1c0.4,0.1,0.9,0.1,1.2,0.2c0.4,0.1,0.7,0.2,1.1,0.4
		c0.3,0.1,0.6,0.3,0.8,0.4v3.2h-0.4c-0.2-0.1-0.4-0.3-0.6-0.5s-0.5-0.4-0.8-0.6c-0.3-0.2-0.7-0.3-1-0.5s-0.8-0.2-1.2-0.2
		c-0.5,0-0.9,0.1-1.4,0.2s-0.8,0.4-1.2,0.7c-0.3,0.3-0.6,0.8-0.8,1.3s-0.3,1.2-0.3,2s0.1,1.5,0.3,2.1s0.5,1,0.9,1.3s0.8,0.6,1.2,0.7
		s0.9,0.2,1.3,0.2c0.4,0,0.8-0.1,1.2-0.2s0.8-0.3,1.1-0.5s0.6-0.4,0.8-0.5s0.4-0.4,0.6-0.5h0.4v3.1c-0.3,0.1-0.6,0.3-0.9,0.4
		s-0.6,0.2-0.9,0.3c-0.4,0.1-0.8,0.2-1.2,0.3S39.6,218.7,38.9,218.7z"/>
	<path class="st1" d="M59.8,211.9c0,2.1-0.6,3.7-1.8,5s-2.8,1.8-5,1.8c-2.1,0-3.8-0.6-4.9-1.8s-1.8-2.9-1.8-5s0.6-3.8,1.8-5
		s2.8-1.8,4.9-1.8c2.1,0,3.7,0.6,4.9,1.8C59.2,208.1,59.8,209.8,59.8,211.9z M55.4,215.2c0.3-0.4,0.6-0.9,0.7-1.4
		c0.2-0.5,0.2-1.2,0.2-1.9c0-0.8-0.1-1.5-0.3-2s-0.4-1-0.7-1.3c-0.3-0.4-0.6-0.6-1-0.8s-0.8-0.2-1.2-0.2s-0.8,0.1-1.2,0.2
		s-0.7,0.4-1,0.8c-0.3,0.3-0.5,0.8-0.7,1.4s-0.3,1.2-0.3,2s0.1,1.4,0.3,2c0.2,0.5,0.4,1,0.7,1.3s0.6,0.6,1,0.8s0.8,0.2,1.2,0.2
		s0.8-0.1,1.2-0.3C54.7,215.8,55.1,215.5,55.4,215.2z"/>
	<path class="st1" d="M75.4,218.4h-3.3l-5.6-9v9h-3.1v-13.1h4l4.8,7.5v-7.5h3.1L75.4,218.4L75.4,218.4z"/>
	<path class="st1" d="M90.3,214.3c0,1.3-0.5,2.3-1.6,3.1s-2.6,1.2-4.5,1.2c-1.1,0-2-0.1-2.8-0.3s-1.6-0.4-2.3-0.7v-3.1h0.4
		c0.7,0.6,1.5,1,2.3,1.3s1.7,0.4,2.5,0.4c0.2,0,0.5,0,0.8-0.1s0.6-0.1,0.8-0.2c0.3-0.1,0.5-0.2,0.6-0.4s0.3-0.4,0.3-0.7
		s-0.1-0.5-0.4-0.7c-0.2-0.2-0.6-0.4-1.1-0.5s-1-0.2-1.6-0.3c-0.5-0.1-1.1-0.2-1.5-0.4c-1.1-0.4-1.9-0.8-2.4-1.5
		c-0.5-0.6-0.7-1.4-0.7-2.3c0-1.2,0.5-2.2,1.6-3s2.5-1.2,4.2-1.2c0.9,0,1.7,0.1,2.6,0.3c0.8,0.2,1.6,0.4,2.2,0.6v3h-0.4
		c-0.5-0.4-1.2-0.8-1.9-1.1c-0.8-0.3-1.5-0.4-2.3-0.4c-0.3,0-0.6,0-0.8,0.1c-0.3,0-0.5,0.1-0.8,0.2c-0.2,0.1-0.4,0.2-0.6,0.4
		s-0.2,0.4-0.2,0.6c0,0.3,0.1,0.6,0.4,0.8s0.8,0.4,1.5,0.5c0.5,0.1,0.9,0.2,1.4,0.3s0.9,0.2,1.4,0.4c1,0.3,1.7,0.8,2.2,1.3
		S90.3,213.4,90.3,214.3z"/>
	<path class="st1" d="M103.9,207.8h-4.1v10.6h-3.4v-10.6h-4.1v-2.5h11.5L103.9,207.8L103.9,207.8z"/>
	<path class="st1" d="M119.6,218.4h-4.1l-3.6-4.8h-1.6v4.8H107v-13.1h5.7c0.8,0,1.4,0,2,0.1s1.1,0.3,1.6,0.6s0.9,0.7,1.2,1.1
		c0.3,0.5,0.4,1.1,0.4,1.8c0,1-0.2,1.8-0.7,2.4s-1.1,1.1-1.9,1.5L119.6,218.4z M114.3,209.3c0-0.3-0.1-0.6-0.2-0.8s-0.4-0.4-0.7-0.6
		c-0.2-0.1-0.5-0.2-0.8-0.2s-0.7,0-1.1,0h-1.2v3.5h1c0.5,0,1,0,1.4-0.1s0.7-0.2,0.9-0.4c0.2-0.2,0.4-0.4,0.5-0.6
		C114.2,210,114.3,209.7,114.3,209.3z"/>
	<path class="st1" d="M133.6,213.7c0,1.6-0.5,2.9-1.5,3.7s-2.4,1.3-4.4,1.3s-3.4-0.4-4.3-1.3s-1.5-2.1-1.5-3.7v-8.4h3.4v8.2
		c0,0.9,0.2,1.6,0.6,2s1,0.7,1.9,0.7c0.8,0,1.5-0.2,1.9-0.6s0.6-1.1,0.6-2.1v-8.2h3.4L133.6,213.7L133.6,213.7z"/>
	<path class="st1" d="M143.7,218.7c-1,0-1.9-0.1-2.7-0.4s-1.5-0.7-2.1-1.3s-1.1-1.3-1.4-2.1s-0.5-1.8-0.5-2.9c0-1,0.2-2,0.5-2.8
		s0.8-1.6,1.4-2.2c0.6-0.6,1.3-1,2.1-1.3s1.8-0.5,2.8-0.5c0.6,0,1,0,1.5,0.1c0.4,0.1,0.9,0.1,1.2,0.2c0.4,0.1,0.7,0.2,1.1,0.4
		c0.3,0.1,0.6,0.3,0.8,0.4v3.2H148c-0.2-0.1-0.4-0.3-0.6-0.5s-0.5-0.4-0.8-0.6c-0.3-0.2-0.7-0.3-1-0.5s-0.8-0.2-1.2-0.2
		c-0.5,0-0.9,0.1-1.4,0.2s-0.8,0.4-1.2,0.7c-0.3,0.3-0.6,0.8-0.8,1.3s-0.3,1.2-0.3,2s0.1,1.5,0.3,2.1s0.5,1,0.9,1.3s0.8,0.6,1.2,0.7
		s0.9,0.2,1.3,0.2c0.4,0,0.8-0.1,1.2-0.2s0.8-0.3,1.1-0.5s0.6-0.4,0.8-0.5s0.4-0.4,0.6-0.5h0.4v3.1c-0.3,0.1-0.6,0.3-0.9,0.4
		s-0.6,0.2-0.9,0.3c-0.4,0.1-0.8,0.2-1.2,0.3S144.3,218.7,143.7,218.7z"/>
	<path class="st1" d="M162.1,207.8H158v10.6h-3.4v-10.6h-4.1v-2.5H162v2.5H162.1z"/>
	<path class="st1" d="M172.3,218.4h-7.7v-2.3h2.1v-8.4h-2.1v-2.3h7.7v2.3h-2.1v8.4h2.1V218.4z"/>
	<path class="st1" d="M188.8,211.9c0,2.1-0.6,3.7-1.8,5s-2.8,1.8-5,1.8c-2.1,0-3.8-0.6-4.9-1.8s-1.8-2.9-1.8-5s0.6-3.8,1.8-5
		s2.8-1.8,4.9-1.8c2.1,0,3.7,0.6,4.9,1.8C188.2,208.1,188.8,209.8,188.8,211.9z M184.3,215.2c0.3-0.4,0.6-0.9,0.7-1.4
		c0.2-0.5,0.2-1.2,0.2-1.9c0-0.8-0.1-1.5-0.3-2s-0.4-1-0.7-1.3c-0.3-0.4-0.6-0.6-1-0.8s-0.8-0.2-1.2-0.2s-0.8,0.1-1.2,0.2
		s-0.7,0.4-1,0.8c-0.3,0.3-0.5,0.8-0.7,1.4s-0.3,1.2-0.3,2s0.1,1.4,0.3,2c0.2,0.5,0.4,1,0.7,1.3s0.6,0.6,1,0.8s0.8,0.2,1.2,0.2
		s0.8-0.1,1.2-0.3C183.7,215.8,184,215.5,184.3,215.2z"/>
	<path class="st1" d="M204.3,218.4H201l-5.6-9v9h-3.1v-13.1h4l4.8,7.5v-7.5h3.1v13.1H204.3z"/>
</g>
<g class="st0">
	<path class="st1" d="M27.1,240h-3.5l-0.9-2.6h-4.8L17,240h-3.4l4.8-13.1h3.9L27.1,240z M21.9,235l-1.6-4.7l-1.6,4.7H21.9z"/>
	<path class="st1" d="M41.9,240h-3.3l-5.6-9v9h-3v-13.1h4l4.8,7.5v-7.5h3.1C41.9,226.9,41.9,240,41.9,240z"/>
	<path class="st1" d="M58.7,233.5c0,1.2-0.3,2.3-0.8,3.3s-1.3,1.7-2.1,2.2c-0.6,0.4-1.3,0.7-2.1,0.8S52,240,50.9,240h-4.6v-13.1H51
		c1.1,0,2,0.1,2.8,0.3s1.4,0.4,2,0.8c0.9,0.6,1.6,1.3,2.1,2.2S58.7,232.2,58.7,233.5z M55.2,233.4c0-0.9-0.2-1.6-0.5-2.2
		c-0.3-0.6-0.8-1.1-1.5-1.4c-0.3-0.2-0.7-0.3-1.1-0.3c-0.4-0.1-0.9-0.1-1.6-0.1h-0.9v8.2h0.9c0.8,0,1.4,0,1.8-0.1
		c0.4-0.1,0.7-0.2,1.1-0.4c0.6-0.4,1.1-0.8,1.4-1.4C55,235,55.2,234.3,55.2,233.4z"/>
	<path class="st1" d="M79,240h-9.5v-13.1H79v2.5h-6.1v2.3h5.7v2.5h-5.7v3.2H79V240z"/>
	<path class="st1" d="M94.8,240h-3.3l-5.6-9v9h-3.1v-13.1h4l4.8,7.5v-7.5h3.1L94.8,240L94.8,240z"/>
	<path class="st1" d="M110.8,239.3c-0.6,0.2-1.4,0.5-2.3,0.7c-1,0.2-1.9,0.3-2.9,0.3c-2.2,0-4-0.6-5.2-1.8c-1.3-1.2-1.9-2.9-1.9-5
		c0-2,0.6-3.7,1.9-4.9s3-1.9,5.3-1.9c0.9,0,1.7,0.1,2.5,0.2c0.8,0.2,1.6,0.5,2.6,0.9v3.1h-0.4c-0.2-0.1-0.4-0.3-0.7-0.5
		s-0.6-0.4-0.9-0.6c-0.3-0.2-0.7-0.3-1.2-0.5s-0.9-0.2-1.4-0.2c-0.6,0-1.1,0.1-1.6,0.3s-0.9,0.4-1.3,0.8c-0.4,0.4-0.7,0.8-0.9,1.3
		c-0.2,0.5-0.3,1.2-0.3,1.9c0,1.4,0.4,2.6,1.2,3.3s1.9,1.2,3.4,1.2c0.1,0,0.3,0,0.4,0s0.3,0,0.4,0v-2.6h-2.6v-2.5h6L110.8,239.3
		L110.8,239.3z"/>
	<path class="st1" d="M121.9,240h-7.7v-2.3h2.1v-8.4h-2.1V227h7.7v2.3h-2.1v8.4h2.1V240z"/>
	<path class="st1" d="M137.6,240h-3.3l-5.6-9v9h-3.1v-13.1h4l4.8,7.5v-7.5h3.1L137.6,240L137.6,240z"/>
	<path class="st1" d="M151.5,240H142v-13.1h9.5v2.5h-6.1v2.3h5.7v2.5h-5.7v3.2h6.1V240z"/>
	<path class="st1" d="M164.9,240h-9.5v-13.1h9.5v2.5h-6.1v2.3h5.7v2.5h-5.7v3.2h6.1V240z"/>
	<path class="st1" d="M181.4,240h-4.1l-3.6-4.8h-1.6v4.8h-3.4v-13.1h5.7c0.8,0,1.4,0,2,0.1s1.1,0.3,1.6,0.6s0.9,0.7,1.2,1.1
		c0.3,0.5,0.4,1.1,0.4,1.8c0,1-0.2,1.8-0.7,2.4s-1.1,1.1-1.9,1.5L181.4,240z M176.1,230.9c0-0.3-0.1-0.6-0.2-0.8s-0.4-0.4-0.7-0.6
		c-0.2-0.1-0.5-0.2-0.8-0.2s-0.7,0-1.1,0h-1.2v3.5h1c0.5,0,1,0,1.4-0.1s0.7-0.2,0.9-0.4s0.4-0.4,0.5-0.6
		C176,231.6,176.1,231.3,176.1,230.9z"/>
	<path class="st1" d="M191,240h-7.7v-2.3h2.1v-8.4h-2.1V227h7.7v2.3h-2.1v8.4h2.1V240z"/>
	<path class="st1" d="M206.7,240h-3.3l-5.6-9v9h-3.1v-13.1h4l4.8,7.5v-7.5h3.1V240H206.7z"/>
	<path class="st1" d="M222.7,239.3c-0.6,0.2-1.4,0.5-2.3,0.7c-1,0.2-1.9,0.3-2.9,0.3c-2.2,0-4-0.6-5.2-1.8c-1.3-1.2-1.9-2.9-1.9-5
		c0-2,0.6-3.7,1.9-4.9c1.3-1.2,3-1.9,5.3-1.9c0.9,0,1.7,0.1,2.5,0.2c0.8,0.2,1.6,0.5,2.6,0.9v3.1h-0.4c-0.2-0.1-0.4-0.3-0.7-0.5
		s-0.6-0.4-0.9-0.6c-0.3-0.2-0.7-0.3-1.2-0.5s-0.9-0.2-1.4-0.2c-0.6,0-1.1,0.1-1.6,0.3s-0.9,0.4-1.3,0.8c-0.4,0.4-0.7,0.8-0.9,1.3
		s-0.3,1.2-0.3,1.9c0,1.4,0.4,2.6,1.2,3.3s1.9,1.2,3.4,1.2c0.1,0,0.3,0,0.4,0s0.3,0,0.4,0v-2.6h-2.6v-2.5h6v6.5H222.7z"/>
</g>
<g id="_Group_">
	<circle id="_Path_" class="st2" cx="115.4" cy="86.2" r="75.3"/>
	<g id="_Group_2">
		<rect id="_Rectangle_" x="69.3" y="85.4" class="st3" width="42.6" height="21.3"/>
		<rect id="_Rectangle_2" x="119.1" y="85.4" class="st3" width="42.6" height="21.3"/>
		<rect id="_Rectangle_3" x="94.2" y="58" class="st3" width="42.6" height="21.3"/>
	</g>
</g>
</svg>
