<?xml version="1.0" encoding="utf-8"?>
<!-- Generator: Adobe Illustrator 20.0.0, SVG Export Plug-In . SVG Version: 6.00 Build 0)  -->
<svg version="1.1" id="Layer_1" xmlns="http://www.w3.org/2000/svg" xmlns:xlink="http://www.w3.org/1999/xlink" x="0px" y="0px"
	 viewBox="0 0 233.3 263.4" style="enable-background:new 0 0 233.3 263.4;" xml:space="preserve">
<style type="text/css">
	.st0{enable-background:new    ;}
	.st1{fill:#FFFFFF;}
	.st2{fill:none;stroke:#FFFFFF;stroke-width:4;stroke-miterlimit:10;}
	.st3{fill:#FFFFFF;stroke:#FFFFFF;stroke-miterlimit:10;}
</style>
<title>fastmoving</title>
<g class="st0">
	<path class="st1" d="M47.6,207.3h-6v2.4h5.6v2.5h-5.6v5.6h-3.4v-13.1h9.4V207.3z"/>
	<path class="st1" d="M63.1,217.8h-3.5l-0.9-2.6h-4.8l-0.9,2.6h-3.4l4.8-13.1h3.9L63.1,217.8z M57.9,212.8l-1.6-4.7l-1.6,4.7H57.9z"
		/>
	<path class="st1" d="M76.6,213.7c0,1.3-0.5,2.3-1.6,3.1s-2.6,1.2-4.5,1.2c-1.1,0-2-0.1-2.8-0.3s-1.6-0.4-2.3-0.7v-3.1h0.4
		c0.7,0.6,1.5,1,2.3,1.3s1.7,0.4,2.5,0.4c0.2,0,0.5,0,0.8-0.1s0.6-0.1,0.8-0.2c0.3-0.1,0.5-0.2,0.6-0.4s0.3-0.4,0.3-0.7
		s-0.1-0.5-0.4-0.7c-0.2-0.2-0.6-0.4-1.1-0.5s-1-0.2-1.6-0.3c-0.5-0.1-1.1-0.2-1.5-0.4c-1.1-0.4-1.9-0.8-2.4-1.5
		c-0.5-0.6-0.7-1.4-0.7-2.3c0-1.2,0.5-2.2,1.6-3s2.5-1.2,4.2-1.2c0.9,0,1.7,0.1,2.6,0.3c0.8,0.2,1.6,0.4,2.2,0.6v3h-0.4
		c-0.5-0.4-1.2-0.8-1.9-1.1c-0.8-0.3-1.5-0.4-2.3-0.4c-0.3,0-0.6,0-0.8,0.1c-0.3,0-0.5,0.1-0.8,0.2c-0.2,0.1-0.4,0.2-0.6,0.4
		S69,207.8,69,208c0,0.3,0.1,0.6,0.4,0.8s0.8,0.4,1.5,0.5c0.5,0.1,0.9,0.2,1.4,0.3s0.9,0.2,1.4,0.4c1,0.3,1.7,0.8,2.2,1.3
		S76.6,212.8,76.6,213.7z"/>
	<path class="st1" d="M90.2,207.3h-4.1v10.6h-3.4v-10.6h-4.1v-2.5h11.5L90.2,207.3L90.2,207.3z"/>
	<path class="st1" d="M114.2,217.8h-3.4V209l-2.4,5.7h-2.3l-2.4-5.7v8.8h-3.2v-13.1h3.9l2.9,6.6l2.9-6.6h3.9L114.2,217.8
		L114.2,217.8z"/>
	<path class="st1" d="M131.3,211.3c0,2.1-0.6,3.7-1.8,5s-2.8,1.8-5,1.8c-2.1,0-3.8-0.6-4.9-1.8s-1.8-2.9-1.8-5s0.6-3.8,1.8-5
		c1.2-1.2,2.8-1.8,4.9-1.8s3.7,0.6,4.9,1.8C130.7,207.5,131.3,209.2,131.3,211.3z M126.8,214.6c0.3-0.4,0.6-0.9,0.7-1.4
		c0.2-0.5,0.2-1.2,0.2-1.9c0-0.8-0.1-1.5-0.3-2s-0.4-1-0.7-1.3c-0.3-0.4-0.6-0.6-1-0.8s-0.8-0.2-1.2-0.2c-0.4,0-0.8,0.1-1.2,0.2
		s-0.7,0.4-1,0.8c-0.3,0.3-0.5,0.8-0.7,1.4s-0.3,1.2-0.3,2s0.1,1.4,0.3,2c0.2,0.5,0.4,1,0.7,1.3s0.6,0.6,1,0.8s0.8,0.2,1.2,0.2
		s0.8-0.1,1.2-0.3C126.2,215.2,126.6,214.9,126.8,214.6z"/>
	<path class="st1" d="M146.8,204.7l-4.8,13.1h-3.8l-4.8-13.1h3.5l3.2,9.2l3.2-9.2H146.8z"/>
	<path class="st1" d="M156.8,217.8h-7.7v-2.3h2.1V207h-2.1v-2.3h7.7v2.3h-2.1v8.4h2.1V217.8z"/>
	<path class="st1" d="M172.6,217.8h-3.3l-5.6-9v9h-3.1v-13.1h4l4.8,7.5v-7.5h3.1v13.1H172.6z"/>
	<path class="st1" d="M188.5,217.1c-0.6,0.2-1.4,0.5-2.3,0.7c-1,0.2-1.9,0.3-2.9,0.3c-2.2,0-4-0.6-5.2-1.8c-1.3-1.2-1.9-2.9-1.9-5
		c0-2,0.6-3.7,1.9-4.9c1.3-1.2,3-1.9,5.3-1.9c0.9,0,1.7,0.1,2.5,0.2c0.8,0.2,1.6,0.5,2.6,0.9v3.1h-0.4c-0.2-0.1-0.4-0.3-0.7-0.5
		s-0.6-0.4-0.9-0.6c-0.3-0.2-0.7-0.3-1.2-0.5s-0.9-0.2-1.4-0.2c-0.6,0-1.1,0.1-1.6,0.3s-0.9,0.4-1.3,0.8c-0.4,0.4-0.7,0.8-0.9,1.3
		s-0.3,1.2-0.3,1.9c0,1.4,0.4,2.6,1.2,3.3s1.9,1.2,3.4,1.2c0.1,0,0.3,0,0.4,0s0.3,0,0.4,0v-2.6h-2.6v-2.5h6v6.5H188.5z"/>
</g>
<g class="st0">
	<path class="st1" d="M59.9,239.7c-1,0-1.9-0.1-2.7-0.4s-1.5-0.7-2.1-1.3s-1.1-1.3-1.4-2.1s-0.5-1.8-0.5-2.9c0-1,0.2-2,0.5-2.8
		s0.8-1.6,1.4-2.2c0.6-0.6,1.3-1,2.1-1.3s1.8-0.5,2.8-0.5c0.6,0,1,0,1.5,0.1c0.4,0.1,0.9,0.1,1.2,0.2c0.4,0.1,0.7,0.2,1.1,0.4
		c0.3,0.1,0.6,0.3,0.8,0.4v3.2h-0.4c-0.2-0.1-0.4-0.3-0.6-0.5s-0.5-0.4-0.8-0.6c-0.3-0.2-0.7-0.3-1-0.5s-0.8-0.2-1.2-0.2
		c-0.5,0-0.9,0.1-1.4,0.2s-0.8,0.4-1.2,0.7c-0.3,0.3-0.6,0.8-0.8,1.3s-0.3,1.2-0.3,2s0.1,1.5,0.3,2.1s0.5,1,0.9,1.3s0.8,0.6,1.2,0.7
		s0.9,0.2,1.3,0.2c0.4,0,0.8-0.1,1.2-0.2s0.8-0.3,1.1-0.5s0.6-0.4,0.8-0.5s0.4-0.4,0.6-0.5h0.4v3.1c-0.3,0.1-0.6,0.3-0.9,0.4
		s-0.6,0.2-0.9,0.3c-0.4,0.1-0.8,0.2-1.2,0.3S60.6,239.7,59.9,239.7z"/>
	<path class="st1" d="M80.8,232.9c0,2.1-0.6,3.7-1.8,5s-2.8,1.8-5,1.8c-2.1,0-3.8-0.6-4.9-1.8s-1.8-2.9-1.8-5s0.6-3.8,1.8-5
		c1.2-1.2,2.8-1.8,4.9-1.8s3.7,0.6,4.9,1.8C80.2,229.1,80.8,230.8,80.8,232.9z M76.4,236.2c0.3-0.4,0.6-0.9,0.7-1.4
		c0.2-0.5,0.2-1.2,0.2-1.9c0-0.8-0.1-1.5-0.3-2s-0.4-1-0.7-1.3c-0.3-0.4-0.6-0.6-1-0.8s-0.8-0.2-1.2-0.2c-0.4,0-0.8,0.1-1.2,0.2
		s-0.7,0.4-1,0.8c-0.3,0.3-0.5,0.8-0.7,1.4s-0.3,1.2-0.3,2s0.1,1.4,0.3,2c0.2,0.5,0.4,1,0.7,1.3s0.6,0.6,1,0.8s0.8,0.2,1.2,0.2
		s0.8-0.1,1.2-0.3C75.7,236.8,76.1,236.5,76.4,236.2z"/>
	<path class="st1" d="M96.4,239.4h-3.3l-5.6-9v9h-3.1v-13.1h4l4.8,7.5v-7.5h3.1L96.4,239.4L96.4,239.4z"/>
	<path class="st1" d="M111.3,235.3c0,1.3-0.5,2.3-1.6,3.1s-2.6,1.2-4.5,1.2c-1.1,0-2-0.1-2.8-0.3s-1.6-0.4-2.3-0.7v-3.1h0.4
		c0.7,0.6,1.5,1,2.3,1.3s1.7,0.4,2.5,0.4c0.2,0,0.5,0,0.8-0.1s0.6-0.1,0.8-0.2c0.3-0.1,0.5-0.2,0.6-0.4s0.3-0.4,0.3-0.7
		s-0.1-0.5-0.4-0.7c-0.2-0.2-0.6-0.4-1.1-0.5s-1-0.2-1.6-0.3c-0.5-0.1-1.1-0.2-1.5-0.4c-1.1-0.4-1.9-0.8-2.4-1.5
		c-0.5-0.6-0.7-1.4-0.7-2.3c0-1.2,0.5-2.2,1.6-3s2.5-1.2,4.2-1.2c0.9,0,1.7,0.1,2.6,0.3c0.8,0.2,1.6,0.4,2.2,0.6v3h-0.4
		c-0.5-0.4-1.2-0.8-1.9-1.1c-0.8-0.3-1.5-0.4-2.3-0.4c-0.3,0-0.6,0-0.8,0.1c-0.3,0-0.5,0.1-0.8,0.2c-0.2,0.1-0.4,0.2-0.6,0.4
		s-0.2,0.4-0.2,0.6c0,0.3,0.1,0.6,0.4,0.8s0.8,0.4,1.5,0.5c0.5,0.1,0.9,0.2,1.4,0.3s0.9,0.2,1.4,0.4c1,0.3,1.7,0.8,2.2,1.3
		S111.3,234.4,111.3,235.3z"/>
	<path class="st1" d="M126.1,234.7c0,1.6-0.5,2.9-1.5,3.7s-2.4,1.3-4.4,1.3s-3.4-0.4-4.3-1.3s-1.5-2.1-1.5-3.7v-8.4h3.4v8.2
		c0,0.9,0.2,1.6,0.6,2s1,0.7,1.9,0.7c0.8,0,1.5-0.2,1.9-0.6s0.6-1.1,0.6-2.1v-8.2h3.4L126.1,234.7L126.1,234.7z"/>
	<path class="st1" d="M144,239.4h-3.4v-8.8l-2.4,5.7h-2.3l-2.4-5.7v8.8h-3.2v-13.1h3.9l2.9,6.6l2.9-6.6h3.9v13.1H144z"/>
	<path class="st1" d="M157.9,239.4h-9.5v-13.1h9.5v2.5h-6.1v2.3h5.7v2.5h-5.7v3.2h6.1V239.4z"/>
	<path class="st1" d="M174.4,239.4h-4.1l-3.6-4.8h-1.6v4.8h-3.4v-13.1h5.7c0.8,0,1.4,0,2,0.1s1.1,0.3,1.6,0.6s0.9,0.7,1.2,1.1
		c0.3,0.5,0.4,1.1,0.4,1.8c0,1-0.2,1.8-0.7,2.4s-1.1,1.1-1.9,1.5L174.4,239.4z M169.1,230.3c0-0.3-0.1-0.6-0.2-0.8s-0.4-0.4-0.7-0.6
		c-0.2-0.1-0.5-0.2-0.8-0.2s-0.7,0-1.1,0h-1.2v3.5h1c0.5,0,1,0,1.4-0.1s0.7-0.2,0.9-0.4s0.4-0.4,0.5-0.6
		C169.1,231,169.1,230.7,169.1,230.3z"/>
</g>
<g class="st0">
	<path class="st1" d="M88,260.3c-0.6,0.2-1.4,0.5-2.3,0.7s-1.9,0.3-2.9,0.3c-2.2,0-4-0.6-5.2-1.8c-1.3-1.2-1.9-2.9-1.9-5
		c0-2,0.6-3.7,1.9-4.9s3-1.9,5.3-1.9c0.9,0,1.7,0.1,2.5,0.2c0.8,0.2,1.6,0.5,2.6,0.9v3.1h-0.4c-0.2-0.1-0.4-0.3-0.7-0.5
		c-0.3-0.2-0.6-0.4-0.9-0.6c-0.3-0.2-0.7-0.3-1.2-0.5s-0.9-0.2-1.4-0.2c-0.6,0-1.1,0.1-1.6,0.3s-0.9,0.4-1.3,0.8
		c-0.4,0.4-0.7,0.8-0.9,1.3c-0.2,0.5-0.3,1.2-0.3,1.9c0,1.4,0.4,2.6,1.2,3.3s1.9,1.2,3.4,1.2c0.1,0,0.3,0,0.4,0s0.3,0,0.4,0v-2.6
		h-2.6v-2.5h6L88,260.3L88,260.3z"/>
	<path class="st1" d="M104.8,254.5c0,2.1-0.6,3.7-1.8,5c-1.2,1.2-2.8,1.8-5,1.8c-2.1,0-3.8-0.6-4.9-1.8c-1.2-1.2-1.8-2.9-1.8-5
		s0.6-3.8,1.8-5c1.2-1.2,2.8-1.8,4.9-1.8s3.7,0.6,4.9,1.8C104.2,250.7,104.8,252.4,104.8,254.5z M100.3,257.8
		c0.3-0.4,0.6-0.9,0.7-1.4c0.2-0.5,0.2-1.2,0.2-1.9c0-0.8-0.1-1.5-0.3-2s-0.4-1-0.7-1.3c-0.3-0.4-0.6-0.6-1-0.8s-0.8-0.2-1.2-0.2
		c-0.4,0-0.8,0.1-1.2,0.2s-0.7,0.4-1,0.8c-0.3,0.3-0.5,0.8-0.7,1.4c-0.2,0.6-0.3,1.2-0.3,2s0.1,1.4,0.3,2c0.2,0.5,0.4,1,0.7,1.3
		s0.6,0.6,1,0.8s0.8,0.2,1.2,0.2s0.8-0.1,1.2-0.3C99.7,258.4,100,258.1,100.3,257.8z"/>
	<path class="st1" d="M121.1,254.5c0,2.1-0.6,3.7-1.8,5c-1.2,1.2-2.8,1.8-5,1.8c-2.1,0-3.8-0.6-4.9-1.8c-1.2-1.2-1.8-2.9-1.8-5
		s0.6-3.8,1.8-5c1.2-1.2,2.8-1.8,4.9-1.8s3.7,0.6,4.9,1.8C120.5,250.7,121.1,252.4,121.1,254.5z M116.7,257.8
		c0.3-0.4,0.6-0.9,0.7-1.4c0.2-0.5,0.2-1.2,0.2-1.9c0-0.8-0.1-1.5-0.3-2s-0.4-1-0.7-1.3c-0.3-0.4-0.6-0.6-1-0.8s-0.8-0.2-1.2-0.2
		c-0.4,0-0.8,0.1-1.2,0.2s-0.7,0.4-1,0.8c-0.3,0.3-0.5,0.8-0.7,1.4c-0.2,0.6-0.3,1.2-0.3,2s0.1,1.4,0.3,2c0.2,0.5,0.4,1,0.7,1.3
		s0.6,0.6,1,0.8s0.8,0.2,1.2,0.2s0.8-0.1,1.2-0.3C116,258.4,116.4,258.1,116.7,257.8z"/>
	<path class="st1" d="M137.1,254.5c0,1.2-0.3,2.3-0.8,3.3c-0.6,1-1.3,1.7-2.1,2.2c-0.6,0.4-1.3,0.7-2.1,0.8s-1.7,0.2-2.7,0.2h-4.6
		v-13.1h4.7c1.1,0,2,0.1,2.8,0.3s1.4,0.4,2,0.8c0.9,0.6,1.6,1.3,2.1,2.2C136.9,252.1,137.1,253.2,137.1,254.5z M133.6,254.5
		c0-0.9-0.2-1.6-0.5-2.2c-0.3-0.6-0.8-1.1-1.5-1.4c-0.3-0.2-0.7-0.3-1.1-0.3c-0.4-0.1-0.9-0.1-1.6-0.1H128v8.2h0.9
		c0.8,0,1.4,0,1.8-0.1c0.4-0.1,0.7-0.2,1.1-0.4c0.6-0.4,1.1-0.8,1.4-1.4C133.5,256,133.6,255.3,133.6,254.5z"/>
	<path class="st1" d="M151.2,256.9c0,1.3-0.5,2.3-1.6,3.1c-1.1,0.8-2.6,1.2-4.5,1.2c-1.1,0-2-0.1-2.8-0.3s-1.6-0.4-2.3-0.7v-3.1h0.4
		c0.7,0.6,1.5,1,2.3,1.3s1.7,0.4,2.5,0.4c0.2,0,0.5,0,0.8-0.1s0.6-0.1,0.8-0.2c0.3-0.1,0.5-0.2,0.6-0.4s0.3-0.4,0.3-0.7
		c0-0.3-0.1-0.5-0.4-0.7c-0.2-0.2-0.6-0.4-1.1-0.5s-1-0.2-1.6-0.3c-0.5-0.1-1.1-0.2-1.5-0.4c-1.1-0.4-1.9-0.8-2.4-1.5
		c-0.5-0.6-0.7-1.4-0.7-2.3c0-1.2,0.5-2.2,1.6-3s2.5-1.2,4.2-1.2c0.9,0,1.7,0.1,2.6,0.3c0.8,0.2,1.6,0.4,2.2,0.6v3h-0.4
		c-0.5-0.4-1.2-0.8-1.9-1.1c-0.8-0.3-1.5-0.4-2.3-0.4c-0.3,0-0.6,0-0.8,0.1c-0.3,0-0.5,0.1-0.8,0.2c-0.2,0.1-0.4,0.2-0.6,0.4
		c-0.2,0.2-0.2,0.4-0.2,0.6c0,0.3,0.1,0.6,0.4,0.8c0.3,0.2,0.8,0.4,1.5,0.5c0.5,0.1,0.9,0.2,1.4,0.3s0.9,0.2,1.4,0.4
		c1,0.3,1.7,0.8,2.2,1.3C151,255.3,151.2,256,151.2,256.9z"/>
</g>
<circle id="_Path_" class="st2" cx="115.4" cy="85.7" r="77.3"/>
<g id="_Group_">
	<path id="_Compound_Path_" class="st3" d="M155.1,62.9c0-0.4-0.1-0.7-0.2-1c-0.3-0.6-0.9-1.1-1.5-1.2l-37.2-18
		c-0.6-0.3-1.3-0.3-1.9,0L76.8,60.9c-0.8,0.4-1.2,1.1-1.2,1.9v45.8c0,0.9,0.5,1.6,1.2,2l37.5,18.1l0,0c0.1,0,0.1,0,0.2,0.1h0.1
		l0.2,0.1h0.1h0.2h0.1h0.2c0.1,0,0.2,0,0.2,0h0.1c0.1,0,0.1,0,0.2,0h0.1l0.2-0.1h0.1c0.1,0,0.1,0,0.2-0.1l0,0l37.6-18.2
		c0.8-0.4,1.2-1.2,1.2-2L155.1,62.9C155.1,63,155.1,63,155.1,62.9L155.1,62.9z M115.3,47.1l32.5,15.7l-12,5.9L103.3,53L115.3,47.1z
		 M115.3,78.7L82.7,62.9l15.6-7.6L130.8,71L115.3,78.7z M80,66.4l33.1,16v40.8L80,107.1V66.4z M117.5,123.3V82.5l15.6-7.6v10.7
		c0,1.2,1,2.2,2.2,2.2c1.2,0,2.2-1,2.2-2.2V72.8l13.3-6.4v40.8L117.5,123.3z"/>
</g>
</svg>
