<?xml version="1.0" encoding="utf-8"?>
<!-- Generator: Adobe Illustrator 20.0.0, SVG Export Plug-In . SVG Version: 6.00 Build 0)  -->
<svg version="1.1" id="Layer_1" xmlns="http://www.w3.org/2000/svg" xmlns:xlink="http://www.w3.org/1999/xlink" x="0px" y="0px"
	 viewBox="0 0 233.3 263.4" style="enable-background:new 0 0 233.3 263.4;" xml:space="preserve">
<style type="text/css">
	.st0{enable-background:new    ;}
	.st1{fill:#FFFFFF;}
	.st2{fill:none;stroke:#FFFFFF;stroke-width:4;stroke-miterlimit:10;}
</style>
<title>food</title>
<g class="st0">
	<path class="st1" d="M89.2,207.2h-6v2.4h5.6v2.5h-5.6v5.6h-3.4v-13.1h9.4V207.2z"/>
	<path class="st1" d="M105.3,211.3c0,2.1-0.6,3.7-1.8,5s-2.8,1.8-5,1.8c-2.1,0-3.8-0.6-4.9-1.8s-1.8-2.9-1.8-5s0.6-3.8,1.8-5
		c1.2-1.2,2.8-1.8,4.9-1.8s3.7,0.6,4.9,1.8C104.7,207.5,105.3,209.2,105.3,211.3z M100.9,214.6c0.3-0.4,0.6-0.9,0.7-1.4
		c0.2-0.5,0.2-1.2,0.2-1.9c0-0.8-0.1-1.5-0.3-2s-0.4-1-0.7-1.3c-0.3-0.4-0.6-0.6-1-0.8S99,207,98.6,207c-0.4,0-0.8,0.1-1.2,0.2
		s-0.7,0.4-1,0.8c-0.3,0.3-0.5,0.8-0.7,1.4s-0.3,1.2-0.3,2s0.1,1.4,0.3,2c0.2,0.5,0.4,1,0.7,1.3s0.6,0.6,1,0.8s0.8,0.2,1.2,0.2
		s0.8-0.1,1.2-0.3C100.2,215.2,100.6,214.9,100.9,214.6z"/>
	<path class="st1" d="M121.7,211.3c0,2.1-0.6,3.7-1.8,5s-2.8,1.8-5,1.8c-2.1,0-3.8-0.6-4.9-1.8s-1.8-2.9-1.8-5s0.6-3.8,1.8-5
		c1.2-1.2,2.8-1.8,4.9-1.8s3.7,0.6,4.9,1.8C121.1,207.5,121.7,209.2,121.7,211.3z M117.2,214.6c0.3-0.4,0.6-0.9,0.7-1.4
		c0.2-0.5,0.2-1.2,0.2-1.9c0-0.8-0.1-1.5-0.3-2s-0.4-1-0.7-1.3c-0.3-0.4-0.6-0.6-1-0.8s-0.8-0.2-1.2-0.2c-0.4,0-0.8,0.1-1.2,0.2
		s-0.7,0.4-1,0.8c-0.3,0.3-0.5,0.8-0.7,1.4s-0.3,1.2-0.3,2s0.1,1.4,0.3,2c0.2,0.5,0.4,1,0.7,1.3s0.6,0.6,1,0.8s0.8,0.2,1.2,0.2
		s0.8-0.1,1.2-0.3C116.6,215.2,116.9,214.9,117.2,214.6z"/>
	<path class="st1" d="M137.7,211.3c0,1.2-0.3,2.3-0.8,3.3s-1.3,1.7-2.1,2.2c-0.6,0.4-1.3,0.7-2.1,0.8s-1.7,0.2-2.7,0.2h-4.6v-13.1
		h4.7c1.1,0,2,0.1,2.8,0.3s1.4,0.4,2,0.8c0.9,0.6,1.6,1.3,2.1,2.2S137.7,210,137.7,211.3z M134.2,211.2c0-0.9-0.2-1.6-0.5-2.2
		c-0.3-0.6-0.8-1.1-1.5-1.4c-0.3-0.2-0.7-0.3-1.1-0.3c-0.4-0.1-0.9-0.1-1.6-0.1h-0.9v8.2h0.9c0.8,0,1.4,0,1.8-0.1
		c0.4-0.1,0.7-0.2,1.1-0.4c0.6-0.4,1.1-0.8,1.4-1.4C134.1,212.8,134.2,212.1,134.2,211.2z"/>
	<path class="st1" d="M162.7,217.8h-4.2l-1.2-1.1c-0.6,0.5-1.2,0.8-1.9,1s-1.5,0.3-2.2,0.3c-1.6,0-2.9-0.4-3.8-1.1
		c-0.9-0.7-1.4-1.7-1.4-2.9c0-0.5,0.1-0.9,0.2-1.3s0.3-0.7,0.6-1c0.2-0.3,0.5-0.5,0.8-0.7s0.6-0.4,0.9-0.5c-0.2-0.2-0.5-0.4-0.7-0.6
		s-0.4-0.4-0.6-0.7c-0.2-0.2-0.3-0.5-0.4-0.7s-0.1-0.6-0.1-0.9c0-0.4,0.1-0.8,0.3-1.2s0.4-0.7,0.8-1c0.4-0.3,0.9-0.5,1.5-0.7
		s1.3-0.3,2.2-0.3c0.7,0,1.3,0.1,1.9,0.2s1,0.3,1.4,0.6c0.4,0.2,0.6,0.5,0.8,0.9s0.3,0.7,0.3,1.1c0,0.3,0,0.6-0.1,0.9
		c-0.1,0.3-0.2,0.6-0.4,0.9c-0.2,0.3-0.5,0.6-0.9,0.9s-0.9,0.5-1.5,0.7l2.7,2.4v-2.8h3.3v1c0,0.7-0.1,1.4-0.4,2
		c-0.2,0.6-0.6,1.2-1,1.6l3.3,2.9v0.1H162.7z M155.8,215.2l-3.7-3.3c-0.1,0.1-0.3,0.3-0.4,0.6s-0.2,0.6-0.2,1s0.1,0.7,0.2,1
		s0.3,0.5,0.6,0.7c0.2,0.2,0.5,0.3,0.8,0.4s0.6,0.1,0.8,0.1c0.4,0,0.8,0,1.1-0.1C155.2,215.6,155.5,215.4,155.8,215.2z M154.4,207.7
		c0-0.3,0-0.5-0.1-0.7s-0.2-0.3-0.3-0.4c-0.1-0.1-0.3-0.2-0.4-0.2s-0.3,0-0.4,0c-0.1,0-0.2,0-0.3,0s-0.3,0.1-0.4,0.2
		c-0.1,0.1-0.2,0.2-0.3,0.4s-0.1,0.4-0.1,0.6c0,0.3,0.1,0.7,0.4,1s0.6,0.7,1.1,1c0.3-0.3,0.6-0.5,0.7-0.9S154.4,208,154.4,207.7z"/>
</g>
<g class="st0">
	<path class="st1" d="M69.2,235.4c0,0.6-0.1,1.2-0.4,1.7s-0.6,0.9-1.1,1.2c-0.5,0.4-1.1,0.7-1.7,0.8s-1.4,0.2-2.4,0.2H58v-13.1h5.1
		c1.1,0,1.8,0,2.3,0.1s1,0.2,1.5,0.5s0.9,0.6,1.1,1s0.4,0.9,0.4,1.5s-0.2,1.2-0.5,1.7s-0.8,0.9-1.4,1.1v0.1c0.9,0.2,1.5,0.5,2,1.1
		S69.2,234.5,69.2,235.4z M64.9,230c0-0.2-0.1-0.4-0.2-0.7s-0.3-0.4-0.6-0.5c-0.2-0.1-0.6-0.1-0.9-0.2c-0.4,0-0.9,0-1.5,0h-0.3v2.8
		h0.5c0.5,0,1,0,1.4,0s0.7-0.1,0.9-0.2c0.3-0.1,0.5-0.3,0.6-0.5C64.9,230.5,64.9,230.3,64.9,230z M65.7,235.3c0-0.4-0.1-0.7-0.2-1
		c-0.2-0.2-0.4-0.4-0.8-0.5c-0.3-0.1-0.6-0.1-1.1-0.1s-0.9,0-1.4,0h-0.7v3.3h0.2c0.9,0,1.6,0,2,0s0.8-0.1,1.1-0.2
		c0.4-0.1,0.6-0.3,0.7-0.6C65.7,235.9,65.7,235.7,65.7,235.3z"/>
	<path class="st1" d="M82.3,239.4h-9.5v-13.1h9.5v2.5h-6.1v2.3h5.7v2.5h-5.7v3.2h6.1V239.4z"/>
	<path class="st1" d="M98,226.3l-4.8,13.1h-3.8l-4.8-13.1h3.5l3.2,9.2l3.2-9.2H98z"/>
	<path class="st1" d="M110.4,239.4H101v-13.1h9.5v2.5h-6.1v2.3h5.7v2.5h-5.7v3.2h6.1L110.4,239.4L110.4,239.4z"/>
	<path class="st1" d="M126.9,239.4h-4.1l-3.6-4.8h-1.6v4.8h-3.4v-13.1h5.7c0.8,0,1.4,0,2,0.1s1.1,0.3,1.6,0.6s0.9,0.7,1.2,1.1
		c0.3,0.5,0.4,1.1,0.4,1.8c0,1-0.2,1.8-0.7,2.4s-1.1,1.1-1.9,1.5L126.9,239.4z M121.7,230.3c0-0.3-0.1-0.6-0.2-0.8s-0.4-0.4-0.7-0.6
		c-0.2-0.1-0.5-0.2-0.8-0.2s-0.7,0-1.1,0h-1.2v3.5h1c0.5,0,1,0,1.4-0.1s0.7-0.2,0.9-0.4c0.2-0.2,0.4-0.4,0.5-0.6
		C121.6,231,121.7,230.7,121.7,230.3z"/>
	<path class="st1" d="M138.9,239.4h-9.5v-13.1h9.5v2.5h-6.1v2.3h5.7v2.5h-5.7v3.2h6.1V239.4z"/>
	<path class="st1" d="M154.9,239.4h-3.5l-0.9-2.6h-4.8l-0.9,2.6h-3.4l4.8-13.1h3.9L154.9,239.4z M149.7,234.4l-1.6-4.7l-1.6,4.7
		H149.7z"/>
	<path class="st1" d="M169.4,238.7c-0.6,0.2-1.4,0.5-2.3,0.7c-1,0.2-1.9,0.3-2.9,0.3c-2.2,0-4-0.6-5.2-1.8c-1.3-1.2-1.9-2.9-1.9-5
		c0-2,0.6-3.7,1.9-4.9c1.3-1.2,3-1.9,5.3-1.9c0.9,0,1.7,0.1,2.5,0.2c0.8,0.2,1.6,0.5,2.6,0.9v3.1H169c-0.2-0.1-0.4-0.3-0.7-0.5
		s-0.6-0.4-0.9-0.6c-0.3-0.2-0.7-0.3-1.2-0.5s-0.9-0.2-1.4-0.2c-0.6,0-1.1,0.1-1.6,0.3s-0.9,0.4-1.3,0.8c-0.4,0.4-0.7,0.8-0.9,1.3
		s-0.3,1.2-0.3,1.9c0,1.4,0.4,2.6,1.2,3.3s1.9,1.2,3.4,1.2c0.1,0,0.3,0,0.4,0s0.3,0,0.4,0v-2.6h-2.6v-2.5h6L169.4,238.7L169.4,238.7
		z"/>
	<path class="st1" d="M183,239.4h-9.5v-13.1h9.5v2.5h-6.1v2.3h5.7v2.5h-5.7v3.2h6.1V239.4z"/>
</g>
<g id="_Group_">
	<circle id="_Path_" class="st2" cx="117" cy="86" r="76"/>
	<g id="_Group_2">
		<path id="_Path_2" class="st2" d="M92.8,59.8c0,13.4,10.8,30.8,24.2,30.8s24.2-17.4,24.2-30.8H92.8z"/>
		<line id="_Path_3" class="st2" x1="117" y1="90.6" x2="117" y2="118.6"/>
		<line id="_Path_4" class="st2" x1="102.7" y1="118.6" x2="131.3" y2="118.6"/>
		<line id="_Path_5" class="st2" x1="96.9" y1="75.2" x2="137.1" y2="75.2"/>
	</g>
</g>
</svg>
