<?xml version="1.0" encoding="utf-8"?>
<!-- Generator: Adobe Illustrator 20.0.0, SVG Export Plug-In . SVG Version: 6.00 Build 0)  -->
<svg version="1.1" id="Layer_1" xmlns="http://www.w3.org/2000/svg" xmlns:xlink="http://www.w3.org/1999/xlink" x="0px" y="0px"
	 viewBox="0 0 233.3 263.4" style="enable-background:new 0 0 233.3 263.4;" xml:space="preserve">
<style type="text/css">
	.st0{enable-background:new    ;}
	.st1{fill:#FFFFFF;}
	.st2{fill:none;stroke:#FFFFFF;stroke-width:4;stroke-miterlimit:10;}
	.st3{fill:#FFFFFF;stroke:#FFFFFF;stroke-miterlimit:10;}
</style>
<title>hospitality</title>
<g class="st0">
	<path class="st1" d="M58.7,218.4h-3.4v-5.8h-5v5.8H47v-13.1h3.4v4.8h5v-4.8h3.4v13.1H58.7z"/>
	<path class="st1" d="M75.8,211.8c0,2.1-0.6,3.7-1.8,5s-2.8,1.8-5,1.8c-2.1,0-3.8-0.6-4.9-1.8s-1.8-2.9-1.8-5s0.6-3.8,1.8-5
		c1.2-1.2,2.8-1.8,4.9-1.8s3.7,0.6,4.9,1.8C75.2,208.1,75.8,209.7,75.8,211.8z M71.4,215.1c0.3-0.4,0.6-0.9,0.7-1.4
		c0.2-0.5,0.2-1.2,0.2-1.9c0-0.8-0.1-1.5-0.3-2s-0.4-1-0.7-1.3c-0.3-0.4-0.6-0.6-1-0.8s-0.8-0.2-1.2-0.2c-0.4,0-0.8,0.1-1.2,0.2
		s-0.7,0.4-1,0.8c-0.3,0.3-0.5,0.8-0.7,1.4s-0.3,1.2-0.3,2s0.1,1.4,0.3,2c0.2,0.5,0.4,1,0.7,1.3s0.6,0.6,1,0.8s0.8,0.2,1.2,0.2
		s0.8-0.1,1.2-0.3C70.7,215.7,71.1,215.5,71.4,215.1z"/>
	<path class="st1" d="M90,214.2c0,1.3-0.5,2.3-1.6,3.1s-2.6,1.2-4.5,1.2c-1.1,0-2-0.1-2.8-0.3s-1.6-0.4-2.3-0.7v-3.1h0.4
		c0.7,0.6,1.5,1,2.3,1.3s1.7,0.4,2.5,0.4c0.2,0,0.5,0,0.8-0.1s0.6-0.1,0.8-0.2c0.3-0.1,0.5-0.2,0.6-0.4s0.3-0.4,0.3-0.7
		s-0.1-0.5-0.4-0.7c-0.2-0.2-0.6-0.4-1.1-0.5s-1-0.2-1.6-0.3c-0.5-0.1-1.1-0.2-1.5-0.4c-1.1-0.4-1.9-0.8-2.4-1.5
		c-0.5-0.6-0.7-1.4-0.7-2.3c0-1.2,0.5-2.2,1.6-3s2.5-1.2,4.2-1.2c0.9,0,1.7,0.1,2.6,0.3c0.8,0.2,1.6,0.4,2.2,0.6v3H89
		c-0.5-0.4-1.2-0.8-1.9-1.1c-0.8-0.3-1.5-0.4-2.3-0.4c-0.3,0-0.6,0-0.8,0.1c-0.3,0-0.5,0.1-0.8,0.2c-0.2,0.1-0.4,0.2-0.6,0.4
		s-0.2,0.4-0.2,0.6c0,0.3,0.1,0.6,0.4,0.8s0.8,0.4,1.5,0.5c0.5,0.1,0.9,0.2,1.4,0.3s0.9,0.2,1.4,0.4c1,0.3,1.7,0.8,2.2,1.3
		S90,213.3,90,214.2z"/>
	<path class="st1" d="M104.1,209.4c0,0.6-0.1,1.2-0.3,1.7c-0.2,0.6-0.5,1-0.9,1.4c-0.5,0.5-1.1,0.9-1.7,1.2s-1.4,0.4-2.4,0.4h-2.1
		v4.3h-3.4v-13.1h5.6c0.8,0,1.5,0.1,2.1,0.2s1.1,0.4,1.5,0.6c0.5,0.3,0.9,0.8,1.2,1.3S104.1,208.6,104.1,209.4z M100.6,209.5
		c0-0.4-0.1-0.7-0.3-1c-0.2-0.3-0.4-0.5-0.7-0.6c-0.4-0.1-0.7-0.2-1-0.2s-0.8,0-1.3,0h-0.6v3.9h1c0.6,0,1,0,1.4-0.1s0.7-0.2,0.9-0.4
		c0.2-0.2,0.4-0.4,0.5-0.7C100.6,210.2,100.6,209.9,100.6,209.5z"/>
	<path class="st1" d="M114.7,218.4H107V216h2.1v-8.4H107v-2.3h7.7v2.3h-2.1v8.4h2.1V218.4z"/>
	<path class="st1" d="M128.7,207.8h-4.1v10.6h-3.4v-10.6h-4.1v-2.5h11.5L128.7,207.8L128.7,207.8z"/>
	<path class="st1" d="M143.9,218.4h-3.5l-0.9-2.6h-4.8l-0.9,2.6h-3.4l4.8-13.1h3.9L143.9,218.4z M138.7,213.3l-1.6-4.7l-1.6,4.7
		H138.7z"/>
	<path class="st1" d="M156.3,218.4h-9.4v-13.1h3.4v10.6h6.1v2.5H156.3z"/>
	<path class="st1" d="M166.4,218.4h-7.7V216h2.1v-8.4h-2.1v-2.3h7.7v2.3h-2.1v8.4h2.1V218.4z"/>
	<path class="st1" d="M180.5,207.8h-4.1v10.6H173v-10.6h-4v-2.5h11.5V207.8z"/>
	<path class="st1" d="M195.1,205.3l-4.8,8v5.1h-3.4v-4.9l-4.9-8.2h3.8l2.8,5l2.7-5L195.1,205.3L195.1,205.3z"/>
</g>
<circle id="_Path_" class="st2" cx="116.3" cy="85.3" r="75.7"/>
<g id="_Group_">
	<path id="_Compound_Path_" class="st3" d="M163,79.3V53c0-3.6-3-6.5-6.6-6.6H73.9c-3.6,0-6.5,3-6.6,6.6v26.3
		c-3.1,0.5-5.5,3.2-5.5,6.4V102c0,1.1,0.9,2.1,2,2.1c0,0,0,0,0.1,0h2.2v10.1c0,1.1,1,2,2.1,2h3.7v4c0,1.1,1,2.1,2.1,2.1
		c1.1,0,2.1-1,2.1-2.1v-3.9h78.2v4c0,1.1,1,2.1,2.1,2.1c1.1,0,2.1-1,2.1-2.1v-4h3.7c1.1,0,2.1-1,2.1-2.1l0,0v-10.1h2.2
		c1.1,0,2.1-1,2.1-2.1l0,0V85.7C168.5,82.5,166.1,79.8,163,79.3L163,79.3z M71.5,53c0-1.3,1-2.4,2.4-2.4h82.5c1.3,0,2.4,1,2.5,2.4
		c0,0,0,0,0,0.1v26.2h-7.2c1.4-1.5,3-3.1,4.4-4.9c0.7-0.8,0.7-1.9,0-2.7c-5.4-6.4-11.4-12.3-17.7-17.7c-0.8-0.7-1.9-0.7-2.7,0
		c-6.4,5.4-12.3,11.3-17.8,17.7c-0.7,0.8-0.7,1.9,0,2.7c1.5,1.7,3,3.3,4.4,4.9h-14.1c1.4-1.5,3-3.1,4.4-4.9c0.7-0.8,0.7-1.9,0-2.7
		c-5.4-6.4-11.4-12.3-17.7-17.7c-0.8-0.7-1.9-0.7-2.7,0c-6.4,5.3-12.3,11.2-17.8,17.5c-0.7,0.8-0.7,1.9,0,2.7c1.5,1.7,3,3.3,4.4,4.9
		h-7.2L71.5,53z M127.9,79.2c-1.9-1.9-3.8-4-5.8-6.3c4.6-5.2,9.5-10.2,14.9-14.9c5.2,4.7,10.2,9.6,14.9,14.9
		c-1.9,2.3-3.9,4.3-5.8,6.3H127.9z M84.4,79.2c-1.9-1.9-3.8-4-5.8-6.3c4.6-5.2,9.5-10.2,14.9-14.8c5.2,4.6,10.2,9.5,14.9,14.9
		c-1.9,2.3-3.9,4.3-5.8,6.3L84.4,79.2z M160,112.1H70.3v-8H160V112.1z M164.3,99.9H66V85.7c0-1.3,1-2.4,2.4-2.4l0,0h93.5
		c1.3,0,2.4,1,2.4,2.4V99.9z"/>
</g>
</svg>
