<?xml version="1.0" encoding="utf-8"?>
<!-- Generator: Adobe Illustrator 20.0.0, SVG Export Plug-In . SVG Version: 6.00 Build 0)  -->
<svg version="1.1" id="Layer_1" xmlns="http://www.w3.org/2000/svg" xmlns:xlink="http://www.w3.org/1999/xlink" x="0px" y="0px"
	 viewBox="0 0 233.3 264.7" style="enable-background:new 0 0 233.3 264.7;" xml:space="preserve">
<style type="text/css">
	.st0{enable-background:new    ;}
	.st1{fill:#FFFFFF;}
	.st2{fill:none;stroke:#FFFFFF;stroke-width:4;stroke-miterlimit:10;}
</style>
<title>information</title>
<g class="st0">
	<path class="st1" d="M44.8,217.8h-7.7v-2.3h2.1V207h-2.1v-2.3h7.7v2.3h-2.1v8.4h2.1V217.8z"/>
	<path class="st1" d="M60.5,217.8h-3.3l-5.6-9v9h-3.1v-13.1h4l4.8,7.5v-7.5h3.1L60.5,217.8L60.5,217.8z"/>
	<path class="st1" d="M74.3,207.2h-6v2.4h5.6v2.5h-5.6v5.6h-3.4v-13.1h9.4V207.2z"/>
	<path class="st1" d="M90.4,211.2c0,2.1-0.6,3.7-1.8,5s-2.8,1.8-5,1.8c-2.1,0-3.8-0.6-4.9-1.8s-1.8-2.9-1.8-5s0.6-3.8,1.8-5
		c1.2-1.2,2.8-1.8,4.9-1.8s3.7,0.6,4.9,1.8C89.8,207.5,90.4,209.1,90.4,211.2z M85.9,214.5c0.3-0.4,0.6-0.9,0.7-1.4
		c0.2-0.5,0.2-1.2,0.2-1.9c0-0.8-0.1-1.5-0.3-2s-0.4-1-0.7-1.3c-0.3-0.4-0.6-0.6-1-0.8s-0.8-0.2-1.2-0.2c-0.4,0-0.8,0.1-1.2,0.2
		s-0.7,0.4-1,0.8c-0.3,0.3-0.5,0.8-0.7,1.4s-0.3,1.2-0.3,2s0.1,1.4,0.3,2c0.2,0.5,0.4,1,0.7,1.3s0.6,0.6,1,0.8s0.8,0.2,1.2,0.2
		s0.8-0.1,1.2-0.3C85.3,215.2,85.6,214.9,85.9,214.5z"/>
	<path class="st1" d="M106.6,217.8h-4.1l-3.6-4.8h-1.6v4.8H94v-13.1h5.7c0.8,0,1.4,0,2,0.1s1.1,0.3,1.6,0.6s0.9,0.7,1.2,1.1
		c0.3,0.5,0.4,1.1,0.4,1.8c0,1-0.2,1.8-0.7,2.4s-1.1,1.1-1.9,1.5L106.6,217.8z M101.4,208.7c0-0.3-0.1-0.6-0.2-0.8s-0.4-0.4-0.7-0.6
		c-0.2-0.1-0.5-0.2-0.8-0.2s-0.7,0-1.1,0h-1.2v3.5h1c0.5,0,1,0,1.4-0.1s0.7-0.2,0.9-0.4c0.2-0.2,0.4-0.4,0.5-0.6
		C101.3,209.4,101.4,209.1,101.4,208.7z"/>
	<path class="st1" d="M122.9,217.8h-3.4V209l-2.4,5.7h-2.3l-2.4-5.7v8.8h-3.2v-13.1h3.9l2.9,6.6l2.9-6.6h3.9L122.9,217.8
		L122.9,217.8z"/>
	<path class="st1" d="M139.4,217.8h-3.5l-0.9-2.6h-4.8l-0.9,2.6h-3.4l4.8-13.1h3.9L139.4,217.8z M134.2,212.7l-1.6-4.7l-1.6,4.7
		H134.2z"/>
	<path class="st1" d="M152.6,207.2h-4.1v10.6h-3.4v-10.6H141v-2.5h11.5v2.5H152.6z"/>
	<path class="st1" d="M162.7,217.8H155v-2.3h2.1V207H155v-2.3h7.7v2.3h-2.1v8.4h2.1V217.8z"/>
	<path class="st1" d="M179.3,211.2c0,2.1-0.6,3.7-1.8,5s-2.8,1.8-5,1.8c-2.1,0-3.8-0.6-4.9-1.8s-1.8-2.9-1.8-5s0.6-3.8,1.8-5
		s2.8-1.8,4.9-1.8c2.1,0,3.7,0.6,4.9,1.8C178.7,207.5,179.3,209.1,179.3,211.2z M174.8,214.5c0.3-0.4,0.6-0.9,0.7-1.4
		c0.2-0.5,0.2-1.2,0.2-1.9c0-0.8-0.1-1.5-0.3-2s-0.4-1-0.7-1.3c-0.3-0.4-0.6-0.6-1-0.8s-0.8-0.2-1.2-0.2s-0.8,0.1-1.2,0.2
		s-0.7,0.4-1,0.8c-0.3,0.3-0.5,0.8-0.7,1.4s-0.3,1.2-0.3,2s0.1,1.4,0.3,2c0.2,0.5,0.4,1,0.7,1.3s0.6,0.6,1,0.8s0.8,0.2,1.2,0.2
		s0.8-0.1,1.2-0.3C174.2,215.2,174.5,214.9,174.8,214.5z"/>
	<path class="st1" d="M194.8,217.8h-3.3l-5.6-9v9h-3.1v-13.1h4l4.8,7.5v-7.5h3.1v13.1H194.8z"/>
</g>
<g class="st0">
	<path class="st1" d="M54.5,228.8h-4.1v10.6H47v-10.6h-4.1v-2.5h11.5L54.5,228.8L54.5,228.8z"/>
	<path class="st1" d="M67,239.4h-9.5v-13.1H67v2.5h-6.1v2.3h5.7v2.5h-5.7v3.2H67V239.4z"/>
	<path class="st1" d="M76.8,239.6c-1,0-1.9-0.1-2.7-0.4s-1.5-0.7-2.1-1.3s-1.1-1.3-1.4-2.1s-0.5-1.8-0.5-2.9c0-1,0.2-2,0.5-2.8
		s0.8-1.6,1.4-2.2c0.6-0.6,1.3-1,2.1-1.3s1.8-0.5,2.8-0.5c0.6,0,1,0,1.5,0.1c0.4,0.1,0.9,0.1,1.2,0.2c0.4,0.1,0.7,0.2,1.1,0.4
		c0.3,0.1,0.6,0.3,0.8,0.4v3.2h-0.4c-0.2-0.1-0.4-0.3-0.6-0.5s-0.5-0.4-0.8-0.6c-0.3-0.2-0.7-0.3-1-0.5s-0.8-0.2-1.2-0.2
		c-0.5,0-0.9,0.1-1.4,0.2s-0.8,0.4-1.2,0.7c-0.3,0.3-0.6,0.8-0.8,1.3s-0.3,1.2-0.3,2s0.1,1.5,0.3,2.1s0.5,1,0.9,1.3s0.8,0.6,1.2,0.7
		s0.9,0.2,1.3,0.2s0.8-0.1,1.2-0.2s0.8-0.3,1.1-0.5c0.3-0.2,0.6-0.4,0.8-0.5s0.4-0.4,0.6-0.5h0.4v3.1c-0.3,0.1-0.6,0.3-0.9,0.4
		s-0.6,0.2-0.9,0.3c-0.4,0.1-0.8,0.2-1.2,0.3S77.5,239.6,76.8,239.6z"/>
	<path class="st1" d="M96.7,239.4h-3.4v-5.8h-5v5.8H85v-13.1h3.4v4.8h5v-4.8h3.4v13.1H96.7z"/>
	<path class="st1" d="M113,239.4h-3.3l-5.6-9v9H101v-13.1h4l4.8,7.5v-7.5h3.1L113,239.4L113,239.4z"/>
	<path class="st1" d="M130.2,232.8c0,2.1-0.6,3.7-1.8,5s-2.8,1.8-5,1.8c-2.1,0-3.8-0.6-4.9-1.8s-1.8-2.9-1.8-5s0.6-3.8,1.8-5
		c1.2-1.2,2.8-1.8,4.9-1.8s3.7,0.6,4.9,1.8C129.6,229.1,130.2,230.7,130.2,232.8z M125.7,236.1c0.3-0.4,0.6-0.9,0.7-1.4
		c0.2-0.5,0.2-1.2,0.2-1.9c0-0.8-0.1-1.5-0.3-2s-0.4-1-0.7-1.3c-0.3-0.4-0.6-0.6-1-0.8s-0.8-0.2-1.2-0.2c-0.4,0-0.8,0.1-1.2,0.2
		s-0.7,0.4-1,0.8c-0.3,0.3-0.5,0.8-0.7,1.4s-0.3,1.2-0.3,2s0.1,1.4,0.3,2c0.2,0.5,0.4,1,0.7,1.3s0.6,0.6,1,0.8s0.8,0.2,1.2,0.2
		s0.8-0.1,1.2-0.3C125.1,236.8,125.4,236.5,125.7,236.1z"/>
	<path class="st1" d="M143.2,239.4h-9.4v-13.1h3.4v10.6h6.1v2.5H143.2z"/>
	<path class="st1" d="M159.1,232.8c0,2.1-0.6,3.7-1.8,5s-2.8,1.8-5,1.8c-2.1,0-3.8-0.6-4.9-1.8s-1.8-2.9-1.8-5s0.6-3.8,1.8-5
		s2.8-1.8,4.9-1.8c2.1,0,3.7,0.6,4.9,1.8C158.5,229.1,159.1,230.7,159.1,232.8z M154.6,236.1c0.3-0.4,0.6-0.9,0.7-1.4
		c0.2-0.5,0.2-1.2,0.2-1.9c0-0.8-0.1-1.5-0.3-2s-0.4-1-0.7-1.3c-0.3-0.4-0.6-0.6-1-0.8s-0.8-0.2-1.2-0.2s-0.8,0.1-1.2,0.2
		s-0.7,0.4-1,0.8c-0.3,0.3-0.5,0.8-0.7,1.4s-0.3,1.2-0.3,2s0.1,1.4,0.3,2c0.2,0.5,0.4,1,0.7,1.3s0.6,0.6,1,0.8s0.8,0.2,1.2,0.2
		s0.8-0.1,1.2-0.3C153.9,236.8,154.3,236.5,154.6,236.1z"/>
	<path class="st1" d="M174.3,238.6c-0.6,0.2-1.4,0.5-2.3,0.7c-1,0.2-1.9,0.3-2.9,0.3c-2.2,0-4-0.6-5.2-1.8c-1.3-1.2-1.9-2.9-1.9-5
		c0-2,0.6-3.7,1.9-4.9c1.3-1.2,3-1.9,5.3-1.9c0.9,0,1.7,0.1,2.5,0.2c0.8,0.2,1.6,0.5,2.6,0.9v3.1h-0.4c-0.2-0.1-0.4-0.3-0.7-0.5
		s-0.6-0.4-0.9-0.6c-0.3-0.2-0.7-0.3-1.2-0.5s-0.9-0.2-1.4-0.2c-0.6,0-1.1,0.1-1.6,0.3s-0.9,0.4-1.3,0.8c-0.4,0.4-0.7,0.8-0.9,1.3
		s-0.3,1.2-0.3,1.9c0,1.4,0.4,2.6,1.2,3.3s1.9,1.2,3.4,1.2c0.1,0,0.3,0,0.4,0s0.3,0,0.4,0v-2.6h-2.6v-2.5h6v6.5H174.3z"/>
	<path class="st1" d="M189.9,226.3l-4.8,8v5.1h-3.4v-4.9l-4.9-8.2h3.8l2.8,5l2.7-5L189.9,226.3L189.9,226.3z"/>
</g>
<circle id="_Path_" class="st2" cx="116.6" cy="86.2" r="76.6"/>
<g id="_Group_">
	<rect id="_Rectangle_" x="81.3" y="60.4" class="st2" width="70.5" height="39.4"/>
	<polygon id="_Path_2" class="st2" points="133.5,112 99.6,112 105.3,100.7 127.8,100.7 	"/>
</g>
</svg>
