<?xml version="1.0" encoding="utf-8"?>
<!-- Generator: Adobe Illustrator 20.0.0, SVG Export Plug-In . SVG Version: 6.00 Build 0)  -->
<svg version="1.1" id="Layer_1" xmlns="http://www.w3.org/2000/svg" xmlns:xlink="http://www.w3.org/1999/xlink" x="0px" y="0px"
	 viewBox="0 0 233.3 263.4" style="enable-background:new 0 0 233.3 263.4;" xml:space="preserve">
<style type="text/css">
	.st0{fill:none;stroke:#FFFFFF;stroke-width:4;stroke-miterlimit:10;}
	.st1{fill:#FFFFFF;stroke:#FFFFFF;stroke-miterlimit:10;}
	.st2{enable-background:new    ;}
	.st3{fill:#FFFFFF;}
</style>
<circle id="_Path_" class="st0" cx="115.6" cy="85.3" r="77.7"/>
<path id="_Compound_Path_" class="st1" d="M129.8,56.5H64.5c-1,0-1.8,0.8-1.8,1.8l0,0v50.5c0,1,0.8,1.8,1.8,1.8l0,0h7v0.2
	c1.2,5.6,6.6,9.2,12.2,8c4-0.8,7.2-4,8-8v-0.2h43.5v0.2c1.1,5.6,6.6,9.2,12.2,8.1c4.1-0.8,7.2-4,8.1-8.1v-0.2h11.2
	c1,0,1.8-0.8,1.8-1.8l0,0V88.3c0-0.7-0.3-1.3-0.9-1.6l-6.2-3.6V83l-3.5-15c-0.9-3.8-4.3-6.6-8.3-6.5h-17.9v-3.1
	C131.6,57.4,130.8,56.5,129.8,56.5L129.8,56.5z M81.8,115.5c-3.7,0-6.7-3-6.7-6.7s3-6.7,6.7-6.7s6.7,3,6.7,6.7l0,0
	C88.4,112.6,85.4,115.5,81.8,115.5C81.8,115.5,81.7,115.5,81.8,115.5L81.8,115.5z M128,99.5h-19.4c-1,0-1.8,0.8-1.8,1.8
	s0.8,1.8,1.8,1.8H128v3.9H91.9v-0.2c-1.2-5.6-6.6-9.2-12.2-8c-4,0.8-7.2,4-8,8v0.2h-5.3V95.5H128V99.5z M128,91.9H66.4V60.2H128
	V91.9z M145.5,115.5c-3.5,0-6.4-2.7-6.6-6.2v-0.1c0-0.2,0-0.5,0-0.7v-0.1c0.2-3.7,3.4-6.4,7.1-6.2c3.7,0.2,6.4,3.4,6.2,7.1
	C151.9,112.8,149,115.5,145.5,115.5L145.5,115.5z M164.9,97h-4.6v-2.8h4.6V97z M143.9,65.1h5.6c2.3,0,4.2,1.5,4.7,3.7l3.2,13.6
	h-13.5V65.1z M140.2,65.1v19.2c0,1,0.8,1.8,1.8,1.8l0,0h17.2l5.6,3.3v1.1h-6.4c-1,0-1.8,0.8-1.8,1.8l0,0v6.5c0,1,0.8,1.8,1.8,1.8
	l0,0h6.4v6.4h-9.2v-0.2c-1.2-5.6-6.6-9.2-12.2-8c-4,0.8-7.2,4-8,8v0.2h-3.6V65.1H140.2z"/>
<g class="st2">
	<path class="st3" d="M64.6,218h-9.4v-13.1h3.4v10.6h6.1L64.6,218L64.6,218z"/>
	<path class="st3" d="M80.7,211.5c0,2.1-0.6,3.7-1.8,5s-2.8,1.8-5,1.8c-2.1,0-3.8-0.6-4.9-1.8s-1.8-2.9-1.8-5s0.6-3.8,1.8-5
		c1.2-1.2,2.8-1.8,4.9-1.8s3.7,0.6,4.9,1.8C80.1,207.7,80.7,209.4,80.7,211.5z M76.3,214.8c0.3-0.4,0.6-0.9,0.7-1.4
		c0.2-0.5,0.2-1.2,0.2-1.9c0-0.8-0.1-1.5-0.3-2s-0.4-1-0.7-1.3c-0.3-0.4-0.6-0.6-1-0.8s-0.8-0.2-1.2-0.2c-0.4,0-0.8,0.1-1.2,0.2
		s-0.7,0.4-1,0.8c-0.3,0.3-0.5,0.8-0.7,1.4s-0.3,1.2-0.3,2s0.1,1.4,0.3,2c0.2,0.5,0.4,1,0.7,1.3s0.6,0.6,1,0.8s0.8,0.2,1.2,0.2
		s0.8-0.1,1.2-0.3C75.6,215.4,76,215.1,76.3,214.8z"/>
	<path class="st3" d="M96.3,217.3c-0.6,0.2-1.4,0.5-2.3,0.7c-1,0.2-1.9,0.3-2.9,0.3c-2.2,0-4-0.6-5.2-1.8c-1.3-1.2-1.9-2.9-1.9-5
		c0-2,0.6-3.7,1.9-4.9s3-1.9,5.3-1.9c0.9,0,1.7,0.1,2.5,0.2c0.8,0.2,1.6,0.5,2.6,0.9v3.1h-0.4c-0.2-0.1-0.4-0.3-0.7-0.5
		s-0.6-0.4-0.9-0.6c-0.3-0.2-0.7-0.3-1.2-0.5s-0.9-0.2-1.4-0.2c-0.6,0-1.1,0.1-1.6,0.3s-0.9,0.4-1.3,0.8c-0.4,0.4-0.7,0.8-0.9,1.3
		c-0.2,0.5-0.3,1.2-0.3,1.9c0,1.4,0.4,2.6,1.2,3.3s1.9,1.2,3.4,1.2c0.1,0,0.3,0,0.4,0s0.3,0,0.4,0v-2.6h-2.6v-2.5h6L96.3,217.3
		L96.3,217.3z"/>
	<path class="st3" d="M107.8,218h-7.7v-2.3h2.1v-8.4h-2.1V205h7.7v2.3h-2.1v8.4h2.1V218z"/>
	<path class="st3" d="M122.5,213.9c0,1.3-0.5,2.3-1.6,3.1s-2.6,1.2-4.5,1.2c-1.1,0-2-0.1-2.8-0.3s-1.6-0.4-2.3-0.7v-3.1h0.4
		c0.7,0.6,1.5,1,2.3,1.3s1.7,0.4,2.5,0.4c0.2,0,0.5,0,0.8-0.1s0.6-0.1,0.8-0.2c0.3-0.1,0.5-0.2,0.6-0.4s0.3-0.4,0.3-0.7
		s-0.1-0.5-0.4-0.7c-0.2-0.2-0.6-0.4-1.1-0.5s-1-0.2-1.6-0.3c-0.5-0.1-1.1-0.2-1.5-0.4c-1.1-0.4-1.9-0.8-2.4-1.5
		c-0.5-0.6-0.7-1.4-0.7-2.3c0-1.2,0.5-2.2,1.6-3s2.5-1.2,4.2-1.2c0.9,0,1.7,0.1,2.6,0.3c0.8,0.2,1.6,0.4,2.2,0.6v3h-0.4
		c-0.5-0.4-1.2-0.8-1.9-1.1c-0.8-0.3-1.5-0.4-2.3-0.4c-0.3,0-0.6,0-0.8,0.1c-0.3,0-0.5,0.1-0.8,0.2c-0.2,0.1-0.4,0.2-0.6,0.4
		s-0.2,0.4-0.2,0.6c0,0.3,0.1,0.6,0.4,0.8s0.8,0.4,1.5,0.5c0.5,0.1,0.9,0.2,1.4,0.3s0.9,0.2,1.4,0.4c1,0.3,1.7,0.8,2.2,1.3
		S122.5,213,122.5,213.9z"/>
	<path class="st3" d="M136.4,207.4h-4.1V218H129v-10.6h-4.1v-2.5h11.5V207.4z"/>
	<path class="st3" d="M147,218h-7.7v-2.3h2.1v-8.4h-2.1V205h7.7v2.3h-2.1v8.4h2.1V218z"/>
	<path class="st3" d="M157.1,218.3c-1,0-1.9-0.1-2.7-0.4s-1.5-0.7-2.1-1.3s-1-1.3-1.4-2.1s-0.5-1.8-0.5-2.9c0-1,0.2-2,0.5-2.8
		s0.8-1.6,1.4-2.2c0.6-0.6,1.3-1,2.1-1.3s1.8-0.5,2.8-0.5c0.6,0,1,0,1.5,0.1c0.4,0.1,0.9,0.1,1.2,0.2c0.4,0.1,0.7,0.2,1.1,0.4
		c0.3,0.1,0.6,0.3,0.8,0.4v3.2h-0.4c-0.2-0.1-0.4-0.3-0.6-0.5s-0.5-0.4-0.8-0.6c-0.3-0.2-0.7-0.3-1-0.5s-0.8-0.2-1.2-0.2
		c-0.5,0-0.9,0.1-1.4,0.2s-0.8,0.4-1.2,0.7c-0.3,0.3-0.6,0.8-0.8,1.3s-0.3,1.2-0.3,2s0.1,1.5,0.3,2.1s0.5,1,0.9,1.3s0.8,0.6,1.2,0.7
		s0.9,0.2,1.3,0.2c0.4,0,0.8-0.1,1.2-0.2s0.8-0.3,1.1-0.5s0.6-0.4,0.8-0.5s0.4-0.4,0.6-0.5h0.4v3.1c-0.3,0.1-0.6,0.3-0.9,0.4
		s-0.6,0.2-0.9,0.3c-0.4,0.1-0.8,0.2-1.2,0.3S157.7,218.3,157.1,218.3z"/>
	<path class="st3" d="M176.1,213.9c0,1.3-0.5,2.3-1.6,3.1s-2.6,1.2-4.5,1.2c-1.1,0-2-0.1-2.8-0.3s-1.6-0.4-2.3-0.7v-3.1h0.4
		c0.7,0.6,1.5,1,2.3,1.3s1.7,0.4,2.5,0.4c0.2,0,0.5,0,0.8-0.1s0.6-0.1,0.8-0.2c0.3-0.1,0.5-0.2,0.6-0.4s0.3-0.4,0.3-0.7
		s-0.1-0.5-0.4-0.7c-0.2-0.2-0.6-0.4-1.1-0.5s-1-0.2-1.6-0.3c-0.5-0.1-1.1-0.2-1.5-0.4c-1.1-0.4-1.9-0.8-2.4-1.5
		c-0.5-0.6-0.7-1.4-0.7-2.3c0-1.2,0.5-2.2,1.6-3s2.5-1.2,4.2-1.2c0.9,0,1.7,0.1,2.6,0.3c0.8,0.2,1.6,0.4,2.2,0.6v3h-0.4
		c-0.5-0.4-1.2-0.8-1.9-1.1c-0.8-0.3-1.5-0.4-2.3-0.4c-0.3,0-0.6,0-0.8,0.1c-0.3,0-0.5,0.1-0.8,0.2c-0.2,0.1-0.4,0.2-0.6,0.4
		c-0.2,0.2-0.2,0.4-0.2,0.6c0,0.3,0.1,0.6,0.4,0.8c0.3,0.2,0.8,0.4,1.5,0.5c0.5,0.1,0.9,0.2,1.4,0.3s0.9,0.2,1.4,0.4
		c1,0.3,1.7,0.8,2.2,1.3S176.1,213,176.1,213.9z"/>
</g>
</svg>
