<?xml version="1.0" encoding="utf-8"?>
<!-- Generator: Adobe Illustrator 20.0.0, SVG Export Plug-In . SVG Version: 6.00 Build 0)  -->
<svg version="1.1" id="Layer_1" xmlns="http://www.w3.org/2000/svg" xmlns:xlink="http://www.w3.org/1999/xlink" x="0px" y="0px"
	 viewBox="0 0 233.3 263.4" style="enable-background:new 0 0 233.3 263.4;" xml:space="preserve">
<style type="text/css">
	.st0{fill:none;stroke:#FFFFFF;stroke-width:4;stroke-miterlimit:10;}
	.st1{fill:#FFFFFF;stroke:#FFFFFF;stroke-miterlimit:10;}
	.st2{enable-background:new    ;}
	.st3{fill:#FFFFFF;}
</style>
<title>manufacturing</title>
<circle id="_Path_" class="st0" cx="115" cy="86.1" r="76.5"/>
<path id="_Compound_Path_" class="st1" d="M66,69.1c-0.5,0.4-0.8,0.9-0.8,1.5v43.2c0,1,0.9,1.8,1.8,1.8h96.1c1,0,1.8-0.9,1.8-1.8
	l0,0V70.7c0-0.6-0.3-1.1-0.8-1.5l-33.8-25.5c-0.7-0.5-1.5-0.5-2.2,0l-6,4.6l-6-4.6c-0.7-0.5-1.5-0.5-2.2,0l-5.9,4.4l-5.9-4.4
	c-0.7-0.5-1.5-0.5-2.2,0L66,69.1z M105.9,111.9h-9.6V92.1h9.6C105.9,92.1,105.9,111.9,105.9,111.9z M129.3,47.3l32.1,24.2v40.4
	h-10.5V70.7c0-0.6-0.3-1.1-0.8-1.5l-24.9-18.8L129.3,47.3z M115,47.3l32.2,24.2v40.4H137V70.7c0-0.6-0.3-1.1-0.8-1.5l-25.1-19
	L115,47.3z M133.3,71.5v40.4h-23.6V90.2c0-1-0.9-1.8-1.8-1.8H94.5c-1,0-1.8,0.9-1.8,1.8v21.6H69V71.5l32.2-24.2L133.3,71.5z"/>
<g class="st2">
	<path class="st3" d="M33,218.7h-3.4v-8.8l-2.4,5.7h-2.3l-2.4-5.7v8.8h-3.2v-13.1h3.9l2.9,6.6l2.9-6.6h4V218.7z"/>
	<path class="st3" d="M49.8,218.7h-3.5l-0.9-2.6h-4.8l-0.9,2.6h-3.4l4.8-13.1H45L49.8,218.7z M44.6,213.7L43,209l-1.6,4.7H44.6z"/>
	<path class="st3" d="M65,218.7h-3.3l-5.6-9v9H53v-13.1h4l4.8,7.5v-7.5H65V218.7z"/>
	<path class="st3" d="M81.3,214c0,1.6-0.5,2.9-1.5,3.7s-2.4,1.3-4.4,1.3s-3.4-0.4-4.3-1.3s-1.5-2.1-1.5-3.7v-8.4H73v8.2
		c0,0.9,0.2,1.6,0.6,2s1,0.7,1.9,0.7c0.8,0,1.5-0.2,1.9-0.6s0.6-1.1,0.6-2.1v-8.2h3.4L81.3,214L81.3,214z"/>
	<path class="st3" d="M95.2,208.2h-6v2.4h5.6v2.5h-5.6v5.6h-3.4v-13.1h9.4V208.2z"/>
	<path class="st3" d="M111.1,218.7h-3.5l-0.9-2.6h-4.8l-0.9,2.6h-3.4l4.8-13.1h3.9L111.1,218.7z M105.8,213.7l-1.6-4.7l-1.6,4.7
		H105.8z"/>
	<path class="st3" d="M120.3,219c-1,0-1.9-0.1-2.7-0.4s-1.5-0.7-2.1-1.3s-1.1-1.3-1.4-2.1s-0.5-1.8-0.5-2.9c0-1,0.2-2,0.5-2.8
		s0.8-1.6,1.4-2.2c0.6-0.6,1.3-1,2.1-1.3s1.8-0.5,2.8-0.5c0.6,0,1,0,1.5,0.1c0.4,0.1,0.9,0.1,1.2,0.2c0.4,0.1,0.7,0.2,1.1,0.4
		c0.3,0.1,0.6,0.3,0.8,0.4v3.2h-0.4c-0.2-0.1-0.4-0.3-0.6-0.5s-0.5-0.4-0.8-0.6c-0.3-0.2-0.7-0.3-1-0.5s-0.8-0.2-1.2-0.2
		c-0.5,0-0.9,0.1-1.4,0.2s-0.8,0.4-1.2,0.7c-0.3,0.3-0.6,0.8-0.8,1.3s-0.3,1.2-0.3,2s0.1,1.5,0.3,2.1s0.5,1,0.9,1.3s0.8,0.6,1.2,0.7
		s0.9,0.2,1.3,0.2s0.8-0.1,1.2-0.2s0.8-0.3,1.1-0.5c0.3-0.2,0.6-0.4,0.8-0.5s0.4-0.4,0.6-0.5h0.4v3.1c-0.3,0.1-0.6,0.3-0.9,0.4
		s-0.6,0.2-0.9,0.3c-0.4,0.1-0.8,0.2-1.2,0.3S120.9,219,120.3,219z"/>
	<path class="st3" d="M139,208.2h-4v10.6h-3.4v-10.6h-4.1v-2.5H139V208.2z"/>
	<path class="st3" d="M154,214c0,1.6-0.5,2.9-1.5,3.7s-2.4,1.3-4.4,1.3s-3.4-0.4-4.3-1.3s-1.5-2.1-1.5-3.7v-8.4h3.4v8.2
		c0,0.9,0.2,1.6,0.6,2s1,0.7,1.9,0.7c0.8,0,1.5-0.2,1.8-0.6s0.6-1.1,0.6-2.1v-8.2h3.4V214z"/>
	<path class="st3" d="M171.1,218.7H167l-3.6-4.8h-1.6v4.8h-3.4v-13.1h5.7c0.8,0,1.4,0,2,0.1s1.1,0.3,1.6,0.6s0.9,0.7,1.2,1.1
		c0.3,0.5,0.4,1.1,0.4,1.8c0,1-0.2,1.8-0.7,2.4s-1.1,1.1-1.9,1.5L171.1,218.7z M165.9,209.6c0-0.3-0.1-0.6-0.2-0.8s-0.4-0.4-0.7-0.6
		c-0.2-0.1-0.5-0.2-0.8-0.2s-0.7,0-1.1,0h-1.2v3.5h1c0.5,0,1,0,1.4-0.1s0.7-0.2,0.9-0.4s0.4-0.4,0.5-0.6
		C165.8,210.3,165.9,210,165.9,209.6z"/>
	<path class="st3" d="M181.1,218.7h-7.7v-2.3h2.1V208h-2.1v-2.3h7.7v2.3H179v8.4h2.1V218.7z"/>
	<path class="st3" d="M197.2,218.7h-3.3l-5.6-9v9h-3.1v-13.1h4l4.8,7.5v-7.5h3.1v13.1H197.2z"/>
	<path class="st3" d="M213.5,218c-0.6,0.2-1.4,0.5-2.3,0.7c-1,0.2-1.9,0.3-2.9,0.3c-2.2,0-4-0.6-5.2-1.8c-1.3-1.2-1.9-2.9-1.9-5
		c0-2,0.6-3.7,1.9-4.9c1.3-1.2,3-1.9,5.3-1.9c0.9,0,1.7,0.1,2.5,0.2c0.8,0.2,1.6,0.5,2.6,0.9v3.1h-0.4c-0.2-0.1-0.4-0.3-0.7-0.5
		s-0.6-0.4-0.9-0.6c-0.3-0.2-0.7-0.3-1.2-0.5s-0.9-0.2-1.4-0.2c-0.6,0-1.1,0.1-1.6,0.3s-0.9,0.4-1.3,0.8c-0.4,0.4-0.7,0.8-0.9,1.3
		s-0.3,1.2-0.3,1.9c0,1.4,0.4,2.6,1.2,3.3s1.9,1.2,3.4,1.2c0.1,0,0.3,0,0.4,0s0.3,0,0.4,0V214h-2.6v-2.5h6v6.5H213.5z"/>
</g>
<g class="st2">
	<path class="st3" d="M44.5,240.3h-4.2l-1.2-1.1c-0.6,0.5-1.2,0.8-1.9,1s-1.5,0.3-2.2,0.3c-1.6,0-2.9-0.4-3.8-1.1
		c-0.9-0.7-1.4-1.7-1.4-2.9c0-0.5,0.1-0.9,0.2-1.3s0.3-0.7,0.6-1c0.2-0.3,0.5-0.5,0.8-0.7s0.6-0.4,0.9-0.5c-0.2-0.2-0.5-0.4-0.7-0.6
		s-0.4-0.4-0.6-0.7c-0.2-0.2-0.3-0.5-0.4-0.7s-0.1-0.6-0.1-0.9c0-0.4,0.1-0.8,0.3-1.2c0.2-0.4,0.4-0.7,0.8-1s0.9-0.5,1.5-0.7
		c0.6-0.2,1.3-0.3,2.2-0.3c0.7,0,1.3,0.1,1.9,0.2s1,0.3,1.4,0.6c0.4,0.2,0.6,0.5,0.8,0.9s0.3,0.7,0.3,1.1c0,0.3,0,0.6-0.1,0.9
		c-0.1,0.3-0.2,0.6-0.4,0.9c-0.2,0.3-0.5,0.6-0.9,0.9s-0.9,0.5-1.5,0.7l2.7,2.4v-2.8h3.3v1c0,0.7-0.1,1.4-0.4,2
		c-0.2,0.6-0.6,1.2-1,1.6l3.3,2.9v0.1H44.5z M37.6,237.7l-3.7-3.3c-0.1,0.1-0.3,0.3-0.4,0.6c-0.2,0.3-0.2,0.6-0.2,1s0.1,0.7,0.2,1
		s0.3,0.5,0.6,0.7c0.2,0.2,0.5,0.3,0.8,0.4c0.3,0.1,0.6,0.1,0.8,0.1c0.4,0,0.8,0,1.1-0.1C37,238.1,37.3,237.9,37.6,237.7z
		 M36.2,230.2c0-0.3,0-0.5-0.1-0.7s-0.2-0.3-0.3-0.4c-0.1-0.1-0.3-0.2-0.4-0.2s-0.3,0-0.4,0c-0.1,0-0.2,0-0.3,0s-0.3,0.1-0.4,0.2
		c-0.1,0.1-0.2,0.2-0.3,0.4s-0.1,0.4-0.1,0.6c0,0.3,0.1,0.7,0.4,1s0.6,0.7,1.1,1c0.3-0.3,0.6-0.5,0.7-0.9S36.2,230.5,36.2,230.2z"/>
	<path class="st3" d="M65.7,231.4c0,0.6-0.1,1.2-0.3,1.7c-0.2,0.6-0.5,1-0.9,1.4c-0.5,0.5-1.1,0.9-1.7,1.2s-1.4,0.4-2.4,0.4h-2.1
		v4.3h-3.4v-13.1h5.6c0.8,0,1.5,0.1,2.1,0.2s1.1,0.4,1.5,0.6c0.5,0.3,0.9,0.8,1.2,1.3S65.7,230.6,65.7,231.4z M62.2,231.4
		c0-0.4-0.1-0.7-0.3-1s-0.4-0.5-0.7-0.6c-0.4-0.1-0.7-0.2-1-0.2s-0.8,0-1.3,0h-0.6v3.9h1c0.6,0,1,0,1.4-0.1s0.7-0.2,0.9-0.4
		s0.4-0.4,0.5-0.7C62.1,232.1,62.2,231.8,62.2,231.4z"/>
	<path class="st3" d="M82.1,240.3H78l-3.6-4.8h-1.6v4.8h-3.4v-13.1h5.7c0.8,0,1.4,0,2,0.1s1.1,0.3,1.6,0.6s0.9,0.7,1.2,1.1
		c0.3,0.5,0.4,1.1,0.4,1.8c0,1-0.2,1.8-0.7,2.4s-1.1,1.1-1.9,1.5L82.1,240.3z M76.8,231.2c0-0.3-0.1-0.6-0.2-0.8s-0.4-0.4-0.7-0.6
		c-0.2-0.1-0.5-0.2-0.8-0.2s-0.7,0-1.1,0h-1.2v3.5h1c0.5,0,1,0,1.4-0.1s0.7-0.2,0.9-0.4c0.2-0.2,0.4-0.4,0.5-0.6
		C76.8,231.9,76.8,231.6,76.8,231.2z"/>
	<path class="st3" d="M97.7,233.8c0,2.1-0.6,3.7-1.8,5s-2.8,1.8-5,1.8c-2.1,0-3.8-0.6-4.9-1.8s-1.8-2.9-1.8-5s0.6-3.8,1.8-5
		c1.2-1.2,2.8-1.8,4.9-1.8s3.7,0.6,4.9,1.8C97.1,230,97.7,231.7,97.7,233.8z M93.2,237.1c0.3-0.4,0.6-0.9,0.7-1.4
		c0.2-0.5,0.2-1.2,0.2-1.9c0-0.8-0.1-1.5-0.3-2s-0.4-1-0.7-1.3c-0.3-0.4-0.6-0.6-1-0.8s-0.8-0.2-1.2-0.2c-0.4,0-0.8,0.1-1.2,0.2
		s-0.7,0.4-1,0.8c-0.3,0.3-0.5,0.8-0.7,1.4s-0.3,1.2-0.3,2s0.1,1.4,0.3,2c0.2,0.5,0.4,1,0.7,1.3s0.6,0.6,1,0.8s0.8,0.2,1.2,0.2
		s0.8-0.1,1.2-0.3C92.6,237.7,92.9,237.4,93.2,237.1z"/>
	<path class="st3" d="M114.1,233.8c0,1.2-0.3,2.3-0.8,3.3s-1.3,1.7-2.1,2.2c-0.6,0.4-1.3,0.7-2.1,0.8s-1.7,0.2-2.7,0.2h-4.6v-13.1
		h4.7c1.1,0,2,0.1,2.8,0.3s1.4,0.4,2,0.8c0.9,0.6,1.6,1.3,2.1,2.2S114.1,232.5,114.1,233.8z M110.6,233.8c0-0.9-0.2-1.6-0.5-2.2
		c-0.3-0.6-0.8-1.1-1.5-1.4c-0.3-0.2-0.7-0.3-1.1-0.3c-0.4-0.1-0.9-0.1-1.6-0.1H105v8.2h0.9c0.8,0,1.4,0,1.8-0.1s0.7-0.2,1.1-0.4
		c0.6-0.4,1.1-0.8,1.4-1.4C110.4,235.3,110.6,234.6,110.6,233.8z"/>
	<path class="st3" d="M129.5,235.6c0,1.6-0.5,2.9-1.5,3.7s-2.4,1.3-4.4,1.3s-3.4-0.4-4.3-1.3s-1.5-2.1-1.5-3.7v-8.4h3.4v8.2
		c0,0.9,0.2,1.6,0.6,2s1,0.7,1.9,0.7c0.8,0,1.5-0.2,1.9-0.6s0.6-1.1,0.6-2.1v-8.2h3.4L129.5,235.6L129.5,235.6z"/>
	<path class="st3" d="M140,240.6c-1,0-1.9-0.1-2.7-0.4s-1.5-0.7-2.1-1.3s-1-1.3-1.4-2.1s-0.5-1.8-0.5-2.9c0-1,0.2-2,0.5-2.8
		s0.8-1.6,1.4-2.2c0.6-0.6,1.3-1,2.1-1.3s1.8-0.5,2.8-0.5c0.6,0,1,0,1.5,0.1c0.4,0.1,0.9,0.1,1.2,0.2c0.4,0.1,0.7,0.2,1.1,0.4
		c0.3,0.1,0.6,0.3,0.8,0.4v3.2h-0.4c-0.2-0.1-0.4-0.3-0.6-0.5s-0.5-0.4-0.8-0.6c-0.3-0.2-0.7-0.3-1-0.5s-0.8-0.2-1.2-0.2
		c-0.5,0-0.9,0.1-1.4,0.2s-0.8,0.4-1.2,0.7c-0.3,0.3-0.6,0.8-0.8,1.3s-0.3,1.2-0.3,2s0.1,1.5,0.3,2.1s0.5,1,0.9,1.3s0.8,0.6,1.2,0.7
		s0.9,0.2,1.3,0.2c0.4,0,0.8-0.1,1.2-0.2s0.8-0.3,1.1-0.5s0.6-0.4,0.8-0.5s0.4-0.4,0.6-0.5h0.4v3.1c-0.3,0.1-0.6,0.3-0.9,0.4
		s-0.6,0.2-0.9,0.3c-0.4,0.1-0.8,0.2-1.2,0.3S140.7,240.6,140,240.6z"/>
	<path class="st3" d="M158.8,229.8h-4.1v10.6h-3.4v-10.6h-4.1v-2.5h11.5v2.5H158.8z"/>
	<path class="st3" d="M169.3,240.3h-7.7V238h2.1v-8.4h-2.1v-2.3h7.7v2.3h-2.1v8.4h2.1V240.3z"/>
	<path class="st3" d="M186.2,233.8c0,2.1-0.6,3.7-1.8,5s-2.8,1.8-5,1.8c-2.1,0-3.8-0.6-4.9-1.8s-1.8-2.9-1.8-5s0.6-3.8,1.8-5
		s2.8-1.8,4.9-1.8c2.1,0,3.7,0.6,4.9,1.8C185.6,230,186.2,231.7,186.2,233.8z M181.8,237.1c0.3-0.4,0.6-0.9,0.7-1.4
		c0.2-0.5,0.2-1.2,0.2-1.9c0-0.8-0.1-1.5-0.3-2s-0.4-1-0.7-1.3c-0.3-0.4-0.6-0.6-1-0.8s-0.8-0.2-1.2-0.2s-0.8,0.1-1.2,0.2
		s-0.7,0.4-1,0.8c-0.3,0.3-0.5,0.8-0.7,1.4s-0.3,1.2-0.3,2s0.1,1.4,0.3,2c0.2,0.5,0.4,1,0.7,1.3s0.6,0.6,1,0.8s0.8,0.2,1.2,0.2
		s0.8-0.1,1.2-0.3C181.1,237.7,181.5,237.4,181.8,237.1z"/>
	<path class="st3" d="M202.1,240.3h-3.3l-5.6-9v9h-3.1v-13.1h4l4.8,7.5v-7.5h3.1v13.1H202.1z"/>
</g>
</svg>
