<?xml version="1.0" encoding="utf-8"?>
<!-- Generator: Adobe Illustrator 20.0.0, SVG Export Plug-In . SVG Version: 6.00 Build 0)  -->
<svg version="1.1" id="Layer_1" xmlns="http://www.w3.org/2000/svg" xmlns:xlink="http://www.w3.org/1999/xlink" x="0px" y="0px"
	 viewBox="0 0 233.3 263.4" style="enable-background:new 0 0 233.3 263.4;" xml:space="preserve">
<style type="text/css">
	.st0{enable-background:new    ;}
	.st1{fill:#FFFFFF;}
	.st2{fill:none;stroke:#FFFFFF;stroke-width:4;stroke-miterlimit:10;}
	.st3{fill:#FFFFFF;stroke:#FFFFFF;stroke-miterlimit:10;}
</style>
<title>mining</title>
<g class="st0">
	<path class="st1" d="M92.5,217.4h-3.4v-8.8l-2.4,5.7h-2.3l-2.4-5.7v8.8h-3.2v-13.1h3.9l2.9,6.6l2.9-6.6h3.9L92.5,217.4L92.5,217.4z
		"/>
	<path class="st1" d="M104,217.4h-7.7v-2.3h2.1v-8.4h-2.1v-2.3h7.7v2.3h-2.1v8.4h2.1V217.4z"/>
	<path class="st1" d="M119.7,217.4h-3.3l-5.6-9v9h-3.1v-13.1h4l4.8,7.5v-7.5h3.1L119.7,217.4L119.7,217.4z"/>
	<path class="st1" d="M131.2,217.4h-7.7v-2.3h2.1v-8.4h-2.1v-2.3h7.7v2.3H129v8.4h2.1L131.2,217.4L131.2,217.4z"/>
	<path class="st1" d="M146.9,217.4h-3.3l-5.6-9v9h-3v-13.1h4l4.8,7.5v-7.5h3.1L146.9,217.4L146.9,217.4z"/>
	<path class="st1" d="M162.8,216.7c-0.6,0.2-1.4,0.5-2.3,0.7c-1,0.2-1.9,0.3-2.9,0.3c-2.2,0-4-0.6-5.2-1.8c-1.3-1.2-1.9-2.9-1.9-5
		c0-2,0.6-3.7,1.9-4.9c1.3-1.2,3-1.9,5.3-1.9c0.9,0,1.7,0.1,2.5,0.2c0.8,0.2,1.6,0.5,2.6,0.9v3.1h-0.4c-0.2-0.1-0.4-0.3-0.7-0.5
		s-0.6-0.4-0.9-0.6c-0.3-0.2-0.7-0.3-1.2-0.5s-0.9-0.2-1.4-0.2c-0.6,0-1.1,0.1-1.6,0.3s-0.9,0.4-1.3,0.8c-0.4,0.4-0.7,0.8-0.9,1.3
		s-0.3,1.2-0.3,1.9c0,1.4,0.4,2.6,1.2,3.3s1.9,1.2,3.4,1.2c0.1,0,0.3,0,0.4,0s0.3,0,0.4,0v-2.6h-2.6v-2.5h6v6.5H162.8z"/>
</g>
<circle id="_Path_" class="st2" cx="120.8" cy="85.1" r="77.8"/>
<g id="_Group_">
	<g id="_Group_2">
		<path id="_Compound_Path_" class="st3" d="M134,51.9l-4.2-0.7c-0.4-1.4-1-2.7-1.7-4l2.5-3.4c1-1.5,0.9-3.5-0.4-4.7l-3.7-3.7
			c-0.7-0.7-1.6-1.1-2.6-1.1c-0.8,0-1.5,0.2-2.1,0.7l-3.5,2.5c-1.3-0.7-2.7-1.3-4.2-1.7l-0.7-4.1c-0.3-1.8-1.8-3.2-3.6-3.2h-5.2
			c-1.8,0-3.3,1.3-3.6,3.1l-0.7,4.2c-1.4,0.4-2.7,1-4,1.7L92.9,35c-1.5-1.1-3.6-0.9-4.8,0.5l-3.7,3.7c-1.3,1.3-1.4,3.3-0.4,4.7
			l2.5,3.5c-0.7,1.3-1.2,2.7-1.7,4.1L80.6,52c-1.8,0.3-3.1,1.8-3.1,3.6v5.2c0,1.8,1.3,3.3,3.1,3.6l4.2,0.7c0.4,1.4,1,2.7,1.7,4
			l-2.4,3.4c-1,1.5-0.9,3.5,0.4,4.7l3.7,3.7c1.3,1.3,3.3,1.4,4.7,0.4l3.5-2.5c1.3,0.7,2.6,1.2,3.9,1.6l0.7,4.2
			c0.3,1.8,1.8,3.1,3.6,3.1h5.2c1.8,0,3.3-1.3,3.6-3.1l0.7-4.2c1.4-0.4,2.7-1,4-1.7l3.4,2.5c1.5,1,3.5,0.9,4.7-0.4l3.7-3.7
			c1.3-1.3,1.4-3.3,0.4-4.7l-2.4-3.5c0.7-1.3,1.2-2.6,1.7-4l4.2-0.7c1.8-0.3,3.1-1.8,3.1-3.6v-5.3C137,53.7,135.7,52.2,134,51.9
			L134,51.9z M133.7,60.7c0,0.2-0.1,0.3-0.3,0.3l-5.2,0.9c-0.7,0.1-1.2,0.6-1.3,1.2c-0.5,1.8-1.2,3.6-2.2,5.2
			c-0.3,0.6-0.3,1.3,0.1,1.8l3.1,4.3c0.1,0.1,0.1,0.3,0,0.4l-3.8,3.7c-0.1,0.1-0.1,0.1-0.2,0.1s-0.1,0-0.2-0.1l-4.3-3.1
			c-0.5-0.4-1.3-0.4-1.8-0.1c-1.6,1-3.4,1.7-5.2,2.2c-0.6,0.2-1.1,0.7-1.2,1.3l-0.8,5.2c0,0.2-0.2,0.3-0.3,0.3h-5.2
			c-0.2,0-0.3-0.1-0.3-0.3l-0.9-5.2c-0.1-0.7-0.6-1.2-1.2-1.3c-1.8-0.5-3.5-1.2-5.1-2.1c-0.3-0.1-0.5-0.2-0.8-0.2
			c-0.4,0-0.7,0.1-1,0.3L91,78.7c-0.1,0-0.1,0.1-0.2,0.1s-0.2,0-0.2-0.1L86.9,75c-0.1-0.1-0.1-0.3,0-0.4l3-4.3
			c0.4-0.5,0.4-1.3,0.1-1.8c-1-1.6-1.7-3.4-2.2-5.2c-0.2-0.6-0.7-1.1-1.3-1.2l-5.2-0.9c-0.2,0-0.3-0.2-0.3-0.3v-5.2
			c0-0.2,0.1-0.3,0.3-0.3l5.2-0.9c0.7-0.1,1.2-0.6,1.4-1.2c0.5-1.8,1.2-3.6,2.1-5.2c0.3-0.6,0.3-1.3-0.1-1.8L86.8,42
			c-0.1-0.1-0.1-0.3,0-0.4l3.7-3.7c0.1-0.1,0.1-0.1,0.2-0.1s0.1,0,0.2,0.1l4.3,3c0.5,0.4,1.3,0.4,1.8,0.1c1.6-1,3.4-1.7,5.2-2.2
			c0.6-0.2,1.1-0.7,1.2-1.3l0.9-5.2c0-0.2,0.2-0.3,0.3-0.3h5.2c0.2,0,0.3,0.1,0.3,0.3l0.9,5.3c0.1,0.7,0.6,1.2,1.2,1.4
			c1.9,0.5,3.7,1.2,5.3,2.2c0.6,0.3,1.3,0.3,1.8-0.1l4.3-3.1c0.1,0,0.1-0.1,0.2-0.1s0.2,0,0.2,0.1l3.7,3.7c0.1,0.1,0.1,0.3,0,0.4
			l-3.1,4.3c-0.4,0.5-0.4,1.3-0.1,1.8c1,1.6,1.7,3.4,2.2,5.2c0.2,0.6,0.7,1.1,1.3,1.2l5.2,0.9c0.2,0,0.3,0.2,0.3,0.3L133.7,60.7
			L133.7,60.7z"/>
	</g>
	<path id="_Compound_Path_2" class="st3" d="M107.3,45.3c-7.1,0-12.8,5.7-12.8,12.8s5.7,12.8,12.8,12.8c7.1,0,12.8-5.7,12.8-12.8
		l0,0C120.1,51,114.4,45.3,107.3,45.3z M107.3,67.6c-5.2,0-9.5-4.2-9.5-9.5c0-5.2,4.2-9.5,9.5-9.5c5.2,0,9.5,4.2,9.5,9.5l0,0
		C116.8,63.3,112.6,67.6,107.3,67.6z"/>
</g>
<g id="_Group_3">
	<g id="_Group_4">
		<path id="_Compound_Path_3" class="st3" d="M164.7,102.5l-4.2-0.7c-0.4-1.4-1-2.7-1.7-4l2.5-3.4c1-1.5,0.9-3.5-0.4-4.7l-3.7-3.7
			c-0.7-0.7-1.6-1.1-2.6-1.1c-0.8,0-1.5,0.2-2.1,0.7l-3.4,2.4c-1.3-0.7-2.7-1.3-4.2-1.7l-0.7-4.1c-0.3-1.8-1.8-3.1-3.6-3.1h-5.2
			c-1.8,0-3.3,1.3-3.6,3.1l-0.7,4.2c-1.4,0.4-2.7,1-4,1.7l-3.4-2.5c-1.5-1-3.5-0.9-4.7,0.4l-3.7,3.7c-1.3,1.3-1.4,3.3-0.4,4.7
			l2.5,3.5c-0.7,1.3-1.2,2.7-1.7,4.1l-4.1,0.7c-1.8,0.3-3.1,1.8-3.1,3.6v5.2c0,1.8,1.3,3.3,3.1,3.6l4.2,0.7c0.4,1.4,1,2.7,1.7,4
			l-2.4,3.4c-1,1.5-0.9,3.5,0.4,4.7l3.7,3.7c1.3,1.3,3.3,1.4,4.7,0.4l3.5-2.5c1.3,0.7,2.6,1.2,3.9,1.6l0.7,4.2
			c0.3,1.8,1.8,3.1,3.6,3.1h5.2c1.8,0,3.3-1.3,3.6-3.1l0.7-4.2c1.4-0.4,2.7-1,4-1.7l3.4,2.5c1.5,1,3.5,0.9,4.7-0.4l3.7-3.7
			c1.3-1.3,1.4-3.3,0.4-4.7l-2.5-3.5c0.7-1.3,1.2-2.6,1.7-4l4.2-0.7c1.8-0.3,3.1-1.8,3.1-3.6v-5.2
			C167.8,104.4,166.5,102.9,164.7,102.5L164.7,102.5z M164.5,111.4c0,0.2-0.1,0.3-0.3,0.3l-5.2,0.9c-0.7,0.1-1.2,0.6-1.3,1.2
			c-0.5,1.8-1.2,3.6-2.2,5.2c-0.3,0.6-0.3,1.3,0.1,1.8l3.1,4.3c0.1,0.1,0.1,0.3,0,0.4l-3.7,3.7c-0.1,0.1-0.1,0.1-0.2,0.1
			c-0.1,0-0.1,0-0.2-0.1l-4.3-3.1c-0.5-0.4-1.3-0.4-1.8-0.1c-1.6,1-3.4,1.7-5.2,2.2c-0.6,0.2-1.1,0.7-1.2,1.3l-0.9,5.2
			c0,0.2-0.2,0.3-0.3,0.3h-5.3c-0.2,0-0.3-0.1-0.3-0.3l-0.9-5.2c-0.1-0.6-0.6-1.2-1.2-1.3c-1.8-0.5-3.5-1.2-5.1-2.1
			c-0.3-0.1-0.5-0.2-0.8-0.2c-0.4,0-0.7,0.1-1,0.3l-4.4,3.1c-0.1,0-0.1,0.1-0.2,0.1s-0.2,0-0.2-0.1l-3.7-3.7c-0.1-0.1-0.1-0.3,0-0.4
			l3-4.3c0.4-0.5,0.4-1.3,0.1-1.8c-1-1.6-1.7-3.4-2.2-5.2c-0.2-0.6-0.7-1.1-1.3-1.2l-5.2-0.9c-0.2,0-0.3-0.2-0.3-0.3v-5.2
			c0-0.2,0.1-0.3,0.3-0.3l5.2-0.9c0.7-0.1,1.2-0.6,1.4-1.2c0.5-1.8,1.2-3.6,2.1-5.2c0.3-0.6,0.3-1.3-0.1-1.8l-3.1-4.3
			c-0.1-0.1-0.1-0.3,0-0.4l3.7-3.7c0.1-0.1,0.1-0.1,0.2-0.1s0.1,0,0.2,0.1l4.3,3c0.5,0.4,1.3,0.4,1.8,0.1c1.6-1,3.4-1.7,5.2-2.2
			c0.6-0.2,1.1-0.7,1.2-1.3l1-5.3c0-0.1,0.2-0.3,0.3-0.3h5.2c0.2,0,0.3,0.1,0.3,0.3L142,88c0.1,0.7,0.6,1.2,1.2,1.4
			c1.9,0.5,3.7,1.2,5.3,2.2c0.6,0.3,1.3,0.3,1.8-0.1l4.3-3.1c0.1,0,0.1-0.1,0.2-0.1c0.1,0,0.2,0,0.2,0.1l3.7,3.7
			c0.1,0.1,0.1,0.3,0,0.4l-3.1,4.3c-0.4,0.5-0.4,1.3-0.1,1.8c1,1.6,1.7,3.4,2.2,5.2c0.2,0.6,0.7,1.1,1.3,1.2l5.2,0.9
			c0.2,0,0.3,0.2,0.3,0.3V111.4L164.5,111.4z"/>
	</g>
	<path id="_Compound_Path_4" class="st3" d="M138.1,95.9c-7.1,0-12.8,5.7-12.8,12.8s5.7,12.8,12.8,12.8s12.8-5.7,12.8-12.8l0,0
		C150.9,101.7,145.2,95.9,138.1,95.9z M138.1,118.2c-5.2,0-9.5-4.2-9.5-9.5s4.2-9.5,9.5-9.5c5.2,0,9.5,4.2,9.5,9.5l0,0
		C147.5,114,143.3,118.2,138.1,118.2L138.1,118.2z"/>
</g>
</svg>
