<?xml version="1.0" encoding="utf-8"?>
<!-- Generator: Adobe Illustrator 20.0.0, SVG Export Plug-In . SVG Version: 6.00 Build 0)  -->
<svg version="1.1" id="Layer_1" xmlns="http://www.w3.org/2000/svg" xmlns:xlink="http://www.w3.org/1999/xlink" x="0px" y="0px"
	 viewBox="0 0 233.3 263.4" style="enable-background:new 0 0 233.3 263.4;" xml:space="preserve">
<style type="text/css">
	.st0{enable-background:new    ;}
	.st1{fill:#FFFFFF;}
	.st2{fill:none;stroke:#FFFFFF;stroke-width:4;stroke-miterlimit:10;}
</style>
<title>oil</title>
<g class="st0">
	<path class="st1" d="M86.4,219.4h-9.5v-13.1h9.5v2.5h-6.1v2.3h5.7v2.5h-5.7v3.2h6.1V219.4z"/>
	<path class="st1" d="M102.2,219.4h-3.3l-5.6-9v9h-3.1v-13.1h4l4.8,7.5v-7.5h3.1V219.4z"/>
	<path class="st1" d="M116,219.4h-9.5v-13.1h9.5v2.5h-6.1v2.3h5.7v2.5h-5.7v3.2h6.1V219.4z"/>
	<path class="st1" d="M132.5,219.4h-4.1l-3.6-4.8h-1.6v4.8h-3.4v-13.1h5.7c0.8,0,1.4,0,2,0.1c0.6,0.1,1.1,0.3,1.6,0.6
		c0.5,0.3,0.9,0.7,1.2,1.1c0.3,0.5,0.4,1.1,0.4,1.8c0,1-0.2,1.8-0.7,2.4s-1.1,1.1-1.9,1.5L132.5,219.4z M127.3,210.3
		c0-0.3-0.1-0.6-0.2-0.8s-0.4-0.4-0.7-0.6c-0.2-0.1-0.5-0.2-0.8-0.2c-0.3,0-0.7,0-1.1,0h-1.2v3.5h1c0.5,0,1,0,1.4-0.1
		s0.7-0.2,0.9-0.4c0.2-0.2,0.4-0.4,0.5-0.6C127.2,210.9,127.3,210.6,127.3,210.3z"/>
	<path class="st1" d="M146.6,218.6c-0.6,0.2-1.4,0.5-2.3,0.7c-1,0.2-1.9,0.3-2.9,0.3c-2.2,0-4-0.6-5.2-1.8c-1.3-1.2-1.9-2.9-1.9-5
		c0-2,0.6-3.7,1.9-4.9c1.3-1.2,3-1.9,5.3-1.9c0.9,0,1.7,0.1,2.5,0.2c0.8,0.2,1.6,0.5,2.6,0.9v3.1h-0.4c-0.2-0.1-0.4-0.3-0.7-0.5
		s-0.6-0.4-0.9-0.6c-0.3-0.2-0.7-0.3-1.2-0.5s-0.9-0.2-1.4-0.2c-0.6,0-1.1,0.1-1.6,0.3s-0.9,0.4-1.3,0.8c-0.4,0.4-0.7,0.8-0.9,1.3
		c-0.2,0.5-0.3,1.2-0.3,1.9c0,1.4,0.4,2.6,1.2,3.3s1.9,1.2,3.4,1.2c0.1,0,0.3,0,0.4,0s0.3,0,0.4,0v-2.6h-2.6v-2.5h6V218.6z"/>
	<path class="st1" d="M162.2,206.3l-4.8,8v5.1H154v-4.9l-4.9-8.2h3.8l2.8,5l2.7-5H162.2z"/>
</g>
<circle id="_Path_" class="st2" cx="119.9" cy="84.7" r="77.7"/>
<g id="_Group_">
	<g id="_Group_2">
		<path id="_Path_2" class="st2" d="M109,61.8L109,61.8c0,0.1,0.1,0.3,0.2,0.4c0-0.1,0-0.2,0-0.3L109,61.8z"/>
		<path id="_Path_3" class="st2" d="M136.9,58.1c-0.5,0-10.3,0.2-14.5,0.5c1,2,1,4.3,0,6.2c4.2,0.3,9.2,0.5,14.5,0.5
			c15.4,0,20.4-1.6,20.4-3.7S152.2,58.1,136.9,58.1z"/>
		<path id="_Path_4" class="st2" d="M112.6,55.8c-1.6-1.3-3.4-2.9-5.8-4.7c-12.1-9.5-23-15.9-24.2-14.3c-1.3,1.6,7.6,10.6,19.7,20
			c2.7,2.1,4.9,3.7,6.7,5c0-0.1,0.1-0.3,0.2-0.4C109.3,59.1,110.6,57,112.6,55.8z"/>
		<path id="_Path_5" class="st2" d="M109.9,65c-1,2.2-2.1,5.2-3.3,9.1c-4.8,14.6-7.2,27-5.3,27.6s7.3-10.7,12.2-25.4
			c1-3,1.8-5.5,2.3-7.6C113.3,68.6,111.1,67.2,109.9,65z"/>
		<path id="_Path_6" class="st2" d="M115.8,68.7h0.3c2.6,0,5-1.5,6.2-3.8"/>
		<path id="_Path_7" class="st2" d="M109.2,62.2c0,1,0.3,2,0.8,2.8"/>
		<path id="_Path_8" class="st2" d="M122.3,58.7c-1.7-3.4-5.9-4.8-9.3-3.1c-0.2,0.1-0.3,0.2-0.4,0.2"/>
	</g>
	<polyline id="_Path_9" class="st2" points="118.6,68.6 124,135.9 109.5,135.9 116.2,69.2 	"/>
</g>
</svg>
