<svg xmlns="http://www.w3.org/2000/svg" viewBox="0 0 44.71 15.55"><defs><style>.cls-1{fill:#fff;}</style></defs><title>Asset 4</title><g id="Layer_2" data-name="Layer 2"><g id="Layer_1-2" data-name="Layer 1"><g id="_Group_" data-name="&lt;Group&gt;"><g id="_Group_2" data-name="&lt;Group&gt;"><g id="_Group_3" data-name="&lt;Group&gt;"><circle id="_Path_" data-name="&lt;Path&gt;" class="cls-1" cx="42.32" cy="13.16" r="2.39"/></g><g id="_Group_4" data-name="&lt;Group&gt;"><path id="_Compound_Path_" data-name="&lt;Compound Path&gt;" class="cls-1" d="M0,15.55V0H6.86a4.69,4.69,0,0,1,4.6,4.62,4.56,4.56,0,0,1-1,2.8A4.63,4.63,0,0,1,12.23,11a4.63,4.63,0,0,1-4.56,4.56ZM6.05,6.08a1.35,1.35,0,1,0,0-2.7h-2v2.7Zm.77,6.12a1.35,1.35,0,0,0,1.35-1.35A1.37,1.37,0,0,0,6.82,9.5H4.09v2.7Z"/><path id="_Compound_Path_2" data-name="&lt;Compound Path&gt;" class="cls-1" d="M14.16,0h4.09V11.45h5.6v4.11H14.16Z"/><path id="_Compound_Path_3" data-name="&lt;Compound Path&gt;" class="cls-1" d="M29.94,9.35a2,2,0,1,0,4.06,0V0h4.11V9.41a6.14,6.14,0,0,1-12.28,0V0h4.11Z"/></g></g></g></g></g></svg>