<svg xmlns="http://www.w3.org/2000/svg" viewBox="0 0 350.19 281.19"><defs><style>.cls-1{stroke:#fff;stroke-miterlimit:10;}.cls-2{fill:#fff;}</style></defs><title>contentdots</title><g id="Layer_2" data-name="Layer 2"><g id="Layer_1-2" data-name="Layer 1"><g id="_Group_" data-name="&lt;Group&gt;"><circle id="_Path_" data-name="&lt;Path&gt;" class="cls-1" cx="29.09" cy="29.09" r="28.59"/><path class="cls-2" d="M11.13,22.25h.93V24.1l1.71-1.85H15l-1.78,1.82,1.9,2.64H13.87l-1.35-2-.45.46v1.5h-.93Z"/><path class="cls-2" d="M16.64,26.72h-.87V22.25h1l1.79,3.14V22.25h.87v4.47h-.93L16.64,23.5Z"/><path class="cls-2" d="M20.93,26.21a2.41,2.41,0,0,1-.58-1.7,2.49,2.49,0,0,1,.58-1.74,2.23,2.23,0,0,1,3.13,0,2.5,2.5,0,0,1,.58,1.74,2.41,2.41,0,0,1-.58,1.7,2.27,2.27,0,0,1-3.13,0Zm2.46-.57a1.79,1.79,0,0,0,.32-1.13,1.86,1.86,0,0,0-.32-1.16,1.16,1.16,0,0,0-1.78,0,1.86,1.86,0,0,0-.32,1.16,1.79,1.79,0,0,0,.32,1.13,1.18,1.18,0,0,0,1.79,0Z"/><path class="cls-2" d="M26.51,26.72l-1.24-4.47h1L27,25.52h0l.64-3.27h1l.65,3.24h0L30,22.25h.94L29.7,26.72h-.89L28.1,23.2l-.7,3.52h-.89Z"/><path class="cls-2" d="M34.12,26.21a2.41,2.41,0,0,1-.58-1.7,2.49,2.49,0,0,1,.58-1.74,2.23,2.23,0,0,1,3.13,0,2.5,2.5,0,0,1,.58,1.74,2.41,2.41,0,0,1-.58,1.7,2.27,2.27,0,0,1-3.13,0Zm2.46-.57a1.79,1.79,0,0,0,.32-1.13,1.86,1.86,0,0,0-.32-1.16,1.16,1.16,0,0,0-1.78,0,1.86,1.86,0,0,0-.32,1.16,1.79,1.79,0,0,0,.32,1.13,1.18,1.18,0,0,0,1.79,0Z"/><path class="cls-2" d="M42.41,25A1.89,1.89,0,0,1,42,26.42a1.9,1.9,0,0,1-1.38.42A1.58,1.58,0,0,1,38.8,25V22.25h.93v2.81a1,1,0,0,0,.22.72.84.84,0,0,0,.65.24.87.87,0,0,0,.67-.22,1.09,1.09,0,0,0,.2-.74V22.25h.93Z"/><path class="cls-2" d="M43.57,22.25h2.25a1.51,1.51,0,0,1,1,.34,1.14,1.14,0,0,1,.39.9,1.06,1.06,0,0,1-.43.94,1.2,1.2,0,0,1-.26.13l.15.07a.85.85,0,0,1,.4.77l0,.73a.92.92,0,0,0,0,.31.3.3,0,0,0,.15.15v.12h-1a1.06,1.06,0,0,1-.06-.3,4.51,4.51,0,0,1,0-.49v-.41a.51.51,0,0,0-.18-.43,1,1,0,0,0-.57-.13h-.93v1.77h-.93Zm.93,2h1.08a.85.85,0,0,0,.54-.15.54.54,0,0,0,.18-.45.55.55,0,0,0-.17-.44.78.78,0,0,0-.52-.15H44.51Z"/><path class="cls-2" d="M11.83,33.39a1.83,1.83,0,0,1-.61,1.23,1.94,1.94,0,0,1-1.33.46,1.89,1.89,0,0,1-1.5-.63,2.48,2.48,0,0,1-.55-1.7A2.57,2.57,0,0,1,8.4,31a1.87,1.87,0,0,1,1.5-.64,2,2,0,0,1,1.32.43A1.72,1.72,0,0,1,11.83,32H10.9a.84.84,0,0,0-.31-.57,1.05,1.05,0,0,0-.68-.21,1,1,0,0,0-.82.42,2,2,0,0,0-.29,1.15,1.88,1.88,0,0,0,.29,1.12,1,1,0,0,0,.82.41,1,1,0,0,0,.68-.24,1,1,0,0,0,.31-.64Z"/><path class="cls-2" d="M14,30.48H15.1L16.68,35h-1l-.3-.91H13.7l-.29.91h-1ZM14,33.27h1.19l-.59-1.79h0Z"/><path class="cls-2" d="M18.36,35h-.87V30.48h1l1.79,3.14V30.48h.87V35H20.2l-1.84-3.22Z"/><path class="cls-2" d="M22.28,30.48h1.91a1.77,1.77,0,0,1,1.4.54,2.32,2.32,0,0,1,.48,1.58,2.67,2.67,0,0,1-.5,1.75,1.79,1.79,0,0,1-1.46.6H22.28Zm.93,3.7H24a1,1,0,0,0,.85-.38,1.93,1.93,0,0,0,.28-1.15,1.71,1.71,0,0,0-.26-1,.94.94,0,0,0-.8-.35h-.86Z"/><path class="cls-2" d="M26.95,30.48h.93V35h-.93Z"/><path class="cls-2" d="M29,30.48h1.91a1.77,1.77,0,0,1,1.4.54,2.32,2.32,0,0,1,.48,1.58,2.67,2.67,0,0,1-.5,1.75,1.79,1.79,0,0,1-1.46.6H29Zm.93,3.7h.79a1,1,0,0,0,.85-.38,1.93,1.93,0,0,0,.28-1.15,1.71,1.71,0,0,0-.26-1,.94.94,0,0,0-.8-.35h-.86Z"/><path class="cls-2" d="M35,30.48h1.08L37.63,35h-1l-.3-.91H34.65l-.29.91h-1Zm-.06,2.79h1.19l-.59-1.79h0Z"/><path class="cls-2" d="M39.45,31.28H38.1v-.79h3.63v.79H40.38V35h-.93Z"/><path class="cls-2" d="M42.54,35V30.48h3.29v.79H43.47v.95h2.19V33H43.47v1.16h2.46V35Z"/><path class="cls-2" d="M49.36,31.82a.66.66,0,0,0-.28-.51,1.1,1.1,0,0,0-.67-.19.88.88,0,0,0-.56.16.52.52,0,0,0-.2.44.34.34,0,0,0,.21.31,4.17,4.17,0,0,0,.88.26,3.21,3.21,0,0,1,1.3.5,1.14,1.14,0,0,1,.33.91,1.18,1.18,0,0,1-.5,1,2.19,2.19,0,0,1-1.34.37,2,2,0,0,1-1.32-.39,1.45,1.45,0,0,1-.51-1.12h.9a.69.69,0,0,0,.26.55,1.07,1.07,0,0,0,.68.19,1.4,1.4,0,0,0,.7-.14.44.44,0,0,0,.25-.4.41.41,0,0,0-.18-.37,2.55,2.55,0,0,0-.75-.25,4,4,0,0,1-1.42-.51,1,1,0,0,1-.36-.85,1.26,1.26,0,0,1,.47-1,2,2,0,0,1,1.27-.38,1.84,1.84,0,0,1,1.22.39,1.48,1.48,0,0,1,.52,1.07Z"/></g><g id="_Group_2" data-name="&lt;Group&gt;"><circle id="_Path_2" data-name="&lt;Path&gt;" class="cls-1" cx="321.09" cy="252.09" r="28.59"/><path class="cls-2" d="M303.13,245.25h.93v1.85l1.71-1.85H307l-1.78,1.82,1.9,2.64h-1.22l-1.35-2-.45.46v1.5h-.93Z"/><path class="cls-2" d="M308.64,249.72h-.87v-4.47h1l1.79,3.14v-3.14h.87v4.47h-.93l-1.84-3.22Z"/><path class="cls-2" d="M312.93,249.21a2.41,2.41,0,0,1-.58-1.7,2.49,2.49,0,0,1,.58-1.74,2.23,2.23,0,0,1,3.13,0,2.5,2.5,0,0,1,.58,1.74,2.41,2.41,0,0,1-.58,1.7,2.27,2.27,0,0,1-3.13,0Zm2.46-.57a1.79,1.79,0,0,0,.32-1.13,1.86,1.86,0,0,0-.32-1.16,1.16,1.16,0,0,0-1.78,0,1.86,1.86,0,0,0-.32,1.16,1.79,1.79,0,0,0,.32,1.13,1.18,1.18,0,0,0,1.79,0Z"/><path class="cls-2" d="M318.51,249.72l-1.24-4.47h1l.75,3.27h0l.64-3.27h1l.65,3.24h0l.74-3.24h.94l-1.24,4.47h-.89l-.72-3.52-.7,3.52h-.89Z"/><path class="cls-2" d="M326.12,249.21a2.41,2.41,0,0,1-.58-1.7,2.49,2.49,0,0,1,.58-1.74,2.23,2.23,0,0,1,3.13,0,2.5,2.5,0,0,1,.58,1.74,2.41,2.41,0,0,1-.58,1.7,2.27,2.27,0,0,1-3.13,0Zm2.46-.57a1.79,1.79,0,0,0,.32-1.13,1.86,1.86,0,0,0-.32-1.16,1.16,1.16,0,0,0-1.78,0,1.86,1.86,0,0,0-.32,1.16,1.79,1.79,0,0,0,.32,1.13,1.18,1.18,0,0,0,1.79,0Z"/><path class="cls-2" d="M334.41,248a1.54,1.54,0,0,1-1.8,1.8,1.58,1.58,0,0,1-1.8-1.8v-2.78h.93v2.81a1,1,0,0,0,.22.72.84.84,0,0,0,.65.24.87.87,0,0,0,.67-.22,1.09,1.09,0,0,0,.2-.74v-2.81h.93Z"/><path class="cls-2" d="M335.57,245.25h2.25a1.51,1.51,0,0,1,1,.34,1.14,1.14,0,0,1,.39.9,1.06,1.06,0,0,1-.43.94,1.2,1.2,0,0,1-.26.13l.15.07a.85.85,0,0,1,.4.77l0,.73a.92.92,0,0,0,0,.31.3.3,0,0,0,.15.15v.12h-1a1.06,1.06,0,0,1-.06-.3,4.51,4.51,0,0,1,0-.49v-.41a.51.51,0,0,0-.18-.43,1,1,0,0,0-.57-.13h-.93v1.77h-.93Zm.93,2h1.08a.85.85,0,0,0,.54-.15.54.54,0,0,0,.18-.45.55.55,0,0,0-.17-.44.78.78,0,0,0-.52-.15h-1.12Z"/><path class="cls-2" d="M311.29,256.39a1.83,1.83,0,0,1-.61,1.23,1.94,1.94,0,0,1-1.33.46,1.89,1.89,0,0,1-1.5-.63,2.48,2.48,0,0,1-.55-1.7,2.57,2.57,0,0,1,.55-1.74,1.87,1.87,0,0,1,1.5-.64,2,2,0,0,1,1.32.43,1.72,1.72,0,0,1,.61,1.17h-.93a.84.84,0,0,0-.31-.57,1.05,1.05,0,0,0-.68-.21,1,1,0,0,0-.82.42,2,2,0,0,0-.29,1.15,1.88,1.88,0,0,0,.29,1.12,1,1,0,0,0,.82.41A1,1,0,0,0,310,257a1,1,0,0,0,.31-.64Z"/><path class="cls-2" d="M312.25,258v-4.47h.93v3.67h2.22V258Z"/><path class="cls-2" d="M316.23,253.48h.93V258h-.93Z"/><path class="cls-2" d="M318.28,258v-4.47h3.29v.79h-2.35v.95h2.19V256h-2.19v1.16h2.46V258Z"/><path class="cls-2" d="M323.51,258h-.87v-4.47h1l1.79,3.14v-3.14h.87V258h-.93l-1.84-3.22Z"/><path class="cls-2" d="M328.39,254.28H327v-.79h3.63v.79h-1.35V258h-.93Z"/><path class="cls-2" d="M333.89,254.82a.66.66,0,0,0-.28-.51,1.1,1.1,0,0,0-.67-.19.88.88,0,0,0-.56.16.52.52,0,0,0-.2.44.34.34,0,0,0,.21.31,4.17,4.17,0,0,0,.88.26,3.21,3.21,0,0,1,1.3.5,1.14,1.14,0,0,1,.33.91,1.18,1.18,0,0,1-.5,1,2.19,2.19,0,0,1-1.34.37,2,2,0,0,1-1.32-.39,1.45,1.45,0,0,1-.51-1.12h.9a.69.69,0,0,0,.26.55,1.07,1.07,0,0,0,.68.19,1.4,1.4,0,0,0,.7-.14.44.44,0,0,0,.25-.4.41.41,0,0,0-.18-.37,2.55,2.55,0,0,0-.75-.25,4,4,0,0,1-1.42-.51,1,1,0,0,1-.36-.85,1.26,1.26,0,0,1,.47-1,2,2,0,0,1,1.27-.38,1.84,1.84,0,0,1,1.22.39,1.48,1.48,0,0,1,.52,1.07Z"/></g></g></g></svg>