<svg xmlns="http://www.w3.org/2000/svg" xmlns:xlink="http://www.w3.org/1999/xlink" viewBox="0 0 213.15 264.98"><defs><style>.cls-1,.cls-8,.cls-9{fill:none;}.cls-2{fill:#359fd7;}.cls-3,.cls-4,.cls-5,.cls-6,.cls-7,.cls-8,.cls-9{stroke:#fff;}.cls-3,.cls-5,.cls-6,.cls-7,.cls-8,.cls-9{stroke-miterlimit:10;}.cls-3,.cls-5,.cls-9{stroke-width:0.75px;}.cls-3,.cls-4,.cls-6{fill:url(#New_Pattern_Swatch_1);}.cls-4{stroke-linecap:round;stroke-linejoin:round;}.cls-11,.cls-5,.cls-7{fill:#fff;}.cls-10{opacity:0.89;}</style><pattern id="New_Pattern_Swatch_1" data-name="New Pattern Swatch 1" width="21.48" height="21.48" patternUnits="userSpaceOnUse" viewBox="0 0 21.48 21.48"><g id="_Group_" data-name="&lt;Group&gt;"><rect id="_Path_" data-name="&lt;Path&gt;" class="cls-1" width="21.48" height="21.48"/><rect id="_Rectangle_" data-name="&lt;Rectangle&gt;" class="cls-2" width="21.48" height="21.48"/></g></pattern></defs><title>create-building</title><g id="Layer_2" data-name="Layer 2"><g id="Layer_1-2" data-name="Layer 1"><g id="_Group_19" data-name="&lt;Group&gt;"><g id="_Group_20" data-name="&lt;Group&gt;"><g id="_Group_21" data-name="&lt;Group&gt;"><polyline id="_Path_19" data-name="&lt;Path&gt;" class="cls-3" points="51.23 148.19 72.44 8.09 94.29 101.06"/><path id="_Path_20" data-name="&lt;Path&gt;" class="cls-4" d="M69.31,35.1l10.93,5.58a.92.92,0,0,1,0,1.4l-12.76,10a.92.92,0,0,0,.1,1.5l13.92,7.92L64.34,71.75a.92.92,0,0,0,.17,1.61L89,82.42,60.4,97.76a.92.92,0,0,0,.19,1.67l34.72,9.85L56.46,124.09a.92.92,0,0,0,.06,1.72l35.13,15.37L58.08,147"/></g><circle id="_Path_21" data-name="&lt;Path&gt;" class="cls-5" cx="72.53" cy="7.78" r="2.71"/><g id="_Group_22" data-name="&lt;Group&gt;"><path id="_Path_22" data-name="&lt;Path&gt;" class="cls-6" d="M77.57,3s4.41,4.44,0,8.85"/><path id="_Path_23" data-name="&lt;Path&gt;" class="cls-6" d="M79.73.35s7.05,7.1,0,14.15"/></g><g id="_Group_23" data-name="&lt;Group&gt;"><path id="_Path_24" data-name="&lt;Path&gt;" class="cls-6" d="M67.27,11.85s-4.41-4.44,0-8.85"/><path id="_Path_25" data-name="&lt;Path&gt;" class="cls-6" d="M65.1,14.5S58.05,7.4,65.1.35"/></g></g><path id="_Path_26" data-name="&lt;Path&gt;" class="cls-6" d="M40,156.35V77.46a3.08,3.08,0,0,1,2.79-3.29H78.44a3.08,3.08,0,0,1,2.79,3.29v78.9"/><g id="_Group_24" data-name="&lt;Group&gt;"><g id="_Group_25" data-name="&lt;Group&gt;"><rect id="_Rectangle_19" data-name="&lt;Rectangle&gt;" class="cls-7" x="56.93" y="94.08" width="3.37" height="21.53" rx="1.68" ry="1.68" transform="translate(-46.24 163.47) rotate(-90)"/><rect id="_Rectangle_20" data-name="&lt;Rectangle&gt;" class="cls-7" x="56.93" y="88.25" width="3.37" height="21.53" rx="1.68" ry="1.68" transform="translate(-40.4 157.63) rotate(-90)"/></g><g id="_Group_26" data-name="&lt;Group&gt;"><rect id="_Rectangle_21" data-name="&lt;Rectangle&gt;" class="cls-7" x="56.93" y="105.84" width="3.37" height="21.53" rx="1.68" ry="1.68" transform="translate(-57.99 175.22) rotate(-90)"/><rect id="_Rectangle_22" data-name="&lt;Rectangle&gt;" class="cls-7" x="56.93" y="100" width="3.37" height="21.53" rx="1.68" ry="1.68" transform="translate(-52.15 169.38) rotate(-90)"/></g><g id="_Group_27" data-name="&lt;Group&gt;"><rect id="_Rectangle_23" data-name="&lt;Rectangle&gt;" class="cls-7" x="56.93" y="117.6" width="3.37" height="21.53" rx="1.68" ry="1.68" transform="translate(-69.75 186.98) rotate(-90)"/><rect id="_Rectangle_24" data-name="&lt;Rectangle&gt;" class="cls-7" x="56.93" y="111.76" width="3.37" height="21.53" rx="1.68" ry="1.68" transform="translate(-63.91 181.14) rotate(-90)"/></g></g><line id="_Path_27" data-name="&lt;Path&gt;" class="cls-8" x1="204.8" y1="68.21" x2="204.8" y2="180.21"/><line id="_Path_28" data-name="&lt;Path&gt;" class="cls-8" x1="189.8" y1="68.21" x2="189.8" y2="180.21"/><line id="_Path_29" data-name="&lt;Path&gt;" class="cls-8" x1="170.8" y1="68.21" x2="170.8" y2="180.21"/><g id="_Group_28" data-name="&lt;Group&gt;"><path id="_Path_30" data-name="&lt;Path&gt;" class="cls-6" d="M31.92,171.47V130.3a1.8,1.8,0,0,1,1.86-1.72H57.59a1.8,1.8,0,0,1,1.86,1.72v41.16"/><g id="_Group_29" data-name="&lt;Group&gt;"><rect id="_Rectangle_25" data-name="&lt;Rectangle&gt;" class="cls-8" x="39.04" y="135.55" width="4.84" height="24.98" rx="2.42" ry="2.42"/><rect id="_Rectangle_26" data-name="&lt;Rectangle&gt;" class="cls-8" x="47.43" y="135.55" width="4.84" height="24.98" rx="2.42" ry="2.42"/></g></g><path id="_Path_31" data-name="&lt;Path&gt;" class="cls-8" d="M171,71.85s7.34,7.7,18.35,1.47c0,.65.92,12.45,15.6,7.24"/><path id="_Path_32" data-name="&lt;Path&gt;" class="cls-8" d="M171,81s7.34,7.7,18.35,1.47c0,.65.92,12.45,15.6,7.24"/><path id="_Path_33" data-name="&lt;Path&gt;" class="cls-8" d="M171,90.2s7.34,7.7,18.35,1.47c0,.65.92,12.45,15.6,7.24"/><path id="_Path_34" data-name="&lt;Path&gt;" class="cls-8" d="M165,67.55"/><path id="_Path_35" data-name="&lt;Path&gt;" class="cls-8" d="M209.08,67.55"/><path id="_Path_36" data-name="&lt;Path&gt;" class="cls-6" d="M137.52,171.47V92.57c0-1.81,1.3-2.45,2.88-2.45H177.3c1.59,0,2.88.64,2.88,2.45v85.61"/><g id="_Group_30" data-name="&lt;Group&gt;"><path id="_Path_37" data-name="&lt;Path&gt;" class="cls-6" d="M155.15,179.86V120.17a1.05,1.05,0,0,1,1.05-1.05h34.43a.46.46,0,0,1,.46.46v60.29"/><g id="_Group_31" data-name="&lt;Group&gt;"><g id="_Group_32" data-name="&lt;Group&gt;"><rect id="_Rectangle_27" data-name="&lt;Rectangle&gt;" class="cls-5" x="161.34" y="128.41" width="2.96" height="5.32" rx="1.48" ry="1.48"/><rect id="_Rectangle_28" data-name="&lt;Rectangle&gt;" class="cls-9" x="166.49" y="128.41" width="2.96" height="5.32" rx="1.48" ry="1.48"/><rect id="_Rectangle_29" data-name="&lt;Rectangle&gt;" class="cls-9" x="171.63" y="128.41" width="2.96" height="5.32" rx="1.48" ry="1.48"/><rect id="_Rectangle_30" data-name="&lt;Rectangle&gt;" class="cls-5" x="176.78" y="128.41" width="2.96" height="5.32" rx="1.48" ry="1.48"/><rect id="_Rectangle_31" data-name="&lt;Rectangle&gt;" class="cls-9" x="181.92" y="128.41" width="2.96" height="5.32" rx="1.48" ry="1.48"/></g><g id="_Group_33" data-name="&lt;Group&gt;"><rect id="_Rectangle_32" data-name="&lt;Rectangle&gt;" class="cls-9" x="161.34" y="136.8" width="2.96" height="5.32" rx="1.48" ry="1.48"/><rect id="_Rectangle_33" data-name="&lt;Rectangle&gt;" class="cls-5" x="166.49" y="136.8" width="2.96" height="5.32" rx="1.48" ry="1.48"/><rect id="_Rectangle_34" data-name="&lt;Rectangle&gt;" class="cls-9" x="171.63" y="136.8" width="2.96" height="5.32" rx="1.48" ry="1.48"/><rect id="_Rectangle_35" data-name="&lt;Rectangle&gt;" class="cls-9" x="176.78" y="136.8" width="2.96" height="5.32" rx="1.48" ry="1.48"/><rect id="_Rectangle_36" data-name="&lt;Rectangle&gt;" class="cls-5" x="181.92" y="136.8" width="2.96" height="5.32" rx="1.48" ry="1.48"/></g><g id="_Group_34" data-name="&lt;Group&gt;"><rect id="_Rectangle_37" data-name="&lt;Rectangle&gt;" class="cls-5" x="161.34" y="145.2" width="2.96" height="5.32" rx="1.48" ry="1.48"/><rect id="_Rectangle_38" data-name="&lt;Rectangle&gt;" class="cls-9" x="166.49" y="145.2" width="2.96" height="5.32" rx="1.48" ry="1.48"/><rect id="_Rectangle_39" data-name="&lt;Rectangle&gt;" class="cls-5" x="171.63" y="145.2" width="2.96" height="5.32" rx="1.48" ry="1.48"/><rect id="_Rectangle_40" data-name="&lt;Rectangle&gt;" class="cls-9" x="176.78" y="145.2" width="2.96" height="5.32" rx="1.48" ry="1.48"/><rect id="_Rectangle_41" data-name="&lt;Rectangle&gt;" class="cls-9" x="181.92" y="145.2" width="2.96" height="5.32" rx="1.48" ry="1.48"/></g><g id="_Group_35" data-name="&lt;Group&gt;"><rect id="_Rectangle_42" data-name="&lt;Rectangle&gt;" class="cls-9" x="161.34" y="153.6" width="2.96" height="5.32" rx="1.48" ry="1.48"/><rect id="_Rectangle_43" data-name="&lt;Rectangle&gt;" class="cls-5" x="166.49" y="153.6" width="2.96" height="5.32" rx="1.48" ry="1.48"/><rect id="_Rectangle_44" data-name="&lt;Rectangle&gt;" class="cls-9" x="171.63" y="153.6" width="2.96" height="5.32" rx="1.48" ry="1.48"/><rect id="_Rectangle_45" data-name="&lt;Rectangle&gt;" class="cls-5" x="176.78" y="153.6" width="2.96" height="5.32" rx="1.48" ry="1.48"/><rect id="_Rectangle_46" data-name="&lt;Rectangle&gt;" class="cls-9" x="181.92" y="153.6" width="2.96" height="5.32" rx="1.48" ry="1.48"/></g><g id="_Group_36" data-name="&lt;Group&gt;"><rect id="_Rectangle_47" data-name="&lt;Rectangle&gt;" class="cls-9" x="161.34" y="162" width="2.96" height="5.32" rx="1.48" ry="1.48"/><rect id="_Rectangle_48" data-name="&lt;Rectangle&gt;" class="cls-9" x="166.49" y="162" width="2.96" height="5.32" rx="1.48" ry="1.48"/><rect id="_Rectangle_49" data-name="&lt;Rectangle&gt;" class="cls-5" x="171.63" y="162" width="2.96" height="5.32" rx="1.48" ry="1.48"/><rect id="_Rectangle_50" data-name="&lt;Rectangle&gt;" class="cls-9" x="176.78" y="162" width="2.96" height="5.32" rx="1.48" ry="1.48"/><rect id="_Rectangle_51" data-name="&lt;Rectangle&gt;" class="cls-9" x="181.92" y="162" width="2.96" height="5.32" rx="1.48" ry="1.48"/></g></g></g><polyline id="_Path_38" data-name="&lt;Path&gt;" class="cls-6" points="75.92 179.86 75.92 55.73 138.01 55.73 138.01 179.86"/><g id="_Group_37" data-name="&lt;Group&gt;"><g id="_Group_38" data-name="&lt;Group&gt;"><rect id="_Rectangle_52" data-name="&lt;Rectangle&gt;" class="cls-8" x="86.5" y="71.85" width="6.01" height="17.21" rx="2.88" ry="2.88"/><rect id="_Rectangle_53" data-name="&lt;Rectangle&gt;" class="cls-8" x="95.22" y="71.85" width="6.01" height="17.21" rx="2.88" ry="2.88"/><rect id="_Rectangle_54" data-name="&lt;Rectangle&gt;" class="cls-7" x="103.95" y="71.85" width="6.01" height="17.21" rx="2.88" ry="2.88"/><rect id="_Rectangle_55" data-name="&lt;Rectangle&gt;" class="cls-8" x="112.68" y="71.85" width="6.01" height="17.21" rx="2.88" ry="2.88"/><rect id="_Rectangle_56" data-name="&lt;Rectangle&gt;" class="cls-8" x="121.41" y="71.85" width="6.01" height="17.21" rx="2.88" ry="2.88"/></g><g id="_Group_39" data-name="&lt;Group&gt;"><rect id="_Rectangle_57" data-name="&lt;Rectangle&gt;" class="cls-8" x="86.5" y="92.69" width="6.01" height="17.21" rx="2.88" ry="2.88"/><rect id="_Rectangle_58" data-name="&lt;Rectangle&gt;" class="cls-7" x="95.22" y="92.69" width="6.01" height="17.21" rx="2.88" ry="2.88"/><rect id="_Rectangle_59" data-name="&lt;Rectangle&gt;" class="cls-8" x="103.95" y="92.69" width="6.01" height="17.21" rx="2.88" ry="2.88"/><rect id="_Rectangle_60" data-name="&lt;Rectangle&gt;" class="cls-8" x="112.68" y="92.69" width="6.01" height="17.21" rx="2.88" ry="2.88"/><rect id="_Rectangle_61" data-name="&lt;Rectangle&gt;" class="cls-7" x="121.41" y="92.69" width="6.01" height="17.21" rx="2.88" ry="2.88"/></g><rect id="_Rectangle_62" data-name="&lt;Rectangle&gt;" class="cls-8" x="86.5" y="113.53" width="6.01" height="17.21" rx="2.88" ry="2.88"/><rect id="_Rectangle_63" data-name="&lt;Rectangle&gt;" class="cls-8" x="95.22" y="113.53" width="6.01" height="17.21" rx="2.88" ry="2.88"/><rect id="_Rectangle_64" data-name="&lt;Rectangle&gt;" class="cls-7" x="103.95" y="113.53" width="6.01" height="17.21" rx="2.88" ry="2.88"/><rect id="_Rectangle_65" data-name="&lt;Rectangle&gt;" class="cls-8" x="112.68" y="113.53" width="6.01" height="17.21" rx="2.88" ry="2.88"/><rect id="_Rectangle_66" data-name="&lt;Rectangle&gt;" class="cls-8" x="121.41" y="113.53" width="6.01" height="17.21" rx="2.88" ry="2.88"/></g><g id="_Group_40" data-name="&lt;Group&gt;"><path id="_Rectangle_67" data-name="&lt;Rectangle&gt;" class="cls-4" d="M94.58,44.26h24.08A8.31,8.31,0,0,1,127,52.57v0a8.22,8.22,0,0,1-8.22,8.22H95.69A8.82,8.82,0,0,1,86.87,52v0a7.71,7.71,0,0,1,7.71-7.71Z"/><g id="_Group_41" data-name="&lt;Group&gt;" class="cls-10"><g id="_Group_42" data-name="&lt;Group&gt;"><g id="_Group_43" data-name="&lt;Group&gt;"><circle id="_Path_39" data-name="&lt;Path&gt;" class="cls-11" cx="116.65" cy="55.15" r="1.17"/></g><g id="_Group_44" data-name="&lt;Group&gt;"><path id="_Compound_Path_" data-name="&lt;Compound Path&gt;" class="cls-11" d="M96,56.32V48.74h3.35A2.29,2.29,0,0,1,101.61,51a2.22,2.22,0,0,1-.49,1.36,2.21,2.21,0,0,1-1.36,4Zm3-4.62a.66.66,0,1,0,0-1.31H98V51.7Zm.37,3A.66.66,0,0,0,100,54a.67.67,0,0,0-.66-.66H98v1.31Z"/><path id="_Compound_Path_2" data-name="&lt;Compound Path&gt;" class="cls-11" d="M102.92,48.74h2v5.58h2.73v2h-4.72Z"/><path id="_Compound_Path_3" data-name="&lt;Compound Path&gt;" class="cls-11" d="M110.61,53.29a1,1,0,1,0,2,0V48.74h2v4.59a3,3,0,0,1-6,0V48.74h2Z"/></g></g></g></g><path id="_Path_40" data-name="&lt;Path&gt;" class="cls-6" d="M1.83,179.86s92.53-33,211.18,2.75"/><g id="_Group_45" data-name="&lt;Group&gt;"><path id="_Path_41" data-name="&lt;Path&gt;" class="cls-11" d="M113.42,171.55c0,1.31,0,2.48,0,3.65a2.08,2.08,0,0,1-.28.85,2.48,2.48,0,0,1-.5.65c-2.12,2-2.68,4.65-3.08,7.35-.05.36.42.8.66,1.21.38-.27.93-.46,1.09-.82a6.67,6.67,0,0,0,.47-2.11c.18-2.15,1.6-3.56,3-5.31.1,1.21.24,2.17.23,3.14a2.54,2.54,0,0,0,.94,2.07c.93.82,1.8,1.71,2.69,2.57.46.44,1,.75,1.52.18s.28-1.07-.21-1.52l-.6-.57c-2.66-2.55-2.66-2.55-2.67-6.22,0-1.93,0-3.86,0-5.79,0-.19,0-.39,0-.58l.27-.11a7.13,7.13,0,0,1,.87,1.37c.42,1.16.74,2.36,1.08,3.55.18.62.54,1,1.19.81s.78-.68.58-1.33c-.43-1.38-.81-2.78-1.25-4.15a2.46,2.46,0,0,0-.58-.94c-.9-.91-1.82-1.78-2.75-2.66a1.73,1.73,0,0,0-2.74.46,27.72,27.72,0,0,0-1.54,2.81,1.37,1.37,0,0,1-1.24.89,7.64,7.64,0,0,0-2.12.39c-.34.13-.53.65-.79,1,.35.26.72.75,1,.73a19.57,19.57,0,0,0,3.46-.54C112.62,172.5,112.92,172,113.42,171.55Z"/><g id="_Group_46" data-name="&lt;Group&gt;"><path id="_Path_42" data-name="&lt;Path&gt;" class="cls-11" d="M111.93,163.74a2.48,2.48,0,0,0,2.51,2.48,2.48,2.48,0,0,0,0-5A2.44,2.44,0,0,0,111.93,163.74Z"/><path id="_Path_43" data-name="&lt;Path&gt;" class="cls-11" d="M114.38,164.77s3.63-2.94,5.56,2.58c.2.62-1.64-1.1,0,.91a3.93,3.93,0,0,0-5.56-1.77C113.09,167.68,114.38,164.77,114.38,164.77Z"/></g></g><g id="_Group_47" data-name="&lt;Group&gt;"><path id="_Path_44" data-name="&lt;Path&gt;" class="cls-8" d="M99.22,166.62S77.6,178.55,82.4,196.52c-.59,7.34,25,39.81-9.71,67.52"/><path id="_Path_45" data-name="&lt;Path&gt;" class="cls-8" d="M120.64,166.7s-17.18,16.46-7.33,33.19c1.56,7.3,33.85,31.23,8.38,64.79"/></g><g id="_Group_48" data-name="&lt;Group&gt;"><path id="_Path_46" data-name="&lt;Path&gt;" class="cls-11" d="M104.24,156.55c0,.82,0,1.56,0,2.29a1.31,1.31,0,0,0,.17.54,1.56,1.56,0,0,0,.32.41,7.37,7.37,0,0,1,1.94,4.62c0,.23-.27.51-.41.76-.24-.17-.59-.29-.69-.52a4.19,4.19,0,0,1-.29-1.32c-.12-1.35-1-2.24-1.91-3.34-.06.76-.15,1.37-.15,2a1.6,1.6,0,0,1-.59,1.3c-.58.52-1.13,1.08-1.69,1.62-.29.28-.61.47-1,.11s-.17-.67.13-1l.38-.36c1.67-1.6,1.67-1.6,1.68-3.91,0-1.21,0-2.43,0-3.64,0-.12,0-.24,0-.37l-.17-.07a4.48,4.48,0,0,0-.55.86c-.26.73-.46,1.49-.68,2.23-.11.39-.34.64-.75.51s-.49-.43-.37-.83c.27-.87.51-1.75.79-2.61a1.55,1.55,0,0,1,.37-.59c.56-.57,1.15-1.12,1.73-1.67a1.09,1.09,0,0,1,1.72.29,17.43,17.43,0,0,1,1,1.76.86.86,0,0,0,.78.56,4.8,4.8,0,0,1,1.34.24c.21.08.33.41.5.63-.22.16-.45.47-.66.46a12.3,12.3,0,0,1-2.18-.34C104.75,157.15,104.56,156.84,104.24,156.55Z"/><path id="_Path_47" data-name="&lt;Path&gt;" class="cls-11" d="M105.18,151.64a1.56,1.56,0,0,1-1.58,1.56,1.56,1.56,0,0,1,0-3.12A1.54,1.54,0,0,1,105.18,151.64Z"/></g><g id="_Group_49" data-name="&lt;Group&gt;"><g id="dDlSH8"><g id="_Group_50" data-name="&lt;Group&gt;"><path id="_Path_48" data-name="&lt;Path&gt;" class="cls-3" d="M8.46,163.53l1.73,6.87a1.42,1.42,0,0,0,1.73,1l12.18-3.07a1.42,1.42,0,0,0,1-1.73l-1.73-6.87a1.42,1.42,0,0,0-1.73-1L9.5,161.8A1.42,1.42,0,0,0,8.46,163.53Z"/><path id="_Compound_Path_4" data-name="&lt;Compound Path&gt;" class="cls-3" d="M.9,174.21a.1.1,0,0,1-.12-.07c-.12-.47-.24-.91-.34-1.36a2.38,2.38,0,0,1,0-.76c.18-1.47.38-2.94.57-4.4a2.73,2.73,0,0,1,1.85-2.17c1.21-.36,2.45-.64,3.68-.94a.88.88,0,0,1,1.14.69c.25,1,.49,1.94.74,2.91l1,3.87a.1.1,0,0,1-.07.13Zm2.21-2.67a.44.44,0,0,0,.2-.19c.27-.42.53-.86.82-1.27a.73.73,0,0,1,.38-.28c.89-.24,1.79-.46,2.71-.69a.1.1,0,0,0,.07-.13l-.76-3a.1.1,0,0,0-.12-.08l-.15,0c-1,.25-2,.5-3,.77a1.16,1.16,0,0,0-.94.95l-.71,4.17h0a.1.1,0,0,0,.13.11Z"/><path id="_Path_49" data-name="&lt;Path&gt;" class="cls-5" d="M1.6,171.92c.51-.13,1-.25,1.5-.39a.44.44,0,0,0,.2-.19c.27-.42.53-.86.82-1.27a.73.73,0,0,1,.38-.28c.93-.25,1.86-.48,2.81-.72l-.81-3.22-.24,0c-1,.25-2,.5-3,.77a1.16,1.16,0,0,0-.94.95l-.71,4.17A.58.58,0,0,0,1.6,171.92Z"/></g></g><circle id="_Path_50" data-name="&lt;Path&gt;" class="cls-3" cx="21.58" cy="171.81" r="1.61" transform="translate(-41.38 10.5) rotate(-14.16)"/><circle id="_Path_51" data-name="&lt;Path&gt;" class="cls-3" cx="14.67" cy="173.55" r="1.61" transform="translate(-42.02 8.87) rotate(-14.16)"/><circle id="_Path_52" data-name="&lt;Path&gt;" class="cls-3" cx="5.45" cy="175.88" r="1.61" transform="translate(-42.87 6.68) rotate(-14.16)"/></g></g></g></g></svg>