<svg xmlns="http://www.w3.org/2000/svg" xmlns:xlink="http://www.w3.org/1999/xlink" viewBox="0 0 381.83 382.32"><defs><style>.cls-1{fill:none;}.cls-2{fill:#359fd7;}.cls-3{stroke:#fff;stroke-miterlimit:10;stroke-width:2px;}.cls-3,.cls-4{fill:url(#New_Pattern_Swatch_1);}.cls-5{fill:#fff;}</style><pattern id="New_Pattern_Swatch_1" data-name="New Pattern Swatch 1" width="21.48" height="21.48" patternUnits="userSpaceOnUse" viewBox="0 0 21.48 21.48"><g id="_Group_" data-name="&lt;Group&gt;"><rect id="_Path_" data-name="&lt;Path&gt;" class="cls-1" width="21.48" height="21.48"/><rect id="_Rectangle_" data-name="&lt;Rectangle&gt;" class="cls-2" width="21.48" height="21.48"/></g></pattern></defs><title>Asset 3</title><g id="Layer_2" data-name="Layer 2"><g id="Layer_1-2" data-name="Layer 1"><path id="_Path_5" data-name="&lt;Path&gt;" class="cls-3" d="M373.37,208.34c-10.5,91-85.35,161-184.47,161S18,301.32,1.43,208.34"/><polygon id="_Path_6" data-name="&lt;Path&gt;" class="cls-4" points="108.13 342.55 98.6 366.68 130.4 378.8 174.8 382.32 230.17 382.32 275.06 370.61 283.55 362.63 275.65 335.73 233.16 349.52 187.38 351.84 127.82 346.69 108.13 342.55"/><path class="cls-5" d="M112.45,353.9c1.54-3.82,6.52-4.81,11.59-2.75,4.48,1.81,5.9,4.59,6.21,6.7l-4.94-.25a3.89,3.89,0,0,0-2.61-3.15c-2.29-.93-4.46-.21-5.16,1.51s.36,3.75,2.65,4.68a3.89,3.89,0,0,0,4.06-.45l3.73,3.23c-1.64,1.26-4.65,2.33-9.12.52C113.79,361.88,110.91,357.7,112.45,353.9Z"/><path class="cls-5" d="M141.33,356.92c5.33,1.46,8.71,5.29,7.62,9.25s-5.94,5.53-11.28,4.06-8.71-5.29-7.62-9.25S136,355.46,141.33,356.92Zm-.94,3.43c-2.51-.69-4.53.29-5,2.08s.75,3.67,3.26,4.36,4.53-.29,5-2.09S142.9,361,140.39,360.35Z"/><path class="cls-5" d="M157.15,367.78l6.36,1-.47,3-6.36-1Z"/><path class="cls-5" d="M173,362.92l8,.25c5.63.18,9.74,2.71,9.61,7s-4.4,6.54-10,6.37l-8-.25ZM180.72,373c2.71.08,4.37-1.34,4.42-3s-1.3-3.18-4.19-3.27l-2.6-.08-.2,6.29Z"/><path class="cls-5" d="M192.28,363.3l13.54-1,.25,3.35-8.14.6.12,1.55,7.95-.59.25,3.35-7.95.59.13,1.7,8.14-.6.25,3.35-13.54,1Z"/><path class="cls-5" d="M210.64,370.13a10,10,0,0,0,6,.69c1-.18,1.91-.6,1.82-1.11s-.88-.64-2.66-.57c-3,.12-7.51.39-8.09-2.9-.39-2.23,1.73-4.69,6.57-5.55a14.62,14.62,0,0,1,7.8.51l-2.36,3.32a11,11,0,0,0-5.15-.43c-1.32.23-1.55.64-1.49,1,.09.51.84.56,2.75.47,3-.14,7.39-.27,7.93,2.76s-2.07,5.08-6.8,5.92c-3.75.66-6.46.29-8.56-.64Z"/><path class="cls-5" d="M223.53,359l5.25-1.38,3.38,12.9-5.25,1.38Z"/><path class="cls-5" d="M239.45,353.87c3.9-1.44,6.76-.84,8.51.35l-3.68,3.21a4,4,0,0,0-3.6-.22c-2.44.9-3.56,2.9-2.92,4.64s2.79,2.53,5.24,1.62a6.44,6.44,0,0,0,2.54-1.58l-.2-.54-3.25,1.2-1.15-3.11,8.18-3,1.86,5a12.48,12.48,0,0,1-6.74,5.37c-5.09,1.88-10.15.94-11.63-3.05S234.37,355.75,239.45,353.87Z"/><path class="cls-5" d="M256.5,353.29l3.49,6.25-4.73,2.65-6.51-11.64,4.87-2.72,8.71,2.82-3.28-5.86,4.73-2.65,6.51,11.64-4.54,2.54Z"/><polyline id="_Path_7" data-name="&lt;Path&gt;" class="cls-5" points="381.82 220.09 373.07 204.57 362.72 218.67"/><path id="_Path_8" data-name="&lt;Path&gt;" class="cls-3" d="M7.85,160.69C24.17,77.46,90.18,12.62,188,12.62S357.5,83.45,370.24,160.69"/><polygon id="_Path_9" data-name="&lt;Path&gt;" class="cls-4" points="283.01 41.09 292.84 16.96 260.05 4.85 214.28 1.32 157.19 1.32 110.92 13.03 102.16 21.02 110.3 47.91 154.11 34.12 201.3 31.8 262.71 36.95 283.01 41.09"/><path class="cls-5" d="M114.86,25.79c-1.92-3.65.55-8.08,5.4-10.63,4.28-2.25,7.32-1.54,9.12-.41L126,18.36a3.89,3.89,0,0,0-4.09,0c-2.19,1.15-3,3.27-2.18,4.92s3.1,2.15,5.28,1a3.89,3.89,0,0,0,2.28-3.39l4.88-.75c-.1,2.06-1.23,5.05-5.51,7.3C121.82,29.93,116.76,29.42,114.86,25.79Z"/><path class="cls-5" d="M139.14,7.3c5.25-1.72,10.18-.39,11.46,3.5s-1.9,7.88-7.16,9.6S133.26,20.8,132,16.9,133.89,9,139.14,7.3Zm1.11,3.38c-2.47.81-3.62,2.74-3,4.51s2.65,2.65,5.12,1.84,3.62-2.74,3-4.51S142.73,9.87,140.25,10.68Z"/><path class="cls-5" d="M159.21,9.61l6.36-1,.47,3-6.36,1Z"/><path class="cls-5" d="M174,7.13C173.95,3,178.12.13,183.6,0c4.83-.11,7.24,1.87,8.35,3.69l-4.63,1.73a3.89,3.89,0,0,0-3.64-1.86c-2.47.06-4.18,1.58-4.13,3.44s1.82,3.3,4.29,3.24a3.89,3.89,0,0,0,3.55-2l4.71,1.49c-1,1.8-3.35,4-8.18,4.09C178.44,13.93,174.14,11.23,174,7.13Z"/><path class="cls-5" d="M201.22,9.94l-2-.18-.4,4.26-5.4-.5L194.71.23l9.52.89c4.17.39,6.22,2.67,6,5.16A4.4,4.4,0,0,1,206.64,10l2.8,5-6.15-.57Zm1.86-5.55-3.29-.31-.22,2.33,3.29.31c.91.08,1.81-.27,1.87-1S204,4.47,203.09,4.39Z"/><path class="cls-5" d="M213.82,2.28l13.32,2.63-.65,3.3-8-1.58-.3,1.53L226,9.7,225.36,13l-7.82-1.54-.33,1.67,8,1.58-.65,3.3-13.32-2.63Z"/><path class="cls-5" d="M238.11,20.17l-6.57-2-1.17,1.44-5.62-1.72L235,7.07l6.52,2,2.42,14.68L238.28,22Zm-4.26-4.81,3.9,1.19-.58-5.09Z"/><path class="cls-5" d="M250.22,15.94l-4.45-1.82,1.33-3.26L261,16.56l-1.33,3.26L255.24,18l-3.72,9.08-5-2.06Z"/><path class="cls-5" d="M263.6,17.82l12,6.34-1.57,3-7.21-3.81-.73,1.38,7,3.72-1.57,3-7-3.72-.79,1.5L270.95,33l-1.57,3-12-6.34Z"/><polyline id="_Path_10" data-name="&lt;Path&gt;" class="cls-5" points="0 151 7.8 167.03 18.99 153.58"/></g></g></svg>