<svg xmlns="http://www.w3.org/2000/svg" viewBox="0 0 318.7 221.77"><title>create-inner-circle</title><g id="Layer_2" data-name="Layer 2"><g id="Layer_1-2" data-name="Layer 1"><path d="M2.27,175.16a3.35,3.35,0,0,1,2.1-.14,4.12,4.12,0,0,1,1.91,1.12,6.11,6.11,0,0,1,1.35,2.12A5.65,5.65,0,0,1,8,179.55a4,4,0,0,1,0,1.14,4.52,4.52,0,0,1-.24.94,3.77,3.77,0,0,1-.42.8l-1.24-1.3A2.22,2.22,0,0,0,6.5,180a2.62,2.62,0,0,0-.17-1.27,3,3,0,0,0-1.4-1.65A2.23,2.23,0,0,0,3,177a2.23,2.23,0,0,0-1.34,1.4,3,3,0,0,0,.1,2.16,2.61,2.61,0,0,0,.75,1,2.22,2.22,0,0,0,1,.52v1.79a4.26,4.26,0,0,1-.85-.3,4.37,4.37,0,0,1-.82-.52,4,4,0,0,1-.78-.84,5.51,5.51,0,0,1-.63-1.18A6.26,6.26,0,0,1,0,179.2a5,5,0,0,1,.16-1.72,3.63,3.63,0,0,1,.76-1.4A3.38,3.38,0,0,1,2.27,175.16Z"/><path d="M2.54,185.76l6.75-3.15.82,1.75-5.48,2.56,1.63,3.48L5,191Z"/><path d="M5.68,192.31l6.61-3.43.89,1.71L6.57,194Z"/><path d="M7.51,195.83,14,192.1l3.22,5.56-1.21.7-2.25-3.88-1.35.78,2.2,3.8-1.21.7-2.2-3.8-1.47.85,2.25,3.89-1.21.7Z"/><path d="M11.68,203l6.16-4.18L19,200.41l-1.51,6.11,3.87-2.63,1.09,1.6-6.16,4.18-1-1.54,1.59-6.31-4,2.73Z"/><path d="M21.9,207.15l1.09-.87,4.5,5.68-1.1.87-1.64-2.08L20,214.5,18.81,213l4.75-3.76Z"/><path d="M22.95,216.51l1.63,0a4.22,4.22,0,0,0,.3,1.43,4.46,4.46,0,0,0,.88,1.39,2.34,2.34,0,0,0,1,.71.69.69,0,0,0,.71-.1.49.49,0,0,0,.14-.44,1.55,1.55,0,0,0-.21-.61l-.42-.75q-.23-.42-.5-.84a5.82,5.82,0,0,1-.45-.89,4.56,4.56,0,0,1-.26-.88,1.73,1.73,0,0,1,.57-1.62,1.91,1.91,0,0,1,1.82-.38,4.32,4.32,0,0,1,2.16,1.42,5.68,5.68,0,0,1,1.61,3.3H30.3a3.83,3.83,0,0,0-.37-1.32,4.93,4.93,0,0,0-.79-1.18,1.88,1.88,0,0,0-.78-.57.6.6,0,0,0-.62.11.43.43,0,0,0-.11.41,1.78,1.78,0,0,0,.23.6l.43.74.5.83a5.78,5.78,0,0,1,.43.89,4.59,4.59,0,0,1,.25.89,1.75,1.75,0,0,1-.07.85,1.8,1.8,0,0,1-.52.77,2,2,0,0,1-1.9.47,4.6,4.6,0,0,1-2.29-1.54A5.94,5.94,0,0,1,22.95,216.51Z"/><path d="M271.57,1.52A3.59,3.59,0,0,1,273.22.24,3.8,3.8,0,0,1,275.3.07a5.06,5.06,0,0,1,2.08.93,4.57,4.57,0,0,1,.88.83,3.47,3.47,0,0,1,.54.9,4.19,4.19,0,0,1,.24.88,3.63,3.63,0,0,1,0,.86l-1.61-.34A2.09,2.09,0,0,0,277.28,3a2.17,2.17,0,0,0-.73-.92,2.58,2.58,0,0,0-1.91-.53,2.33,2.33,0,0,0-1.63,1,2.34,2.34,0,0,0-.46,1.85,2.57,2.57,0,0,0,1.08,1.66,2.18,2.18,0,0,0,1.09.42,2.12,2.12,0,0,0,1.1-.17l.82,1.42a4.13,4.13,0,0,1-.83.23,4,4,0,0,1-.91,0,3.51,3.51,0,0,1-1-.24,4.51,4.51,0,0,1-1.06-.59A5.19,5.19,0,0,1,271.59,6a4.33,4.33,0,0,1-.66-1.46,3.56,3.56,0,0,1,0-1.53A3.69,3.69,0,0,1,271.57,1.52Z"/><path d="M275.64,9.11l7.25-3.59,1.66,1.43-2.46,7.71-1.5-1.29.43-1.29-2.66-2.29-1.21.62Zm4-.08,1.94,1.67,1.12-3.27Z"/><path d="M282.52,15.09l5.29-5.25,1.26,1.27-.64,6,3.32-3.29L293,15.05l-5.29,5.25-1.19-1.2.7-6.2-3.45,3.42Z"/><path d="M288.69,21.39l5.69-4.8,2.08,2.47a4.69,4.69,0,0,1,1.24,3.06,3.36,3.36,0,0,1-1.28,2.66,3.48,3.48,0,0,1-3.84.52,5.28,5.28,0,0,1-1.8-1.43Zm2.19.44,1,1.14a2.84,2.84,0,0,0,1.14.85,2.19,2.19,0,0,0,1.22.14,2.33,2.33,0,0,0,1.08-.53,2.23,2.23,0,0,0,.84-1.59,2.61,2.61,0,0,0-.72-1.86l-1-1.15Z"/><path d="M294.23,28.13l5.95-4.49L301.23,25l-5.95,4.49Z"/><path d="M296.24,30.74l6.18-4.16,1.8,2.68a4.69,4.69,0,0,1,.9,3.18,3.37,3.37,0,0,1-1.56,2.51,3.48,3.48,0,0,1-3.88.1A5.31,5.31,0,0,1,298,33.43Zm2.13.67.83,1.23a2.85,2.85,0,0,0,1,1,2.19,2.19,0,0,0,1.2.27,2.32,2.32,0,0,0,1.13-.41,2.22,2.22,0,0,0,1-1.49,2.6,2.6,0,0,0-.51-1.93l-.84-1.25Z"/><path d="M300.39,36.88l8-1,1.09,1.9-4.89,6.44-1-1.72.84-1.08-1.75-3-1.35.18Zm3.78,1.26,1.27,2.22,2.15-2.7Z"/><path d="M309.71,41,311,40.4l2.91,5.87-1.25.62-1.06-2.15-5.42,2.68-.78-1.57,5.42-2.69Z"/><path d="M307.6,50.48l6.87-2.87L316.71,53l-1.29.54-1.56-3.75-1.44.6L313.94,54l-1.29.54-1.53-3.66-1.56.65,1.56,3.75-1.29.54Z"/><path d="M311.09,56.14l1.49.5a3.78,3.78,0,0,0-.32,1.33,3.7,3.7,0,0,0,.21,1.47,2,2,0,0,0,.58.92.7.7,0,0,0,.68.15.51.51,0,0,0,.31-.33,1.33,1.33,0,0,0,.06-.59l-.07-.77c0-.29-.06-.58-.1-.88a4.91,4.91,0,0,1,0-.91,3.9,3.9,0,0,1,.13-.84,1.68,1.68,0,0,1,.41-.71,1.88,1.88,0,0,1,.78-.49,2,2,0,0,1,1.79.27,3.63,3.63,0,0,1,1.36,1.92,4.81,4.81,0,0,1,.08,3.35L317,60a3.35,3.35,0,0,0,.21-1.25A4.05,4.05,0,0,0,317,57.5a1.57,1.57,0,0,0-.47-.74.6.6,0,0,0-.6-.11.43.43,0,0,0-.27.31,1.53,1.53,0,0,0,0,.59c0,.23,0,.49.08.78l.1.88a4.77,4.77,0,0,1,0,.9,4,4,0,0,1-.14.84,1.72,1.72,0,0,1-.42.71,2,2,0,0,1-.78.48,2.09,2.09,0,0,1-1.91-.22,3.86,3.86,0,0,1-1.42-2.07A5,5,0,0,1,311.09,56.14Z"/></g></g></svg>